<?xml version="1.0" encoding="UTF-8" standalone="no"?>
<!-- Created with Inkscape (http://www.inkscape.org/) -->

<svg
   xmlns:dc="http://purl.org/dc/elements/1.1/"
   xmlns:cc="http://creativecommons.org/ns#"
   xmlns:rdf="http://www.w3.org/1999/02/22-rdf-syntax-ns#"
   xmlns:svg="http://www.w3.org/2000/svg"
   xmlns="http://www.w3.org/2000/svg"
   xmlns:sodipodi="http://sodipodi.sourceforge.net/DTD/sodipodi-0.dtd"
   xmlns:inkscape="http://www.inkscape.org/namespaces/inkscape"
   width="210mm"
   height="297mm"
   viewBox="0 0 210 297"
   version="1.1"
   id="svg2794"
   inkscape:version="0.92.4 (5da689c313, 2019-01-14)"
   sodipodi:docname="contact2.svg">
  <defs
     id="defs2788" />
  <sodipodi:namedview
     id="base"
     pagecolor="#ffffff"
     bordercolor="#666666"
     borderopacity="1.0"
     inkscape:pageopacity="0.0"
     inkscape:pageshadow="2"
     inkscape:zoom="0.35"
     inkscape:cx="-64.285714"
     inkscape:cy="560"
     inkscape:document-units="mm"
     inkscape:current-layer="layer1"
     showgrid="false"
     inkscape:window-width="1366"
     inkscape:window-height="715"
     inkscape:window-x="-8"
     inkscape:window-y="-8"
     inkscape:window-maximized="1" />
  <metadata
     id="metadata2791">
    <rdf:RDF>
      <cc:Work
         rdf:about="">
        <dc:format>image/svg+xml</dc:format>
        <dc:type
           rdf:resource="http://purl.org/dc/dcmitype/StillImage" />
        <dc:title />
      </cc:Work>
    </rdf:RDF>
  </metadata>
  <g
     inkscape:label="Layer 1"
     inkscape:groupmode="layer"
     id="layer1">
    <g
       id="g2809"
       transform="matrix(0.24579803,0,0,0.24579803,47.171428,4.7488087)" />
    <g
       id="g2959"
       transform="matrix(0.26458333,0,0,0.26458333,295.12377,44.813986)">
      <g
         id="g860" />
      <g
         id="g862" />
      <g
         id="g864" />
      <g
         id="g866" />
      <g
         id="g868" />
      <g
         id="g870" />
      <g
         id="g872" />
      <g
         id="g874" />
      <g
         id="g876" />
      <g
         id="g878" />
      <g
         id="g880" />
      <g
         id="g882" />
      <g
         id="g884" />
      <g
         id="g886" />
      <g
         id="g888" />
    </g>
    <g
       id="g2974"
       transform="matrix(0.24579803,0,0,0.24579803,42.635713,31.207142)" />
    <g
       id="g3189"
       transform="matrix(0.30119513,0,0,0.31008871,31.296384,69.00476)"
       style="fill:#a100e8;fill-opacity:1">
      <path
         id="path3176"
         d="m 498.197,290.55 c -14.511,-13.857 -38.308,-14.318 -53.459,0.81 l -33.779,35.06 c -0.9,0.87 -2.08,1.35 -3.34,1.35 h -97.877 c -2.67,0 -4.85,-2.18 -4.85,-4.85 0,-2.67 2.18,-4.85 4.85,-4.85 h 35.279 c 19.789,0 35.829,-15.26 36.519,-34.74 0.725,-20.458 -15.614,-37.34 -36.009,-37.34 H 243.124 c -30.269,0 -58.708,13.36 -78.038,36.65 -0.11,0.13 -0.22,0.27 -0.33,0.41 l -39.759,51.48 -14.17,-14.17 c -5.86,-5.86 -15.36,-5.85 -21.219,0 C 64.709,345.259 14.707,395.263 4.39,405.58 1.58,408.4 0,412.21 0,416.19 V 495 c 0,8.28 6.72,15 15,15 h 165.356 c 3.98,0 7.79,-1.58 10.61,-4.39 l 41.949,-41.95 c 5.851,-5.873 5.851,-15.349 0,-21.22 l -16.15,-16.14 6.3,-8.01 c 3.04,-3.86 7.6,-6.08 12.51,-6.08 H 416.22 c 10.63,0 21.039,-4.31 28.559,-11.83 l 0.12,-0.12 53.999,-55.28 c 15.056,-15.119 14.776,-39.656 -0.701,-54.43 z m -81.978,91.66 H 235.574 c -14.17,0 -27.319,6.39 -36.089,17.53 l -4.08,5.19 -49.019,-49.01 41.949,-54.32 c 13.6,-16.28 33.559,-25.61 54.789,-25.61 h 102.407 c 3.385,0 6.153,2.807 6.03,6.28 -0.11,3.2 -3.05,5.8 -6.54,5.8 h -35.279 c -19.219,0 -34.849,15.64 -34.849,34.85 0,19.21 15.63,34.85 34.849,34.85 h 97.877 c 9.3,0 18.039,-3.63 24.619,-10.2 0.06,-0.07 0.13,-0.13 0.19,-0.2 l 33.789,-35.07 c 3.1,-3.01 8.13,-3.05 11.26,-0.05 3.288,3.134 3.355,8.375 0.14,11.59 -0.05,0.04 -0.09,0.08 -0.13,0.13 l -53.969,55.24 c -1.929,1.91 -4.589,3 -7.299,3 z M 29.999,422.4 57.108,395.3 c 1.463,1.463 82.333,82.336 84.698,84.7 H 29.999 Z m 149.186,52.55 -100.867,-100.87 21.899,-21.9 c 42.181,42.179 70.893,70.886 100.877,100.87 z"
         inkscape:connector-curvature="0"
         style="fill:#a100e8;fill-opacity:1" />
      <path
         id="path3178"
         d="m 224.204,208.29 h 255.013 c 8.092,0 15,-6.569 15,-15 0,-6.966 0,-167.504 0,-178.3 0,-8.149 -6.68,-14.99 -15,-14.99 H 224.204 c -8.614,0 -15,7.025 -15,14.99 V 15 193.29 c 0,8.368 6.839,15 15,15 z m 15,-160.95 56.138,47.52 -56.138,60.3 z M 464.218,155.16 408.08,94.86 464.218,47.34 Z m -122.197,-20.8 c 5.544,4.693 13.739,4.775 19.379,0 l 23.749,-20.1 59.608,64.03 H 258.663 l 59.608,-64.03 z m 9.69,-31.1 C 347.119,99.372 266.816,31.416 265.143,30 h 173.135 c -1.006,0.852 -84.615,71.607 -86.567,73.26 z"
         inkscape:connector-curvature="0"
         style="fill:#a100e8;fill-opacity:1" />
    </g>
  </g>
</svg>
