<?xml version="1.0" encoding="UTF-8" standalone="no"?>
<!-- Created with Inkscape (http://www.inkscape.org/) -->

<svg
   xmlns:dc="http://purl.org/dc/elements/1.1/"
   xmlns:cc="http://creativecommons.org/ns#"
   xmlns:rdf="http://www.w3.org/1999/02/22-rdf-syntax-ns#"
   xmlns:svg="http://www.w3.org/2000/svg"
   xmlns="http://www.w3.org/2000/svg"
   xmlns:sodipodi="http://sodipodi.sourceforge.net/DTD/sodipodi-0.dtd"
   xmlns:inkscape="http://www.inkscape.org/namespaces/inkscape"
   width="210mm"
   height="297mm"
   viewBox="0 0 210 297"
   version="1.1"
   id="svg7098"
   inkscape:version="0.92.4 (5da689c313, 2019-01-14)"
   sodipodi:docname="homee2.svg">
  <defs
     id="defs7092" />
  <sodipodi:namedview
     id="base"
     pagecolor="#ffffff"
     bordercolor="#666666"
     borderopacity="1.0"
     inkscape:pageopacity="0.0"
     inkscape:pageshadow="2"
     inkscape:zoom="0.35"
     inkscape:cx="-64.285714"
     inkscape:cy="560"
     inkscape:document-units="mm"
     inkscape:current-layer="layer1"
     showgrid="false"
     inkscape:window-width="1366"
     inkscape:window-height="715"
     inkscape:window-x="-8"
     inkscape:window-y="-8"
     inkscape:window-maximized="1" />
  <metadata
     id="metadata7095">
    <rdf:RDF>
      <cc:Work
         rdf:about="">
        <dc:format>image/svg+xml</dc:format>
        <dc:type
           rdf:resource="http://purl.org/dc/dcmitype/StillImage" />
        <dc:title></dc:title>
      </cc:Work>
    </rdf:RDF>
  </metadata>
  <g
     inkscape:label="Layer 1"
     inkscape:groupmode="layer"
     id="layer1">
    <path
       style="fill:#757575;fill-opacity:1;stroke-width:0.29475161"
       d="m 172.6905,127.79577 c 1.67316,1.3361 2.03328,3.90172 0.8105,5.72549 -0.7352,1.09828 -1.87592,1.68023 -3.02764,1.68023 -0.76904,0 -1.54569,-0.25816 -2.21349,-0.79513 l -9.95319,-7.95902 v 82.31997 c 0,2.26217 -1.68077,4.09827 -3.75155,4.09827 H 117.0382 c -1.9735,0 -3.58659,-1.66789 -3.73661,-3.7828 -0.007,-0.0943 -0.0149,-0.19685 -0.0149,-0.31547 V 169.0585 c 0,-6.77879 -5.04966,-12.29512 -11.255,-12.29512 -6.20531,0 -11.254947,5.51633 -11.254947,12.29512 v 39.70913 c 0,0.1189 -0.0075,0.22119 -0.01492,0.31977 -0.15003,2.11491 -1.763396,3.7788 -3.736607,3.7788 H 49.508484 c -2.070784,0 -3.751552,-1.8361 -3.751552,-4.09827 v -82.32059 l -9.953191,7.95902 c -1.669488,1.3401 -4.01805,0.94269 -5.241119,-0.8854 -1.223069,-1.82378 -0.862945,-4.3894 0.81049,-5.72551 L 99.814483,73.049708 c 1.320647,-1.053294 3.113957,-1.053294 4.434597,0 z m -21.8872,76.87359 0.0338,-84.19706 -48.80549,-39.033201 -48.805447,39.032891 0.03384,84.19705 H 83.273268 V 169.0585 c 0,-11.29912 8.414846,-20.49196 18.758332,-20.49196 10.34356,0 18.75839,9.19252 18.75839,20.49196 v 35.61086 z"
       id="path856"
       inkscape:connector-curvature="0" />
    <g
       id="g860"
       transform="matrix(0.26458333,0,0,0.26458333,68.338059,55.39732)">
</g>
    <g
       id="g862"
       transform="matrix(0.26458333,0,0,0.26458333,68.338059,55.39732)">
</g>
    <g
       id="g864"
       transform="matrix(0.26458333,0,0,0.26458333,68.338059,55.39732)">
</g>
    <g
       id="g866"
       transform="matrix(0.26458333,0,0,0.26458333,68.338059,55.39732)">
</g>
    <g
       id="g868"
       transform="matrix(0.26458333,0,0,0.26458333,68.338059,55.39732)">
</g>
    <g
       id="g870"
       transform="matrix(0.26458333,0,0,0.26458333,68.338059,55.39732)">
</g>
    <g
       id="g872"
       transform="matrix(0.26458333,0,0,0.26458333,68.338059,55.39732)">
</g>
    <g
       id="g874"
       transform="matrix(0.26458333,0,0,0.26458333,68.338059,55.39732)">
</g>
    <g
       id="g876"
       transform="matrix(0.26458333,0,0,0.26458333,68.338059,55.39732)">
</g>
    <g
       id="g878"
       transform="matrix(0.26458333,0,0,0.26458333,68.338059,55.39732)">
</g>
    <g
       id="g880"
       transform="matrix(0.26458333,0,0,0.26458333,68.338059,55.39732)">
</g>
    <g
       id="g882"
       transform="matrix(0.26458333,0,0,0.26458333,68.338059,55.39732)">
</g>
    <g
       id="g884"
       transform="matrix(0.26458333,0,0,0.26458333,68.338059,55.39732)">
</g>
    <g
       id="g886"
       transform="matrix(0.26458333,0,0,0.26458333,68.338059,55.39732)">
</g>
    <g
       id="g888"
       transform="matrix(0.26458333,0,0,0.26458333,68.338059,55.39732)">
</g>
    <g
       id="g1476"
       transform="matrix(0.24579802,0,0,0.24579802,-211.98893,-69.686862)" />
    <g
       id="g1484"
       transform="matrix(0.26458333,0,0,0.26458333,-119.28003,151.5671)">
	<g
   id="g1482">
		
		
	</g>

</g>
    <g
       id="g1486"
       transform="matrix(0.26458333,0,0,0.26458333,-119.28003,151.5671)">
</g>
    <g
       id="g1488"
       transform="matrix(0.26458333,0,0,0.26458333,-119.28003,151.5671)">
</g>
    <g
       id="g1490"
       transform="matrix(0.26458333,0,0,0.26458333,-119.28003,151.5671)">
</g>
    <g
       id="g1492"
       transform="matrix(0.26458333,0,0,0.26458333,-119.28003,151.5671)">
</g>
    <g
       id="g1494"
       transform="matrix(0.26458333,0,0,0.26458333,-119.28003,151.5671)">
</g>
    <g
       id="g1496"
       transform="matrix(0.26458333,0,0,0.26458333,-119.28003,151.5671)">
</g>
    <g
       id="g1498"
       transform="matrix(0.26458333,0,0,0.26458333,-119.28003,151.5671)">
</g>
    <g
       id="g1500"
       transform="matrix(0.26458333,0,0,0.26458333,-119.28003,151.5671)">
</g>
    <g
       id="g1502"
       transform="matrix(0.26458333,0,0,0.26458333,-119.28003,151.5671)">
</g>
    <g
       id="g1504"
       transform="matrix(0.26458333,0,0,0.26458333,-119.28003,151.5671)">
</g>
    <g
       id="g1506"
       transform="matrix(0.26458333,0,0,0.26458333,-119.28003,151.5671)">
</g>
    <g
       id="g1508"
       transform="matrix(0.26458333,0,0,0.26458333,-119.28003,151.5671)">
</g>
    <g
       id="g1510"
       transform="matrix(0.26458333,0,0,0.26458333,-119.28003,151.5671)">
</g>
    <g
       id="g1512"
       transform="matrix(0.26458333,0,0,0.26458333,-119.28003,151.5671)">
</g>
    <g
       id="g1514"
       transform="matrix(0.26458333,0,0,0.26458333,-119.28003,151.5671)">
</g>
    <g
       id="g1605"
       transform="matrix(0.26458333,0,0,0.26458333,-71.721878,320.74857)">
      <g
         id="g1548">
	
	
</g>
      <g
         id="g1550">
</g>
      <g
         id="g1552">
</g>
      <g
         id="g1554">
</g>
      <g
         id="g1556">
</g>
      <g
         id="g1558">
</g>
      <g
         id="g1560">
</g>
      <g
         id="g1562">
</g>
      <g
         id="g1564">
</g>
      <g
         id="g1566">
</g>
      <g
         id="g1568">
</g>
      <g
         id="g1570">
</g>
      <g
         id="g1572">
</g>
      <g
         id="g1574">
</g>
      <g
         id="g1576">
</g>
      <g
         id="g1578">
</g>
    </g>
  </g>
</svg>
