<?xml version="1.0" encoding="UTF-8" standalone="no"?>
<!-- Generator: Adobe Illustrator 19.0.0, SVG Export Plug-In . SVG Version: 6.00 Build 0)  -->

<svg
   xmlns:dc="http://purl.org/dc/elements/1.1/"
   xmlns:cc="http://creativecommons.org/ns#"
   xmlns:rdf="http://www.w3.org/1999/02/22-rdf-syntax-ns#"
   xmlns:svg="http://www.w3.org/2000/svg"
   xmlns="http://www.w3.org/2000/svg"
   xmlns:sodipodi="http://sodipodi.sourceforge.net/DTD/sodipodi-0.dtd"
   xmlns:inkscape="http://www.inkscape.org/namespaces/inkscape"
   version="1.1"
   id="Layer_1"
   x="0px"
   y="0px"
   viewBox="0 0 512 512"
   style="enable-background:new 0 0 512 512;"
   xml:space="preserve"
   sodipodi:docname="home.svg"
   inkscape:version="0.92.4 (5da689c313, 2019-01-14)"><metadata
   id="metadata895"><rdf:RDF><cc:Work
       rdf:about=""><dc:format>image/svg+xml</dc:format><dc:type
         rdf:resource="http://purl.org/dc/dcmitype/StillImage" /><dc:title></dc:title></cc:Work></rdf:RDF></metadata><defs
   id="defs893" /><sodipodi:namedview
   pagecolor="#ffffff"
   bordercolor="#666666"
   borderopacity="1"
   objecttolerance="10"
   gridtolerance="10"
   guidetolerance="10"
   inkscape:pageopacity="0"
   inkscape:pageshadow="2"
   inkscape:window-width="1366"
   inkscape:window-height="715"
   id="namedview891"
   showgrid="false"
   inkscape:zoom="1.0703125"
   inkscape:cx="256"
   inkscape:cy="256"
   inkscape:window-x="-8"
   inkscape:window-y="-8"
   inkscape:window-maximized="1"
   inkscape:current-layer="Layer_1" />
<path
   style="fill:#a100e8;stroke-width:0.99999833;fill-opacity:1"
   d="m 506.556,208.06692 c 5.933,4.33699 7.21,12.66496 2.874,18.58494 -2.607,3.56499 -6.652,5.45398 -10.736,5.45398 -2.727,0 -5.481,-0.838 -7.849,-2.58099 l -35.294,-25.83491 v 267.2101 c 0,7.34298 -5.96,13.30296 -13.303,13.30296 H 309.213 c -6.998,0 -12.718,-5.41398 -13.25,-12.27896 -0.027,-0.306 -0.053,-0.639 -0.053,-1.024 V 342.00547 c 0,-22.00392 -17.906,-39.90986 -39.91,-39.90986 -22.004,0 -39.91,17.90594 -39.91,39.90986 v 128.89557 c 0,0.386 -0.027,0.718 -0.053,1.038 -0.532,6.86498 -6.253,12.26596 -13.25,12.26596 H 69.753 c -7.343,0 -13.303,-5.95998 -13.303,-13.30296 v -267.2121 l -35.294,25.83491 c -5.92,4.34998 -14.248,3.05999 -18.585,-2.87399 -4.337,-5.91998 -3.06,-14.24795 2.874,-18.58494 L 248.138,30.361513 c 4.683,-3.418988 11.042,-3.418988 15.725,0 z M 428.944,457.59809 429.064,184.295 256,57.593422 82.936,184.294 83.056,457.59709 H 189.483 V 342.00547 c 0,-36.67687 29.839,-66.51677 66.517,-66.51677 36.678,0 66.517,29.8389 66.517,66.51677 v 115.59262 z"
   id="path856"
   inkscape:connector-curvature="0" />
<path
   style="fill:#1a1a1a;fill-opacity:1"
   d="M429.063,184.293l-0.12,273.304H322.517V342.005c0-36.677-29.839-66.517-66.517-66.517  s-66.517,29.839-66.517,66.517v115.593H83.056l-0.12-273.304L256,57.592L429.063,184.293z"
   id="path858" />
<g
   id="g860">
</g>
<g
   id="g862">
</g>
<g
   id="g864">
</g>
<g
   id="g866">
</g>
<g
   id="g868">
</g>
<g
   id="g870">
</g>
<g
   id="g872">
</g>
<g
   id="g874">
</g>
<g
   id="g876">
</g>
<g
   id="g878">
</g>
<g
   id="g880">
</g>
<g
   id="g882">
</g>
<g
   id="g884">
</g>
<g
   id="g886">
</g>
<g
   id="g888">
</g>
</svg>