<?xml version="1.0" encoding="UTF-8" standalone="no"?>
<svg
   xmlns:dc="http://purl.org/dc/elements/1.1/"
   xmlns:cc="http://creativecommons.org/ns#"
   xmlns:rdf="http://www.w3.org/1999/02/22-rdf-syntax-ns#"
   xmlns:svg="http://www.w3.org/2000/svg"
   xmlns="http://www.w3.org/2000/svg"
   xmlns:sodipodi="http://sodipodi.sourceforge.net/DTD/sodipodi-0.dtd"
   xmlns:inkscape="http://www.inkscape.org/namespaces/inkscape"
   id="svg4525"
   viewBox="0 0 256.4 291.5"
   width="2199"
   height="2500"
   version="1.1"
   sodipodi:docname="javascript.svg"
   inkscape:version="0.92.4 (5da689c313, 2019-01-14)">
  <metadata
     id="metadata3662">
    <rdf:RDF>
      <cc:Work
         rdf:about="">
        <dc:format>image/svg+xml</dc:format>
        <dc:type
           rdf:resource="http://purl.org/dc/dcmitype/StillImage" />
      </cc:Work>
    </rdf:RDF>
  </metadata>
  <defs
     id="defs3660" />
  <sodipodi:namedview
     pagecolor="#ffffff"
     bordercolor="#666666"
     borderopacity="1"
     objecttolerance="10"
     gridtolerance="10"
     guidetolerance="10"
     inkscape:pageopacity="0"
     inkscape:pageshadow="2"
     inkscape:window-width="1366"
     inkscape:window-height="715"
     id="namedview3658"
     showgrid="false"
     inkscape:zoom="0.1888"
     inkscape:cx="391.57352"
     inkscape:cy="1432.0986"
     inkscape:window-x="-8"
     inkscape:window-y="-8"
     inkscape:window-maximized="1"
     inkscape:current-layer="svg4525" />
  <style
     id="style3650">.st0{fill:#d4b830}.st1,.st2{opacity:.986;fill:#ebebeb;fill-opacity:0;enable-background:new}.st2{fill-opacity:.9216}.st3{fill:#fdd83c}</style>
  <g
     id="g5193"
     transform="matrix(0.78108185,0,0,0.59063429,-11.30765,-16.974925)">
    <path
       id="path5113"
       class="st0"
       d="m 75.446678,375.4 -23.8,-262 256.400002,0.1 -23.6,261.7 -104.8,29.6 z m 189.700002,-14.3 19.9,-224.4 h -105 l 0.8,247.5 z m -94.9,-191.5 h -25.5 l -0.3,134.3 -49.500002,-13.5 0.1,30.7 75.200002,20.3 z"
       inkscape:connector-curvature="0"
       style="fill:#d4b830" />
    <path
       id="path5159"
       class="st1"
       d="m 161.84668,338.9 c -3.3,-1 -19.6,-5.4 -36.2,-9.9 l -30.100002,-8.1 v -15.1 c 0,-14.8 0,-15.1 1.5,-14.6 0.8,0.3 11.800002,3.3 24.400002,6.8 l 22.9,6.3 0.2,-67 0.2,-67 h 25 v 85.2 c 0,67.7 -0.2,85.2 -0.9,85.2 -0.5,-0.1 -3.7,-0.9 -7,-1.8 z"
       inkscape:connector-curvature="0"
       style="opacity:0.98600003;fill:#ebebeb;fill-opacity:0;enable-background:new" />
    <path
       id="path5157"
       class="st2"
       d="m 95.046678,321.1 -0.1,-30.7 c 0,0 31.600002,8.9 49.500002,13.5 l 0.3,-134.2 h 25.5 v 171.7 z"
       inkscape:connector-curvature="0"
       style="opacity:0.98600003;fill:#ebebeb;fill-opacity:0.92159998;enable-background:new" />
    <path
       id="path5117"
       class="st3"
       d="m 180.04668,136.7 h 105 l -19.9,224.4 -85.1,23.1 z m 79.7,186.8 6.9,-83.9 -51,5.7 v -44.8 l 54.4,-0.2 2.2,-30.6 -82.1,0.4 1.1,111.4 49.6,-8.5 -0.7,24.8 -50,13.3 0.5,30.4 z"
       inkscape:connector-curvature="0"
       style="fill:#fdd83c" />
  </g>
  <text
     xml:space="preserve"
     style="font-style:normal;font-variant:normal;font-weight:bold;font-stretch:normal;font-size:34.26557922px;line-height:1.25;font-family:Arial;-inkscape-font-specification:'Arial, Bold';font-variant-ligatures:normal;font-variant-caps:normal;font-variant-numeric:normal;font-feature-settings:normal;text-align:start;letter-spacing:0px;word-spacing:0px;writing-mode:lr-tb;text-anchor:start;fill:#000000;fill-opacity:0.53333336;stroke:#000000;stroke-width:0.85663128;stroke-opacity:1;"
     x="72.450356"
     y="219.19667"
     id="text4217"
     transform="scale(0.84249583,1.1869495)"><tspan
       sodipodi:role="line"
       id="tspan4215"
       x="72.450356"
       y="219.19667"
       style="font-style:normal;font-variant:normal;font-weight:bold;font-stretch:normal;font-size:34.26557922px;font-family:Arial;-inkscape-font-specification:'Arial, Bold';font-variant-ligatures:normal;font-variant-caps:normal;font-variant-numeric:normal;font-feature-settings:normal;text-align:start;writing-mode:lr-tb;text-anchor:start;fill:#000000;fill-opacity:0.53333336;stroke-width:0.85663128;stroke:#000000;stroke-opacity:1;">JavaScript</tspan></text>
</svg>
