<?xml version="1.0" encoding="UTF-8" standalone="no"?>
<svg
   xmlns:dc="http://purl.org/dc/elements/1.1/"
   xmlns:cc="http://creativecommons.org/ns#"
   xmlns:rdf="http://www.w3.org/1999/02/22-rdf-syntax-ns#"
   xmlns:svg="http://www.w3.org/2000/svg"
   xmlns="http://www.w3.org/2000/svg"
   xmlns:sodipodi="http://sodipodi.sourceforge.net/DTD/sodipodi-0.dtd"
   xmlns:inkscape="http://www.inkscape.org/namespaces/inkscape"
   id="icons"
   enable-background="new 0 0 64 64"
   height="512"
   viewBox="0 0 64 64"
   width="512"
   version="1.1"
   sodipodi:docname="keyboard.svg"
   inkscape:version="0.92.4 (5da689c313, 2019-01-14)">
  <metadata
     id="metadata7657">
    <rdf:RDF>
      <cc:Work
         rdf:about="">
        <dc:format>image/svg+xml</dc:format>
        <dc:type
           rdf:resource="http://purl.org/dc/dcmitype/StillImage" />
      </cc:Work>
    </rdf:RDF>
  </metadata>
  <defs
     id="defs7655" />
  <sodipodi:namedview
     pagecolor="#ffffff"
     bordercolor="#666666"
     borderopacity="1"
     objecttolerance="10"
     gridtolerance="10"
     guidetolerance="10"
     inkscape:pageopacity="0"
     inkscape:pageshadow="2"
     inkscape:window-width="1366"
     inkscape:window-height="715"
     id="namedview7653"
     showgrid="false"
     inkscape:zoom="0.4609375"
     inkscape:cx="256"
     inkscape:cy="256"
     inkscape:window-x="-8"
     inkscape:window-y="-8"
     inkscape:window-maximized="1"
     inkscape:current-layer="icons" />
  <path
     d="m 6.2448396,30.92422 h 2.7910146 c 0,0.0028 -9.344e-4,0.0066 -9.344e-4,0.0094 v 14.983987 c 0,2.809322 1.4258752,5.42761 3.7375492,6.985847 v 1.435564 c -0.51111,0.0066 -0.922241,0.420462 -0.922241,0.933631 v 1.879437 c -0.516716,0 -0.934387,0.418589 -0.934387,0.93644 v 2.805577 c 0,0.517851 0.417671,0.93644 0.934387,0.93644 0.516717,0 0.934388,-0.418589 0.934388,-0.93644 v -1.869136 h 9.343872 v 1.869136 c 0,0.517851 0.417671,0.93644 0.934387,0.93644 0.516716,0 0.934387,-0.418589 0.934387,-0.93644 v -2.805577 c 0,-0.517851 -0.417671,-0.93644 -0.934387,-0.93644 v -1.879437 c 0,-0.517851 -0.417671,-0.93644 -0.934387,-0.93644 h -0.0047 v -1.574157 c 1.002597,-0.724805 1.919231,-1.671547 2.718132,-2.848653 9.34e-4,-9.36e-4 0.0019,-9.36e-4 0.0019,-0.0019 l 5.966062,-8.805351 c 9.35e-4,-9.37e-4 9.35e-4,-0.0019 9.35e-4,-0.0019 0.91383,-1.346602 0.86898,-2.850526 -0.113061,-3.834725 -1.074546,-1.076906 -2.805965,-1.086271 -3.941246,-0.02154 -9.34e-4,9.37e-4 -9.34e-4,0.0028 -0.0028,0.0037 -9.34e-4,9.36e-4 -0.0028,9.36e-4 -0.0047,0.0028 l -0.895143,0.855907 v -7.186246 h 13.104781 v 7.186246 l -0.895143,-0.855907 c -0.0019,-0.0019 -0.0037,-0.0019 -0.0047,-0.0028 -0.0019,-9.37e-4 -0.0019,-0.0028 -0.0028,-0.0037 -1.136215,-1.064733 -2.8667,-1.055368 -3.941245,0.02154 -0.982041,0.984199 -1.026892,2.488123 -0.113061,3.834725 0,0 0,9.36e-4 9.34e-4,0.0019 l 5.966063,8.805351 c 0,9.37e-4 9.34e-4,9.37e-4 0.0019,0.0019 0.798901,1.177106 1.715535,2.123848 2.718133,2.848653 v 1.574157 h -0.0056 c -0.516716,0 -0.934387,0.418589 -0.934387,0.93644 v 1.882246 c -0.510175,0.0075 -0.921306,0.420462 -0.921306,0.933631 v 2.805577 c 0,0.517851 0.417671,0.93644 0.934388,0.93644 0.516716,0 0.934387,-0.418589 0.934387,-0.93644 v -1.869136 h 9.343872 v 1.869136 c 0,0.517851 0.417671,0.93644 0.934387,0.93644 0.516716,0 0.934387,-0.418589 0.934387,-0.93644 v -2.805577 c 0,-0.517851 -0.417671,-0.93644 -0.934387,-0.93644 h -0.01308 v -1.879437 c 0,-0.513169 -0.411131,-0.92614 -0.921306,-0.933631 v -1.435564 c 2.311674,-1.558237 3.737549,-4.176525 3.737549,-6.985847 V 30.933585 c 0,-0.0028 -9.35e-4,-0.0066 -9.35e-4,-0.0094 h 2.791015 c 1.545476,0 2.803161,-1.260449 2.803161,-2.809322 V 4.7076271 c 7e-6,-1.5488728 -1.257678,-2.809322 -2.803154,-2.809322 H 6.2448396 c -1.5454764,0 -2.8031616,1.2604492 -2.8031616,2.809322 V 28.114898 c 0,1.548873 1.2576852,2.809322 2.8031616,2.809322 z m 7.4741634,26.227831 v -0.942996 h 7.465754 c 0.0019,0 0.0028,9.36e-4 0.0047,9.36e-4 0.0019,0 0.0028,-9.36e-4 0.0047,-9.36e-4 v 0.942996 z M 29.376529,38.594606 c 0.498029,0.499123 -0.0056,1.303525 -0.111192,1.459911 l -9.34e-4,9.36e-4 -5.966063,8.805352 v 9.36e-4 c -0.771803,1.13403 -1.651062,2.019903 -2.611612,2.635145 -0.02803,0.01873 -0.04392,0.04682 -0.06914,0.06649 -0.05139,0.0412 -0.09718,0.08334 -0.13829,0.133911 -0.03738,0.04682 -0.06821,0.09364 -0.09718,0.144212 -0.02803,0.05244 -0.05139,0.103945 -0.07008,0.162004 -0.01962,0.06087 -0.0299,0.121737 -0.03738,0.186352 -0.0037,0.03278 -0.01962,0.0618 -0.01962,0.09645 v 2.049869 H 14.64124 v -1.930005 c 0,-0.04027 -0.01869,-0.07491 -0.02242,-0.113309 -0.0084,-0.06461 -0.01682,-0.126419 -0.03738,-0.187288 -0.01962,-0.059 -0.04859,-0.108627 -0.07849,-0.162004 -0.02897,-0.05057 -0.05887,-0.09739 -0.09718,-0.142339 -0.04392,-0.05057 -0.09437,-0.09083 -0.146698,-0.131102 -0.0299,-0.02248 -0.05046,-0.05525 -0.08409,-0.07398 -2.01734,-1.17055 -3.271288,-3.346838 -3.271288,-5.678575 V 30.933585 c 0,-0.515979 0.418606,-0.936441 0.934387,-0.936441 0.515782,0 0.934388,0.419525 0.934388,0.936441 v 6.556021 c 0,0.517852 0.417671,0.936441 0.934387,0.936441 0.516716,0 0.934387,-0.418589 0.934387,-0.936441 v -9.364407 c 0,-0.515979 0.418605,-0.936441 0.934387,-0.936441 0.515782,0 0.934387,0.420462 0.934387,0.936441 v 9.364407 c 0,0.517852 0.417671,0.936441 0.934388,0.936441 0.516716,0 0.934387,-0.418589 0.934387,-0.936441 V 26.301949 c 9.34e-4,-0.0206 0.01215,-0.03839 0.01215,-0.059 v -0.985135 c 0.03177,-0.487886 0.427949,-0.878382 0.92224,-0.878382 0.515782,0 0.934387,0.420462 0.934387,0.936441 v 12.173729 c 0,0.517852 0.417671,0.936441 0.934387,0.936441 0.516717,0 0.934388,-0.418589 0.934388,-0.936441 v -9.364407 c 0,-0.515979 0.418605,-0.936441 0.934387,-0.936441 0.515782,0 0.934387,0.420462 0.934387,0.936441 v 12.173729 c 0,0.04588 0.01962,0.08522 0.02523,0.128292 0.01121,0.07398 0.01682,0.147958 0.04485,0.219127 0.02803,0.07117 0.07569,0.129229 0.119602,0.191034 0.02523,0.03465 0.03738,0.07585 0.06821,0.107691 0.0028,0.0028 0.0065,0.0037 0.0093,0.0066 0.08596,0.08896 0.187812,0.161068 0.303676,0.210699 0.115864,0.0487 0.240137,0.07304 0.363476,0.07304 0.119602,0 0.239203,-0.02435 0.352264,-0.07117 0.05887,-0.02435 0.10652,-0.06649 0.15978,-0.102072 0.04485,-0.02903 0.09437,-0.04776 0.133618,-0.08522 l 2.469585,-2.360767 c 0.39618,-0.370831 0.985779,-0.379258 1.34178,-0.02154 z M 16.522164,25.197886 c -0.0019,0.03652 -0.01121,0.07117 -0.01121,0.10769 h -0.923175 v -0.93644 h 0.934387 z m 26.162842,0.108627 H 22.127553 v -0.936441 h 20.557453 z m -16.831117,3.744826 v -0.92614 c 0,-0.333373 -0.06821,-0.648953 -0.175664,-0.945805 H 39.1334 c -0.10652,0.296852 -0.175664,0.612432 -0.175664,0.945805 v 0.92614 z m 17.76457,28.100712 v -0.942996 h 9.34e-4 c 0.0019,0 0.0028,9.36e-4 0.0047,9.36e-4 0.0019,0 0.0028,-9.36e-4 0.0047,-9.36e-4 h 7.46482 v 0.942996 z m 7.020051,-5.555903 c -0.03364,0.01967 -0.05419,0.0515 -0.08409,0.07492 -0.05326,0.03933 -0.102782,0.0796 -0.146699,0.130166 -0.03831,0.04495 -0.06728,0.09271 -0.09718,0.143275 -0.0299,0.05244 -0.05887,0.102072 -0.07849,0.161068 -0.02056,0.06087 -0.02897,0.122674 -0.03738,0.187288 -0.0047,0.03933 -0.02243,0.07304 -0.02243,0.113309 v 1.930005 h -5.613789 v -2.049874 c 0,-0.03371 -0.01588,-0.06274 -0.01962,-0.09739 -0.0075,-0.06368 -0.01869,-0.124546 -0.03737,-0.185415 -0.01869,-0.05806 -0.04205,-0.109564 -0.07008,-0.162004 -0.02803,-0.0515 -0.05887,-0.09739 -0.09718,-0.144212 -0.04205,-0.05057 -0.08783,-0.09271 -0.13829,-0.133911 -0.02523,-0.01966 -0.04111,-0.04869 -0.06914,-0.06649 -0.96055,-0.615242 -1.839809,-1.502051 -2.611613,-2.635145 v -9.33e-4 l -5.966062,-8.805352 -9.34e-4,-9.36e-4 c -0.105586,-0.156386 -0.609221,-0.959852 -0.111192,-1.459911 0.356935,-0.35772 0.946534,-0.348356 1.342714,0.0206 l 2.469585,2.360766 c 0.04018,0.0384 0.0897,0.05619 0.133618,0.08522 0.05326,0.03558 0.09998,0.07866 0.15978,0.102072 0.113061,0.04682 0.232662,0.07117 0.352264,0.07117 0.123339,0 0.247613,-0.02435 0.363477,-0.07304 0.115864,-0.04963 0.217712,-0.121738 0.303675,-0.210699 0.0028,-0.0028 0.0065,-0.0037 0.0093,-0.0066 0.0299,-0.03184 0.04298,-0.07304 0.06728,-0.107691 0.04485,-0.06087 0.0925,-0.119865 0.120536,-0.191971 0.02803,-0.0693 0.03364,-0.143275 0.04485,-0.217254 0.0065,-0.04401 0.02523,-0.08334 0.02523,-0.129229 V 28.124263 c 0,-0.515979 0.418606,-0.936441 0.934387,-0.936441 0.515782,0 0.934388,0.420462 0.934388,0.936441 v 9.364406 c 0,0.517852 0.417671,0.936441 0.934387,0.936441 0.516716,0 0.934387,-0.418589 0.934387,-0.936441 V 25.314941 c 0,-0.515979 0.418605,-0.936441 0.934387,-0.936441 0.494291,0 0.890471,0.390496 0.92224,0.878381 v 0.985136 c 0,0.0206 0.01121,0.03839 0.01215,0.059 v 11.187656 c 0,0.517852 0.417671,0.936441 0.934388,0.936441 0.516716,0 0.934387,-0.418589 0.934387,-0.936441 v -9.364406 c 0,-0.515979 0.418605,-0.936441 0.934387,-0.936441 0.515782,0 0.934387,0.420462 0.934387,0.936441 v 9.364406 c 0,0.517852 0.417671,0.936441 0.934387,0.936441 0.516716,0 0.934388,-0.418589 0.934388,-0.936441 v -6.556021 c 0,-0.515979 0.418605,-0.93644 0.934387,-0.93644 0.515781,0 0.934387,0.419525 0.934387,0.93644 V 45.91664 c -9.34e-4,2.332673 -1.254882,4.508961 -3.272224,5.679512 z M 49.225717,25.306513 h -0.923175 c 0,-0.03746 -0.0093,-0.07117 -0.01121,-0.107691 V 24.371008 H 49.22572 Z M 5.3104524,4.7076271 c 0,-0.5159788 0.4186055,-0.9364406 0.9343872,-0.9364406 H 58.568654 c 0.515782,0 0.934387,0.4204618 0.934387,0.9364406 V 28.114898 c 0,0.515979 -0.418605,0.936441 -0.934387,0.936441 h -3.527312 c -0.512978,-0.564674 -1.245538,-0.92614 -2.06593,-0.92614 -0.329838,0 -0.640989,0.06742 -0.934387,0.172305 v -0.172305 c 0,-0.832496 -0.370017,-1.574157 -0.946534,-2.088263 v -2.602368 c 0,-0.516916 -0.417671,-0.936441 -0.934387,-0.936441 h -2.803162 c -0.262563,0 -0.498028,0.109564 -0.668087,0.284678 -0.362542,-0.172305 -0.761525,-0.275314 -1.18854,-0.275314 -0.433556,0 -0.83908,0.107691 -1.206294,0.284678 -0.170993,-0.17886 -0.408327,-0.293106 -0.674628,-0.293106 H 21.193166 c -0.2663,0 -0.503635,0.114246 -0.673693,0.293106 -0.367214,-0.176987 -0.772738,-0.284678 -1.206294,-0.284678 -0.427015,0 -0.826933,0.103009 -1.188541,0.275314 -0.170058,-0.175114 -0.405524,-0.284678 -0.668086,-0.284678 H 14.65339 c -0.516716,0 -0.934387,0.419525 -0.934387,0.936441 v 2.602368 c -0.575583,0.515043 -0.946534,1.255767 -0.946534,2.088263 v 0.172305 c -0.293398,-0.104881 -0.604549,-0.172305 -0.934388,-0.172305 -0.820392,0 -1.552951,0.361466 -2.0659297,0.92614 H 6.2448396 c -0.5157817,0 -0.9343872,-0.420462 -0.9343872,-0.936441 z"
     id="path7602"
     style="fill:#cb70f8;fill-opacity:1;stroke-width:0.93541336"
     inkscape:connector-curvature="0" />
  <path
     d="m 8.1126796,15.943979 h 2.8031614 c 0.516716,0 0.934387,-0.419526 0.934387,-0.936441 v -2.809322 c 0,-0.516915 -0.417671,-0.936441 -0.934387,-0.936441 H 8.1126796 c -0.5167161,0 -0.9343872,0.419526 -0.9343872,0.936441 v 2.809322 c 0,0.516915 0.4176711,0.936441 0.9343872,0.936441 z M 9.0470668,13.134657 H 9.981454 v 0.93644 H 9.0470668 Z"
     id="path7604"
     style="fill:#cb70f8;fill-opacity:1;stroke-width:0.93541336"
     inkscape:connector-curvature="0" />
  <path
     d="m 14.65339,15.943979 h 2.803162 c 0.516716,0 0.934387,-0.419526 0.934387,-0.936441 v -2.809322 c 0,-0.516915 -0.417671,-0.936441 -0.934387,-0.936441 H 14.65339 c -0.516716,0 -0.934387,0.419526 -0.934387,0.936441 v 2.809322 c 0,0.516915 0.417671,0.936441 0.934387,0.936441 z m 0.934387,-2.809322 h 0.934387 v 0.93644 h -0.934387 z"
     id="path7606"
     style="fill:#cb70f8;fill-opacity:1;stroke-width:0.93541336"
     inkscape:connector-curvature="0" />
  <path
     d="m 21.1941,15.943979 h 2.803162 c 0.516716,0 0.934387,-0.419526 0.934387,-0.936441 v -2.809322 c 0,-0.516915 -0.417671,-0.936441 -0.934387,-0.936441 H 21.1941 c -0.516716,0 -0.934387,0.419526 -0.934387,0.936441 v 2.809322 c 0,0.516915 0.417671,0.936441 0.934387,0.936441 z m 0.934388,-2.809322 h 0.934387 v 0.93644 h -0.934387 z"
     id="path7608"
     style="fill:#cb70f8;fill-opacity:1;stroke-width:0.93541336"
     inkscape:connector-curvature="0" />
  <path
     d="m 27.734811,15.943979 h 2.803161 c 0.516717,0 0.934388,-0.419526 0.934388,-0.936441 v -2.809322 c 0,-0.516915 -0.417671,-0.936441 -0.934388,-0.936441 h -2.803161 c -0.516716,0 -0.934387,0.419526 -0.934387,0.936441 v 2.809322 c 0,0.516915 0.417671,0.936441 0.934387,0.936441 z m 0.934387,-2.809322 h 0.934387 v 0.93644 h -0.934387 z"
     id="path7610"
     style="fill:#cb70f8;fill-opacity:1;stroke-width:0.93541336"
     inkscape:connector-curvature="0" />
  <path
     d="m 34.275521,15.943979 h 2.803162 c 0.516716,0 0.934387,-0.419526 0.934387,-0.936441 v -2.809322 c 0,-0.516915 -0.417671,-0.936441 -0.934387,-0.936441 h -2.803162 c -0.516716,0 -0.934387,0.419526 -0.934387,0.936441 v 2.809322 c 0,0.516915 0.417671,0.936441 0.934387,0.936441 z m 0.934387,-2.809322 h 0.934388 v 0.93644 h -0.934388 z"
     id="path7612"
     style="fill:#cb70f8;fill-opacity:1;stroke-width:0.93541336"
     inkscape:connector-curvature="0" />
  <path
     d="m 40.816232,15.943979 h 2.803161 c 0.516716,0 0.934388,-0.419526 0.934388,-0.936441 v -2.809322 c 0,-0.516915 -0.417672,-0.936441 -0.934388,-0.936441 h -2.803161 c -0.516716,0 -0.934387,0.419526 -0.934387,0.936441 v 2.809322 c 0,0.516915 0.417671,0.936441 0.934387,0.936441 z m 0.934387,-2.809322 h 0.934387 v 0.93644 h -0.934387 z"
     id="path7614"
     style="fill:#cb70f8;fill-opacity:1;stroke-width:0.93541336"
     inkscape:connector-curvature="0" />
  <path
     d="m 47.356942,15.943979 h 2.803162 c 0.516716,0 0.934387,-0.419526 0.934387,-0.936441 v -2.809322 c 0,-0.516915 -0.417671,-0.936441 -0.934387,-0.936441 h -2.803162 c -0.516716,0 -0.934387,0.419526 -0.934387,0.936441 v 2.809322 c 0,0.516915 0.417671,0.936441 0.934387,0.936441 z m 0.934387,-2.809322 h 0.934388 v 0.93644 h -0.934388 z"
     id="path7616"
     style="fill:#cb70f8;fill-opacity:1;stroke-width:0.93541336"
     inkscape:connector-curvature="0" />
  <path
     d="m 8.1126796,21.562623 h 9.3438724 c 0.516716,0 0.934387,-0.419526 0.934387,-0.936441 V 17.81686 c 0,-0.516915 -0.417671,-0.936441 -0.934387,-0.936441 H 8.1126796 c -0.5167161,0 -0.9343872,0.419526 -0.9343872,0.936441 v 2.809322 c 0,0.516915 0.4176711,0.936441 0.9343872,0.936441 z m 0.9343872,-2.809322 h 7.4750972 v 0.93644 H 9.0470668 Z"
     id="path7618"
     style="fill:#cb70f8;fill-opacity:1;stroke-width:0.93541336"
     inkscape:connector-curvature="0" />
  <path
     d="m 21.1941,21.562623 h 2.803162 c 0.516716,0 0.934387,-0.419526 0.934387,-0.936441 V 17.81686 c 0,-0.516915 -0.417671,-0.936441 -0.934387,-0.936441 H 21.1941 c -0.516716,0 -0.934387,0.419526 -0.934387,0.936441 v 2.809322 c 0,0.516915 0.417671,0.936441 0.934387,0.936441 z m 0.934388,-2.809322 h 0.934387 v 0.93644 h -0.934387 z"
     id="path7620"
     style="fill:#cb70f8;fill-opacity:1;stroke-width:0.93541336"
     inkscape:connector-curvature="0" />
  <path
     d="m 27.734811,21.562623 h 2.803161 c 0.516717,0 0.934388,-0.419526 0.934388,-0.936441 V 17.81686 c 0,-0.516915 -0.417671,-0.936441 -0.934388,-0.936441 h -2.803161 c -0.516716,0 -0.934387,0.419526 -0.934387,0.936441 v 2.809322 c 0,0.516915 0.417671,0.936441 0.934387,0.936441 z m 0.934387,-2.809322 h 0.934387 v 0.93644 h -0.934387 z"
     id="path7622"
     style="fill:#cb70f8;fill-opacity:1;stroke-width:0.93541336"
     inkscape:connector-curvature="0" />
  <path
     d="m 34.275521,21.562623 h 2.803162 c 0.516716,0 0.934387,-0.419526 0.934387,-0.936441 V 17.81686 c 0,-0.516915 -0.417671,-0.936441 -0.934387,-0.936441 h -2.803162 c -0.516716,0 -0.934387,0.419526 -0.934387,0.936441 v 2.809322 c 0,0.516915 0.417671,0.936441 0.934387,0.936441 z m 0.934387,-2.809322 h 0.934388 v 0.93644 h -0.934388 z"
     id="path7624"
     style="fill:#cb70f8;fill-opacity:1;stroke-width:0.93541336"
     inkscape:connector-curvature="0" />
  <path
     d="m 40.816232,21.562623 h 2.803161 c 0.516716,0 0.934388,-0.419526 0.934388,-0.936441 V 17.81686 c 0,-0.516915 -0.417672,-0.936441 -0.934388,-0.936441 h -2.803161 c -0.516716,0 -0.934387,0.419526 -0.934387,0.936441 v 2.809322 c 0,0.516915 0.417671,0.936441 0.934387,0.936441 z m 0.934387,-2.809322 h 0.934387 v 0.93644 h -0.934387 z"
     id="path7626"
     style="fill:#cb70f8;fill-opacity:1;stroke-width:0.93541336"
     inkscape:connector-curvature="0" />
  <path
     d="m 47.356942,21.562623 h 2.803162 c 0.516716,0 0.934387,-0.419526 0.934387,-0.936441 V 17.81686 c 0,-0.516915 -0.417671,-0.936441 -0.934387,-0.936441 h -2.803162 c -0.516716,0 -0.934387,0.419526 -0.934387,0.936441 v 2.809322 c 0,0.516915 0.417671,0.936441 0.934387,0.936441 z m 0.934387,-2.809322 h 0.934388 v 0.93644 h -0.934388 z"
     id="path7628"
     style="fill:#cb70f8;fill-opacity:1;stroke-width:0.93541336"
     inkscape:connector-curvature="0" />
  <path
     d="m 53.897653,21.562623 h 2.803161 c 0.516716,0 0.934387,-0.419526 0.934387,-0.936441 v -8.427966 c 0,-0.516915 -0.417671,-0.936441 -0.934387,-0.936441 h -2.803161 c -0.516717,0 -0.934388,0.419526 -0.934388,0.936441 v 8.427966 c 0,0.516915 0.417671,0.936441 0.934388,0.936441 z m 0.934387,-8.427966 h 0.934387 v 6.555084 H 54.83204 Z"
     id="path7630"
     style="fill:#cb70f8;fill-opacity:1;stroke-width:0.93541336"
     inkscape:connector-curvature="0" />
  <path
     d="m 8.1126796,27.179394 h 2.8031614 c 0.516716,0 0.934387,-0.419525 0.934387,-0.936441 v -2.809322 c 0,-0.516915 -0.417671,-0.93644 -0.934387,-0.93644 H 8.1126796 c -0.5167161,0 -0.9343872,0.419525 -0.9343872,0.93644 v 2.809322 c 0,0.516916 0.4176711,0.936441 0.9343872,0.936441 z M 9.0470668,24.370072 H 9.981454 v 0.936441 H 9.0470668 Z"
     id="path7632"
     style="fill:#cb70f8;fill-opacity:1;stroke-width:0.93541336"
     inkscape:connector-curvature="0" />
  <path
     d="m 53.897653,27.179394 h 2.803161 c 0.516716,0 0.934387,-0.419525 0.934387,-0.936441 v -2.809322 c 0,-0.516915 -0.417671,-0.93644 -0.934387,-0.93644 h -2.803161 c -0.516717,0 -0.934388,0.419525 -0.934388,0.93644 v 2.809322 c 0,0.516916 0.417671,0.936441 0.934388,0.936441 z m 0.934387,-2.809322 h 0.934387 v 0.936441 H 54.83204 Z"
     id="path7634"
     style="fill:#cb70f8;fill-opacity:1;stroke-width:0.93541336"
     inkscape:connector-curvature="0" />
  <path
     d="m 9.5142604,10.326271 c 1.2885196,0 2.3359676,-1.0506862 2.3359676,-2.3411015 0,-1.2904152 -1.047448,-2.3411017 -2.3359676,-2.3411017 -1.2885199,0 -2.335968,1.04975 -2.335968,2.3411017 0,1.2913517 1.0474481,2.3411015 2.335968,2.3411015 z m 0,-2.8093218 c 0.2569565,0 0.4671936,0.2097627 0.4671936,0.4682203 0,0.2584576 -0.2102371,0.4682203 -0.4671936,0.4682203 -0.2569565,0 -0.4671936,-0.2106991 -0.4671936,-0.4682203 0,-0.2575212 0.2102371,-0.4682203 0.4671936,-0.4682203 z"
     id="path7636"
     style="fill:#cb70f8;fill-opacity:1;stroke-width:0.93541336"
     inkscape:connector-curvature="0" />
  <path
     d="m 16.054971,10.326271 c 1.28852,0 2.335968,-1.0506862 2.335968,-2.3411015 0,-1.2904152 -1.047448,-2.3411017 -2.335968,-2.3411017 -1.28852,0 -2.335968,1.04975 -2.335968,2.3411017 0,1.2913517 1.047448,2.3411015 2.335968,2.3411015 z m 0,-2.8093218 c 0.256956,0 0.467193,0.2097627 0.467193,0.4682203 0,0.2584576 -0.210237,0.4682203 -0.467193,0.4682203 -0.256957,0 -0.467194,-0.2106991 -0.467194,-0.4682203 0,-0.2575212 0.210237,-0.4682203 0.467194,-0.4682203 z"
     id="path7638"
     style="fill:#cb70f8;fill-opacity:1;stroke-width:0.93541336"
     inkscape:connector-curvature="0" />
  <path
     d="m 22.595681,10.326271 c 1.28852,0 2.335968,-1.0506862 2.335968,-2.3411015 0,-1.2904152 -1.047448,-2.3411017 -2.335968,-2.3411017 -1.28852,0 -2.335968,1.04975 -2.335968,2.3411017 0,1.2913517 1.047448,2.3411015 2.335968,2.3411015 z m 0,-2.8093218 c 0.256957,0 0.467194,0.2097627 0.467194,0.4682203 0,0.2584576 -0.210237,0.4682203 -0.467194,0.4682203 -0.256956,0 -0.467193,-0.2106991 -0.467193,-0.4682203 0,-0.2575212 0.210237,-0.4682203 0.467193,-0.4682203 z"
     id="path7640"
     style="fill:#cb70f8;fill-opacity:1;stroke-width:0.93541336"
     inkscape:connector-curvature="0" />
  <path
     d="m 29.136392,10.326271 c 1.28852,0 2.335968,-1.0506862 2.335968,-2.3411015 0,-1.2904152 -1.047448,-2.3411017 -2.335968,-2.3411017 -1.28852,0 -2.335968,1.04975 -2.335968,2.3411017 0,1.2913517 1.047448,2.3411015 2.335968,2.3411015 z m 0,-2.8093218 c 0.256956,0 0.467193,0.2097627 0.467193,0.4682203 0,0.2584576 -0.210237,0.4682203 -0.467193,0.4682203 -0.256957,0 -0.467194,-0.2106991 -0.467194,-0.4682203 0,-0.2575212 0.210237,-0.4682203 0.467194,-0.4682203 z"
     id="path7642"
     style="fill:#cb70f8;fill-opacity:1;stroke-width:0.93541336"
     inkscape:connector-curvature="0" />
  <path
     d="m 35.677102,10.326271 c 1.28852,0 2.335968,-1.0506862 2.335968,-2.3411015 0,-1.2904152 -1.047448,-2.3411017 -2.335968,-2.3411017 -1.28852,0 -2.335968,1.04975 -2.335968,2.3411017 0,1.2913517 1.047448,2.3411015 2.335968,2.3411015 z m 0,-2.8093218 c 0.256957,0 0.467194,0.2097627 0.467194,0.4682203 0,0.2584576 -0.210237,0.4682203 -0.467194,0.4682203 -0.256956,0 -0.467194,-0.2106991 -0.467194,-0.4682203 0,-0.2575212 0.210238,-0.4682203 0.467194,-0.4682203 z"
     id="path7644"
     style="fill:#cb70f8;fill-opacity:1;stroke-width:0.93541336"
     inkscape:connector-curvature="0" />
  <path
     d="m 42.217813,10.326271 c 1.288519,0 2.335968,-1.0506862 2.335968,-2.3411015 0,-1.2904152 -1.047449,-2.3411017 -2.335968,-2.3411017 -1.28852,0 -2.335968,1.04975 -2.335968,2.3411017 0,1.2913517 1.047448,2.3411015 2.335968,2.3411015 z m 0,-2.8093218 c 0.256956,0 0.467193,0.2097627 0.467193,0.4682203 0,0.2584576 -0.210237,0.4682203 -0.467193,0.4682203 -0.256957,0 -0.467194,-0.2106991 -0.467194,-0.4682203 0,-0.2575212 0.210237,-0.4682203 0.467194,-0.4682203 z"
     id="path7646"
     style="fill:#cb70f8;fill-opacity:1;stroke-width:0.93541336"
     inkscape:connector-curvature="0" />
  <path
     d="m 48.758523,10.326271 c 1.28852,0 2.335968,-1.0506862 2.335968,-2.3411015 0,-1.2904152 -1.047448,-2.3411017 -2.335968,-2.3411017 -1.28852,0 -2.335968,1.04975 -2.335968,2.3411017 0,1.2913517 1.047448,2.3411015 2.335968,2.3411015 z m 0,-2.8093218 c 0.256956,0 0.467194,0.2097627 0.467194,0.4682203 0,0.2584576 -0.210238,0.4682203 -0.467194,0.4682203 -0.256957,0 -0.467194,-0.2106991 -0.467194,-0.4682203 0,-0.2575212 0.210237,-0.4682203 0.467194,-0.4682203 z"
     id="path7648"
     style="fill:#cb70f8;fill-opacity:1;stroke-width:0.93541336"
     inkscape:connector-curvature="0" />
  <path
     d="m 55.299233,10.326271 c 1.28852,0 2.335968,-1.0506862 2.335968,-2.3411015 0,-1.2904152 -1.047448,-2.3411017 -2.335968,-2.3411017 -1.28852,0 -2.335968,1.04975 -2.335968,2.3411017 0,1.2913517 1.047448,2.3411015 2.335968,2.3411015 z m 0,-2.8093218 c 0.256957,0 0.467194,0.2097627 0.467194,0.4682203 0,0.2584576 -0.210237,0.4682203 -0.467194,0.4682203 -0.256956,0 -0.467193,-0.2106991 -0.467193,-0.4682203 0,-0.2575212 0.210237,-0.4682203 0.467193,-0.4682203 z"
     id="path7650"
     style="fill:#cb70f8;fill-opacity:1;stroke-width:0.93541336"
     inkscape:connector-curvature="0" />
</svg>
