<?xml version="1.0" encoding="UTF-8" standalone="no"?>
<!-- Generator: Adobe Illustrator 16.0.0, SVG Export Plug-In . SVG Version: 6.00 Build 0)  -->

<svg
   xmlns:dc="http://purl.org/dc/elements/1.1/"
   xmlns:cc="http://creativecommons.org/ns#"
   xmlns:rdf="http://www.w3.org/1999/02/22-rdf-syntax-ns#"
   xmlns:svg="http://www.w3.org/2000/svg"
   xmlns="http://www.w3.org/2000/svg"
   xmlns:sodipodi="http://sodipodi.sourceforge.net/DTD/sodipodi-0.dtd"
   xmlns:inkscape="http://www.inkscape.org/namespaces/inkscape"
   version="1.1"
   id="Capa_1"
   x="0px"
   y="0px"
   width="438.536px"
   height="438.535px"
   viewBox="0 0 438.536 438.535"
   style="enable-background:new 0 0 438.536 438.535;"
   xml:space="preserve"
   sodipodi:docname="linkedIn_gray.svg"
   inkscape:version="0.92.4 (5da689c313, 2019-01-14)"><metadata
   id="metadata1616"><rdf:RDF><cc:Work
       rdf:about=""><dc:format>image/svg+xml</dc:format><dc:type
         rdf:resource="http://purl.org/dc/dcmitype/StillImage" /></cc:Work></rdf:RDF></metadata><defs
   id="defs1614" /><sodipodi:namedview
   pagecolor="#ffffff"
   bordercolor="#666666"
   borderopacity="1"
   objecttolerance="10"
   gridtolerance="10"
   guidetolerance="10"
   inkscape:pageopacity="0"
   inkscape:pageshadow="2"
   inkscape:window-width="1366"
   inkscape:window-height="715"
   id="namedview1612"
   showgrid="false"
   inkscape:zoom="0.53815544"
   inkscape:cx="-90.122153"
   inkscape:cy="219.2675"
   inkscape:window-x="-8"
   inkscape:window-y="-8"
   inkscape:window-maximized="1"
   inkscape:current-layer="Capa_1" />
<g
   id="g1579"
   style="fill:#757575;fill-opacity:1"
   transform="matrix(0.38135734,0,0,0.38816837,113.35015,136.0136)">
	<g
   id="g1577"
   style="fill:#757575;fill-opacity:1">
		<rect
   x="5.4239998"
   y="145.895"
   width="94.216003"
   height="282.93201"
   id="rect1571"
   style="fill:#757575;fill-opacity:1" />
		<path
   d="m 408.842,171.739 c -19.791,-21.604 -45.967,-32.408 -78.512,-32.408 -11.991,0 -22.891,1.475 -32.695,4.427 -9.801,2.95 -18.079,7.089 -24.838,12.419 -6.755,5.33 -12.135,10.278 -16.129,14.844 -3.798,4.337 -7.512,9.389 -11.136,15.104 v -40.232 h -93.935 l 0.288,13.706 c 0.193,9.139 0.288,37.307 0.288,84.508 0,47.205 -0.19,108.777 -0.572,184.722 h 93.931 V 270.942 c 0,-9.705 1.041,-17.412 3.139,-23.127 4,-9.712 10.037,-17.843 18.131,-24.407 8.093,-6.572 18.13,-9.855 30.125,-9.855 16.364,0 28.407,5.662 36.117,16.987 7.707,11.324 11.561,26.98 11.561,46.966 V 428.82 h 93.931 V 266.664 c -0.007,-41.688 -9.897,-73.328 -29.694,-94.925 z"
   id="path1573"
   style="fill:#757575;fill-opacity:1"
   inkscape:connector-curvature="0" />
		<path
   d="m 53.103,9.708 c -15.796,0 -28.595,4.619 -38.4,13.848 C 4.899,32.787 0,44.441 0,58.529 0,72.42 4.758,84.034 14.275,93.358 c 9.514,9.325 22.078,13.99 37.685,13.99 h 0.571 c 15.99,0 28.887,-4.661 38.688,-13.99 9.801,-9.324 14.606,-20.934 14.417,-34.829 C 105.446,44.442 100.589,32.787 91.075,23.556 81.562,14.323 68.9,9.708 53.103,9.708 Z"
   id="path1575"
   style="fill:#757575;fill-opacity:1"
   inkscape:connector-curvature="0" />
	</g>
</g>
<g
   id="g1581">
</g>
<g
   id="g1583">
</g>
<g
   id="g1585">
</g>
<g
   id="g1587">
</g>
<g
   id="g1589">
</g>
<g
   id="g1591">
</g>
<g
   id="g1593">
</g>
<g
   id="g1595">
</g>
<g
   id="g1597">
</g>
<g
   id="g1599">
</g>
<g
   id="g1601">
</g>
<g
   id="g1603">
</g>
<g
   id="g1605">
</g>
<g
   id="g1607">
</g>
<g
   id="g1609">
</g>
</svg>