<?xml version="1.0" encoding="UTF-8" standalone="no"?>
<!-- Created with Inkscape (http://www.inkscape.org/) -->

<svg
   xmlns:dc="http://purl.org/dc/elements/1.1/"
   xmlns:cc="http://creativecommons.org/ns#"
   xmlns:rdf="http://www.w3.org/1999/02/22-rdf-syntax-ns#"
   xmlns:svg="http://www.w3.org/2000/svg"
   xmlns="http://www.w3.org/2000/svg"
   xmlns:sodipodi="http://sodipodi.sourceforge.net/DTD/sodipodi-0.dtd"
   xmlns:inkscape="http://www.inkscape.org/namespaces/inkscape"
   width="210mm"
   height="297mm"
   viewBox="0 0 210 297"
   version="1.1"
   id="svg5285"
   inkscape:version="0.92.4 (5da689c313, 2019-01-14)"
   sodipodi:docname="linkedin.svg">
  <defs
     id="defs5279" />
  <sodipodi:namedview
     id="base"
     pagecolor="#ffffff"
     bordercolor="#666666"
     borderopacity="1.0"
     inkscape:pageopacity="0.0"
     inkscape:pageshadow="2"
     inkscape:zoom="0.35"
     inkscape:cx="-64.285714"
     inkscape:cy="560"
     inkscape:document-units="mm"
     inkscape:current-layer="layer1"
     showgrid="false"
     inkscape:window-width="1366"
     inkscape:window-height="715"
     inkscape:window-x="-8"
     inkscape:window-y="-8"
     inkscape:window-maximized="1" />
  <metadata
     id="metadata5282">
    <rdf:RDF>
      <cc:Work
         rdf:about="">
        <dc:format>image/svg+xml</dc:format>
        <dc:type
           rdf:resource="http://purl.org/dc/dcmitype/StillImage" />
        <dc:title></dc:title>
      </cc:Work>
    </rdf:RDF>
  </metadata>
  <g
     inkscape:label="Layer 1"
     inkscape:groupmode="layer"
     id="layer1">
    <g
       id="g5890"
       transform="matrix(0.01706989,0,0,0.01710753,88.49995,145.58053)"
       style="fill:#ffffff;fill-opacity:1">
      <g
         id="XMLID_801_"
         style="fill:#ffffff;fill-opacity:1">
	<path
   d="M 72.16,99.73 H 9.927 c -2.762,0 -5,2.239 -5,5 v 199.928 c 0,2.762 2.238,5 5,5 H 72.16 c 2.762,0 5,-2.238 5,-5 V 104.73 c 0,-2.761 -2.238,-5 -5,-5 z"
   id="XMLID_802_"
   inkscape:connector-curvature="0"
   style="fill:#ffffff;fill-opacity:1" />

	<path
   d="M 41.066,0.341 C 18.422,0.341 0,18.743 0,41.362 0,63.991 18.422,82.4 41.066,82.4 63.692,82.4 82.099,63.99 82.099,41.362 82.1,18.743 63.692,0.341 41.066,0.341 Z"
   id="XMLID_803_"
   inkscape:connector-curvature="0"
   style="fill:#ffffff;fill-opacity:1" />

	<path
   d="m 230.454,94.761 c -24.995,0 -43.472,10.745 -54.679,22.954 V 104.73 c 0,-2.761 -2.238,-5 -5,-5 h -59.599 c -2.762,0 -5,2.239 -5,5 v 199.928 c 0,2.762 2.238,5 5,5 h 62.097 c 2.762,0 5,-2.238 5,-5 V 205.74 c 0,-33.333 9.054,-46.319 32.29,-46.319 25.306,0 27.317,20.818 27.317,48.034 v 97.204 c 0,2.762 2.238,5 5,5 H 305 c 2.762,0 5,-2.238 5,-5 V 194.995 C 310,145.43 300.549,94.761 230.454,94.761 Z"
   id="XMLID_804_"
   inkscape:connector-curvature="0"
   style="fill:#ffffff;fill-opacity:1" />

</g>
      <g
         id="g5834"
         style="fill:#ffffff;fill-opacity:1">
</g>
      <g
         id="g5836"
         style="fill:#ffffff;fill-opacity:1">
</g>
      <g
         id="g5838"
         style="fill:#ffffff;fill-opacity:1">
</g>
      <g
         id="g5840"
         style="fill:#ffffff;fill-opacity:1">
</g>
      <g
         id="g5842"
         style="fill:#ffffff;fill-opacity:1">
</g>
      <g
         id="g5844"
         style="fill:#ffffff;fill-opacity:1">
</g>
      <g
         id="g5846"
         style="fill:#ffffff;fill-opacity:1">
</g>
      <g
         id="g5848"
         style="fill:#ffffff;fill-opacity:1">
</g>
      <g
         id="g5850"
         style="fill:#ffffff;fill-opacity:1">
</g>
      <g
         id="g5852"
         style="fill:#ffffff;fill-opacity:1">
</g>
      <g
         id="g5854"
         style="fill:#ffffff;fill-opacity:1">
</g>
      <g
         id="g5856"
         style="fill:#ffffff;fill-opacity:1">
</g>
      <g
         id="g5858"
         style="fill:#ffffff;fill-opacity:1">
</g>
      <g
         id="g5860"
         style="fill:#ffffff;fill-opacity:1">
</g>
      <g
         id="g5862"
         style="fill:#ffffff;fill-opacity:1">
</g>
    </g>
  </g>
</svg>
