<?xml version="1.0" encoding="UTF-8" standalone="no"?>
<!-- Created with Inkscape (http://www.inkscape.org/) -->

<svg
   xmlns:dc="http://purl.org/dc/elements/1.1/"
   xmlns:cc="http://creativecommons.org/ns#"
   xmlns:rdf="http://www.w3.org/1999/02/22-rdf-syntax-ns#"
   xmlns:svg="http://www.w3.org/2000/svg"
   xmlns="http://www.w3.org/2000/svg"
   xmlns:sodipodi="http://sodipodi.sourceforge.net/DTD/sodipodi-0.dtd"
   xmlns:inkscape="http://www.inkscape.org/namespaces/inkscape"
   width="210mm"
   height="297mm"
   viewBox="0 0 210 297"
   version="1.1"
   id="svg3130"
   inkscape:version="0.92.4 (5da689c313, 2019-01-14)"
   sodipodi:docname="linkedinContact.svg">
  <defs
     id="defs3124" />
  <sodipodi:namedview
     id="base"
     pagecolor="#ffffff"
     bordercolor="#666666"
     borderopacity="1.0"
     inkscape:pageopacity="0.0"
     inkscape:pageshadow="2"
     inkscape:zoom="0.35"
     inkscape:cx="-64.285714"
     inkscape:cy="560"
     inkscape:document-units="mm"
     inkscape:current-layer="layer1"
     showgrid="false"
     inkscape:window-width="1366"
     inkscape:window-height="715"
     inkscape:window-x="-8"
     inkscape:window-y="-8"
     inkscape:window-maximized="1" />
  <metadata
     id="metadata3127">
    <rdf:RDF>
      <cc:Work
         rdf:about="">
        <dc:format>image/svg+xml</dc:format>
        <dc:type
           rdf:resource="http://purl.org/dc/dcmitype/StillImage" />
        <dc:title></dc:title>
      </cc:Work>
    </rdf:RDF>
  </metadata>
  <g
     inkscape:label="Layer 1"
     inkscape:groupmode="layer"
     id="layer1">
    <g
       id="g3190"
       transform="matrix(4.9517122,0,0,4.7414585,53.752016,87.750167)"
       style="fill:#ffffff;fill-opacity:1">
      <g
         id="g3134"
         style="fill:#ffffff;fill-opacity:1">
	<path
   id="path3132"
   d="m 5.366,2.973 c 0,1.376 -1.035,2.479 -2.699,2.479 H 2.636 C 1.034,5.453 0,4.348 0,2.973 0,1.564 1.067,0.491 2.698,0.491 4.331,0.49 5.336,1.564 5.366,2.973 Z M 0.28,21.766 H 5.052 V 7.413 H 0.28 Z M 16.764,7.077 c -2.531,0 -3.664,1.39 -4.301,2.37 v 0.046 h -0.031 c 0.012,-0.014 0.023,-0.03 0.031,-0.046 V 7.414 H 7.692 c 0.062,1.345 0,14.353 0,14.353 h 4.771 v -8.016 c 0,-0.432 0.029,-0.855 0.157,-1.164 0.346,-0.854 1.132,-1.747 2.446,-1.747 1.729,0 2.42,1.319 2.42,3.247 v 7.68 h 4.771 V 13.538 C 22.258,9.126 19.902,7.077 16.764,7.077 Z"
   inkscape:connector-curvature="0"
   style="fill:#ffffff;fill-opacity:1" />

</g>
      <g
         id="g3136"
         style="fill:#ffffff;fill-opacity:1">
</g>
      <g
         id="g3138"
         style="fill:#ffffff;fill-opacity:1">
</g>
      <g
         id="g3140"
         style="fill:#ffffff;fill-opacity:1">
</g>
      <g
         id="g3142"
         style="fill:#ffffff;fill-opacity:1">
</g>
      <g
         id="g3144"
         style="fill:#ffffff;fill-opacity:1">
</g>
      <g
         id="g3146"
         style="fill:#ffffff;fill-opacity:1">
</g>
      <g
         id="g3148"
         style="fill:#ffffff;fill-opacity:1">
</g>
      <g
         id="g3150"
         style="fill:#ffffff;fill-opacity:1">
</g>
      <g
         id="g3152"
         style="fill:#ffffff;fill-opacity:1">
</g>
      <g
         id="g3154"
         style="fill:#ffffff;fill-opacity:1">
</g>
      <g
         id="g3156"
         style="fill:#ffffff;fill-opacity:1">
</g>
      <g
         id="g3158"
         style="fill:#ffffff;fill-opacity:1">
</g>
      <g
         id="g3160"
         style="fill:#ffffff;fill-opacity:1">
</g>
      <g
         id="g3162"
         style="fill:#ffffff;fill-opacity:1">
</g>
      <g
         id="g3164"
         style="fill:#ffffff;fill-opacity:1">
</g>
    </g>
  </g>
</svg>
