<?xml version="1.0" encoding="UTF-8" standalone="no"?>
<!-- Created with Inkscape (http://www.inkscape.org/) -->

<svg
   xmlns:dc="http://purl.org/dc/elements/1.1/"
   xmlns:cc="http://creativecommons.org/ns#"
   xmlns:rdf="http://www.w3.org/1999/02/22-rdf-syntax-ns#"
   xmlns:svg="http://www.w3.org/2000/svg"
   xmlns="http://www.w3.org/2000/svg"
   xmlns:sodipodi="http://sodipodi.sourceforge.net/DTD/sodipodi-0.dtd"
   xmlns:inkscape="http://www.inkscape.org/namespaces/inkscape"
   width="210mm"
   height="297mm"
   viewBox="0 0 210 297"
   version="1.1"
   id="svg6283"
   inkscape:version="0.92.4 (5da689c313, 2019-01-14)"
   sodipodi:docname="logo_mobile.svg">
  <defs
     id="defs6277" />
  <sodipodi:namedview
     id="base"
     pagecolor="#ffffff"
     bordercolor="#666666"
     borderopacity="1.0"
     inkscape:pageopacity="0.0"
     inkscape:pageshadow="2"
     inkscape:zoom="7.9195959"
     inkscape:cx="379.76866"
     inkscape:cy="562.18417"
     inkscape:document-units="mm"
     inkscape:current-layer="layer1"
     showgrid="false"
     inkscape:window-width="724"
     inkscape:window-height="403"
     inkscape:window-x="-32000"
     inkscape:window-y="-32000"
     inkscape:window-maximized="0" />
  <metadata
     id="metadata6280">
    <rdf:RDF>
      <cc:Work
         rdf:about="">
        <dc:format>image/svg+xml</dc:format>
        <dc:type
           rdf:resource="http://purl.org/dc/dcmitype/StillImage" />
        <dc:title></dc:title>
      </cc:Work>
    </rdf:RDF>
  </metadata>
  <g
     inkscape:label="Layer 1"
     inkscape:groupmode="layer"
     id="layer1">
    <path
       id="path817"
       d="m 98.332332,145.06501 c -0.10565,0.26537 -0.11571,1.28972 -0.0201,1.74616 0.181107,0.87573 0.689214,1.61878 1.348261,2.00091 0.29178,0.16454 0.342087,0.17515 0.789827,0.17515 0.3572,0 0.51819,-0.0212 0.6339,-0.0903 0.15092,-0.085 0.17608,-0.085 0.40247,-0.004 0.57352,0.20167 0.66407,0.59975 0.23141,1.03497 -0.33203,0.33966 -0.52823,0.38213 -0.8653,0.20168 -0.28173,-0.14861 -0.46284,-0.4246 -0.49302,-0.74304 -0.0151,-0.1964 -0.0453,-0.26539 -0.10565,-0.26539 -0.0453,0 -0.1308,-0.0159 -0.19117,-0.0318 -0.105657,-0.0319 -0.115707,-0.0159 -0.115707,0.15922 0,0.52544 0.714377,1.24728 1.237577,1.25257 0.36726,0 0.93071,-0.45113 1.13194,-0.92351 0.21633,-0.49888 0.0755,-0.84387 -0.35719,-0.90758 -0.50308,-0.0743 -0.51314,-0.0371 0.13584,-0.60503 0.64395,-0.5626 1.00616,-1.01904 1.38348,-1.7143 0.1308,-0.24416 0.2616,-0.47769 0.28676,-0.52015 0.0805,-0.1327 0.0654,0.67405 -0.0201,1.05619 -0.1308,0.5679 -0.38738,1.01373 -0.8653,1.49139 -0.34211,0.33968 -0.41757,0.44581 -0.39241,0.53075 0.0302,0.10081 0.0755,0.069 0.42761,-0.26537 0.73451,-0.70059 1.05648,-1.43301 1.09673,-2.49451 0.0201,-0.57321 -0.0453,-1.13048 -0.13583,-1.19418 -0.0252,-0.0109 -0.15093,0.24943 -0.28173,0.58381 -0.41252,1.05087 -1.00616,1.84701 -1.88657,2.52637 -0.64897,0.4989 -0.60873,0.48297 -0.85021,0.35558 -0.24148,-0.12205 -0.40247,-0.33968 -0.43768,-0.58381 -0.0403,-0.23883 0.14086,-0.50952 0.44774,-0.67936 l 0.23646,-0.13268 0.27166,0.14862 c 0.29682,0.16451 0.41253,0.30782 0.44272,0.53605 l 0.0151,0.14329 0.19117,-0.16982 0.18615,-0.16455 -0.0855,-0.15392 c -0.11068,-0.19636 -0.29179,-0.31313 -0.70432,-0.47236 l -0.31191,-0.11676 -0.35719,0.14332 c -0.43266,0.17513 -0.63389,0.34497 -0.69929,0.5891 -0.0905,0.34499 0.0805,0.71122 0.47289,1.00841 0.28677,0.21231 0.23646,0.25478 -0.24147,0.22292 -1.021264,-0.069 -1.886568,-1.29502 -1.836261,-2.60596 l 0.0151,-0.38213 0.12075,0.23885 c 0.24651,0.49358 0.679147,1.14639 0.975964,1.47545 0.25658,0.2813 0.31192,0.31846 0.3421,0.23885 0.0201,-0.069 -0.0403,-0.18046 -0.22135,-0.38745 -0.392407,-0.45112 -0.664067,-0.92351 -0.970944,-1.67186 -0.15597,-0.38213 -0.2918,-0.70059 -0.301857,-0.71118 -0.0101,-0.0109 -0.0453,0.0477 -0.0755,0.13268 z"
       inkscape:connector-curvature="0"
       style="fill:#5122ff;fill-opacity:1;stroke:#e06900;stroke-width:0.0051562;stroke-miterlimit:4;stroke-dasharray:none;stroke-opacity:1"
       inkscape:export-xdpi="96"
       inkscape:export-ydpi="96" />
    <text
       xml:space="preserve"
       style="font-style:normal;font-variant:normal;font-weight:normal;font-stretch:normal;font-size:1.33497095px;line-height:1.25;font-family:Tiza;-inkscape-font-specification:'Tiza, Normal';font-variant-ligatures:normal;font-variant-caps:normal;font-variant-numeric:normal;font-feature-settings:normal;text-align:start;letter-spacing:0px;word-spacing:0px;writing-mode:lr-tb;text-anchor:start;fill:#5122ff;fill-opacity:1;stroke:none;stroke-width:0.03337428"
       x="99.308266"
       y="149.83237"
       id="text853"
       transform="scale(0.98665646,1.013524)"><tspan
         sodipodi:role="line"
         id="tspan851"
         x="99.308266"
         y="149.83237"
         style="fill:#5122ff;fill-opacity:1;stroke-width:0.03337428">Michl</tspan></text>
  </g>
</svg>
