<?xml version="1.0" encoding="UTF-8" standalone="no"?>
<!-- Created with Inkscape (http://www.inkscape.org/) -->

<svg
   xmlns:dc="http://purl.org/dc/elements/1.1/"
   xmlns:cc="http://creativecommons.org/ns#"
   xmlns:rdf="http://www.w3.org/1999/02/22-rdf-syntax-ns#"
   xmlns:svg="http://www.w3.org/2000/svg"
   xmlns="http://www.w3.org/2000/svg"
   xmlns:sodipodi="http://sodipodi.sourceforge.net/DTD/sodipodi-0.dtd"
   xmlns:inkscape="http://www.inkscape.org/namespaces/inkscape"
   width="210mm"
   height="297mm"
   viewBox="0 0 210 297"
   version="1.1"
   id="svg6283"
   inkscape:version="0.92.4 (5da689c313, 2019-01-14)"
   sodipodi:docname="logo_mobile.svg">
  <defs
     id="defs6277" />
  <sodipodi:namedview
     id="base"
     pagecolor="#ffffff"
     bordercolor="#666666"
     borderopacity="1.0"
     inkscape:pageopacity="0.0"
     inkscape:pageshadow="2"
     inkscape:zoom="3.959798"
     inkscape:cx="353.23819"
     inkscape:cy="571.79498"
     inkscape:document-units="mm"
     inkscape:current-layer="layer1"
     showgrid="false"
     inkscape:window-width="1366"
     inkscape:window-height="715"
     inkscape:window-x="-8"
     inkscape:window-y="-8"
     inkscape:window-maximized="1" />
  <metadata
     id="metadata6280">
    <rdf:RDF>
      <cc:Work
         rdf:about="">
        <dc:format>image/svg+xml</dc:format>
        <dc:type
           rdf:resource="http://purl.org/dc/dcmitype/StillImage" />
        <dc:title />
      </cc:Work>
    </rdf:RDF>
  </metadata>
  <g
     inkscape:label="Layer 1"
     inkscape:groupmode="layer"
     id="layer1">
    <path
       id="path817"
       d="m 99.175096,143.70607 c -0.1419,0.34153 -0.15541,1.65986 -0.027,2.24729 0.24326,1.12707 0.925724,2.08336 1.810924,2.57516 0.39191,0.21177 0.45948,0.22543 1.06087,0.22543 0.47978,0 0.69601,-0.0273 0.85144,-0.11622 0.2027,-0.10937 0.2365,-0.10937 0.54057,-0.006 0.77032,0.25955 0.89195,0.77188 0.31082,1.332 -0.44597,0.43714 -0.70949,0.4918 -1.16223,0.25956 -0.37841,-0.19126 -0.62166,-0.54645 -0.6622,-0.95628 -0.0202,-0.25277 -0.0608,-0.34156 -0.14191,-0.34156 -0.0608,0 -0.17568,-0.0205 -0.25678,-0.041 -0.14191,-0.0411 -0.15541,-0.0205 -0.15541,0.20492 0,0.67623 0.95953,1.60524 1.66227,1.61205 0.49328,0 1.25008,-0.58061 1.52037,-1.18856 0.29056,-0.64205 0.1014,-1.08605 -0.47976,-1.16805 -0.67572,-0.0956 -0.68923,-0.0477 0.18245,-0.77867 0.86492,-0.72405 1.35143,-1.3115 1.85822,-2.20629 0.1757,-0.31423 0.35138,-0.61478 0.38517,-0.66942 0.10808,-0.1708 0.0878,0.86749 -0.027,1.3593 -0.17568,0.73089 -0.52031,1.30466 -1.16223,1.91941 -0.45951,0.43716 -0.56086,0.57375 -0.52707,0.68308 0.0406,0.12973 0.10141,0.0888 0.57435,-0.34154 0.98656,-0.90165 1.41901,-1.84427 1.47307,-3.21041 0.027,-0.73773 -0.0608,-1.45493 -0.18244,-1.53691 -0.0338,-0.0141 -0.20272,0.32102 -0.3784,0.75136 -0.55408,1.35247 -1.35143,2.3771 -2.53395,3.25142 -0.87167,0.64208 -0.81762,0.62158 -1.14197,0.45763 -0.32434,-0.15708 -0.54058,-0.43716 -0.58787,-0.75135 -0.0541,-0.30738 0.1892,-0.65576 0.60138,-0.87434 l 0.31761,-0.17076 0.36487,0.19128 c 0.39868,0.21172 0.5541,0.39616 0.59465,0.68989 l 0.0202,0.18441 0.25677,-0.21855 0.25002,-0.21178 -0.11483,-0.1981 c -0.14867,-0.2527 -0.39193,-0.40299 -0.94602,-0.60792 l -0.41894,-0.15027 -0.47977,0.18445 c -0.58112,0.22539 -0.85141,0.44397 -0.93925,0.75818 -0.12156,0.44399 0.10808,0.91533 0.63517,1.29781 0.38517,0.27324 0.3176,0.32789 -0.32433,0.28689 -1.37173,-0.0888 -2.533974,-1.66668 -2.466404,-3.35384 l 0.0203,-0.49181 0.162187,0.3074 c 0.3311,0.63524 0.912207,1.4754 1.310877,1.89889 0.34463,0.36204 0.41896,0.40986 0.4595,0.30741 0.027,-0.0888 -0.0542,-0.23225 -0.29731,-0.49866 -0.52707,-0.58058 -0.89195,-1.18854 -1.304137,-2.15167 -0.20949,-0.49179 -0.391927,-0.90165 -0.405437,-0.91528 -0.0136,-0.0141 -0.0608,0.0614 -0.10141,0.17076 z"
       inkscape:connector-curvature="0"
       style="fill:#5122ff;fill-opacity:1;stroke:#e06900;stroke-width:0.00677924;stroke-miterlimit:4;stroke-dasharray:none;stroke-opacity:1"
       inkscape:export-xdpi="96"
       inkscape:export-ydpi="96" />
    <text
       xml:space="preserve"
       style="font-style:normal;font-variant:normal;font-weight:normal;font-stretch:normal;font-size:1.75518584px;line-height:1.25;font-family:Tiza;-inkscape-font-specification:'Tiza, Normal';font-variant-ligatures:normal;font-variant-caps:normal;font-variant-numeric:normal;font-feature-settings:normal;text-align:start;letter-spacing:0px;word-spacing:0px;writing-mode:lr-tb;text-anchor:start;fill:#5122ff;fill-opacity:1;stroke:none;stroke-width:0.04387965"
       x="98.452148"
       y="154.19551"
       id="text853"
       transform="scale(1.0079543,0.99210847)"><tspan
         sodipodi:role="line"
         id="tspan851"
         x="98.452148"
         y="154.19551"
         style="fill:#5122ff;fill-opacity:1;stroke-width:0.04387965">Just Flow</tspan></text>
  </g>
</svg>
