<?xml version="1.0" encoding="UTF-8" standalone="no"?>
<!-- Created with Inkscape (http://www.inkscape.org/) -->

<svg
   xmlns:dc="http://purl.org/dc/elements/1.1/"
   xmlns:cc="http://creativecommons.org/ns#"
   xmlns:rdf="http://www.w3.org/1999/02/22-rdf-syntax-ns#"
   xmlns:svg="http://www.w3.org/2000/svg"
   xmlns="http://www.w3.org/2000/svg"
   xmlns:sodipodi="http://sodipodi.sourceforge.net/DTD/sodipodi-0.dtd"
   xmlns:inkscape="http://www.inkscape.org/namespaces/inkscape"
   width="210mm"
   height="297mm"
   viewBox="0 0 210 297"
   version="1.1"
   id="svg8"
   inkscape:version="0.92.4 (5da689c313, 2019-01-14)"
   sodipodi:docname="Michl_logo.svg">
  <defs
     id="defs2" />
  <sodipodi:namedview
     id="base"
     pagecolor="#ffffff"
     bordercolor="#666666"
     borderopacity="1.0"
     inkscape:pageopacity="0.0"
     inkscape:pageshadow="2"
     inkscape:zoom="0.35"
     inkscape:cx="-64.285714"
     inkscape:cy="560"
     inkscape:document-units="mm"
     inkscape:current-layer="g839"
     showgrid="false"
     inkscape:window-width="1366"
     inkscape:window-height="715"
     inkscape:window-x="-8"
     inkscape:window-y="-8"
     inkscape:window-maximized="1" />
  <metadata
     id="metadata5">
    <rdf:RDF>
      <cc:Work
         rdf:about="">
        <dc:format>image/svg+xml</dc:format>
        <dc:type
           rdf:resource="http://purl.org/dc/dcmitype/StillImage" />
        <dc:title></dc:title>
      </cc:Work>
    </rdf:RDF>
  </metadata>
  <g
     inkscape:label="Layer 1"
     inkscape:groupmode="layer"
     id="layer1">
    <g
       id="g839"
       transform="matrix(0.06190463,0,0,-0.07066984,13.688268,246.34673)"
       style="fill:#000000;stroke:none">
      <path
         id="path817"
         d="m 1358.6687,1459.9747 c -2.3459,-5.3472 -2.5694,-25.9873 -0.4468,-35.1845 4.0216,-17.6457 15.3045,-32.6178 29.9388,-40.3177 6.4793,-3.3153 7.5964,-3.5292 17.5387,-3.5292 7.9316,0 11.5064,0.4278 14.0757,1.8181 3.3514,1.7111 3.91,1.7111 8.937,0.1069 12.7352,-4.0639 14.746,-12.0846 5.1387,-20.854 -7.3729,-6.8444 -11.7297,-7.6999 -19.2144,-4.0639 -6.2559,2.9944 -10.2775,8.5555 -10.9478,14.9721 -0.3351,3.957 -1.0054,5.3472 -2.3459,5.3472 -1.0054,0 -2.9045,0.3209 -4.2451,0.6417 -2.3459,0.6417 -2.5694,0.3208 -2.5694,-3.2083 0,-10.5874 15.8631,-25.1318 27.4812,-25.2387 8.155,0 20.6667,9.0902 25.1351,18.6082 4.8036,10.0527 1.6757,17.004 -7.9315,18.2873 -11.1712,1.4973 -11.3946,0.7486 3.0162,12.1916 14.2992,11.3361 22.3424,20.5332 30.7207,34.5428 2.9046,4.9194 5.8091,9.625 6.3677,10.4805 1.7873,2.6736 1.4522,-13.5818 -0.4469,-21.2818 -2.9045,-11.443 -8.6018,-20.4262 -19.2144,-30.0512 -7.5965,-6.8444 -9.2721,-8.9832 -8.7135,-10.6943 0.6702,-2.032 1.6756,-1.3903 9.4954,5.3472 16.31,14.1165 23.4595,28.8748 24.3533,50.2635 0.4468,11.5499 -1.0055,22.779 -3.0163,24.0623 -0.5586,0.2139 -3.3514,-5.0263 -6.2559,-11.7638 -9.1603,-21.1748 -22.3423,-37.2164 -41.8919,-50.9052 -14.4108,-10.0527 -13.5171,-9.7319 -18.8793,-7.1652 -5.3622,2.4597 -8.937,6.8444 -9.7189,11.7638 -0.8937,4.8125 3.1279,10.2666 9.9423,13.6888 l 5.2505,2.6736 6.0324,-2.9944 c 6.591,-3.3153 9.1604,-6.2028 9.8307,-10.8013 l 0.3351,-2.8875 4.2451,3.4222 4.1333,3.3152 -1.8991,3.1014 c -2.4577,3.9569 -6.4793,6.3097 -15.6397,9.518 l -6.9261,2.3527 -7.9315,-2.8874 c -9.6073,-3.5292 -14.0758,-6.9514 -15.528,-11.8708 -2.0108,-6.9513 1.7874,-14.3304 10.5009,-20.3193 6.3676,-4.2777 5.2505,-5.1333 -5.3622,-4.4916 -22.6775,1.3902 -41.8919,26.0942 -40.7748,52.5093 l 0.3351,7.7 2.6811,-4.8125 c 5.4739,-9.9458 15.0811,-23.0998 21.6721,-29.7303 5.6973,-5.6681 6.9262,-6.4167 7.5964,-4.8125 0.4469,1.3903 -0.8937,3.6361 -4.9153,7.8069 -8.7135,9.0902 -14.746,18.6082 -21.5604,33.6872 -3.4631,7.7 -6.4793,14.1166 -6.7027,14.3305 -0.2234,0.2139 -1.0054,-0.9625 -1.6757,-2.6736 z"
         inkscape:connector-curvature="0"
         style="fill:#4704ff;fill-opacity:0.91457286;stroke:#e06900;stroke-width:0.10906681;stroke-miterlimit:4;stroke-dasharray:none;stroke-opacity:1"
         inkscape:export-xdpi="96"
         inkscape:export-ydpi="96" />
    </g>
  </g>
</svg>
