<?xml version="1.0" encoding="UTF-8" standalone="no"?>
<!-- Generator: Adobe Illustrator 19.0.0, SVG Export Plug-In . SVG Version: 6.00 Build 0)  -->

<svg
   xmlns:dc="http://purl.org/dc/elements/1.1/"
   xmlns:cc="http://creativecommons.org/ns#"
   xmlns:rdf="http://www.w3.org/1999/02/22-rdf-syntax-ns#"
   xmlns:svg="http://www.w3.org/2000/svg"
   xmlns="http://www.w3.org/2000/svg"
   xmlns:sodipodi="http://sodipodi.sourceforge.net/DTD/sodipodi-0.dtd"
   xmlns:inkscape="http://www.inkscape.org/namespaces/inkscape"
   version="1.1"
   id="Capa_1"
   x="0px"
   y="0px"
   viewBox="0 0 512 512"
   style="enable-background:new 0 0 512 512;"
   xml:space="preserve"
   sodipodi:docname="my-work.svg"
   inkscape:version="0.92.4 (5da689c313, 2019-01-14)"><metadata
   id="metadata8164"><rdf:RDF><cc:Work
       rdf:about=""><dc:format>image/svg+xml</dc:format><dc:type
         rdf:resource="http://purl.org/dc/dcmitype/StillImage" /></cc:Work></rdf:RDF></metadata><defs
   id="defs8162" /><sodipodi:namedview
   pagecolor="#ffffff"
   bordercolor="#666666"
   borderopacity="1"
   objecttolerance="10"
   gridtolerance="10"
   guidetolerance="10"
   inkscape:pageopacity="0"
   inkscape:pageshadow="2"
   inkscape:window-width="1366"
   inkscape:window-height="715"
   id="namedview8160"
   showgrid="false"
   inkscape:zoom="0.4609375"
   inkscape:cx="256"
   inkscape:cy="256"
   inkscape:window-x="-8"
   inkscape:window-y="-8"
   inkscape:window-maximized="1"
   inkscape:current-layer="Capa_1" />
<g
   id="g8043"
   transform="matrix(0.80932129,0,0,0.80508474,75.932395,71.593221)"
   style="fill:#757575;fill-opacity:1">
	<g
   id="g8041"
   style="fill:#757575;fill-opacity:1">
		<path
   d="M 394.668,0 H 32.001 c -17.673,0 -32,14.327 -32,32 v 256 c 0,17.673 14.327,32 32,32 H 170.668 V 298.667 H 32.001 C 26.11,298.667 21.334,293.891 21.334,288 V 32 c 0,-5.891 4.776,-10.667 10.667,-10.667 h 362.667 c 5.891,0 10.667,4.776 10.667,10.667 v 192 h 21.333 V 32 c 0,-17.673 -14.327,-32 -32,-32 z"
   id="path8039"
   inkscape:connector-curvature="0"
   style="fill:#757575;fill-opacity:1" />
	</g>
</g>
<g
   id="g8049"
   transform="matrix(0.80932129,0,0,0.80508474,75.932395,71.593221)"
   style="fill:#757575;fill-opacity:1">
	<g
   id="g8047"
   style="fill:#757575;fill-opacity:1">
		<rect
   x="128.00101"
   y="309.33301"
   width="21.333"
   height="64"
   id="rect8045"
   style="fill:#757575;fill-opacity:1" />
	</g>
</g>
<g
   id="g8055"
   transform="matrix(0.80932129,0,0,0.80508474,75.932395,71.593221)"
   style="fill:#757575;fill-opacity:1">
	<g
   id="g8053"
   style="fill:#757575;fill-opacity:1">
		<path
   d="m 74.668,256 c -5.891,0 -10.667,-4.776 -10.667,-10.667 V 224 H 42.668 v 21.333 c 0,17.673 14.327,32 32,32 H 96.001 V 256 Z"
   id="path8051"
   inkscape:connector-curvature="0"
   style="fill:#757575;fill-opacity:1" />
	</g>
</g>
<g
   id="g8061"
   transform="matrix(0.80932129,0,0,0.80508474,75.932395,71.593221)"
   style="fill:#757575;fill-opacity:1">
	<g
   id="g8059"
   style="fill:#757575;fill-opacity:1">
		<rect
   x="42.667999"
   y="181.33299"
   width="21.333"
   height="21.333"
   id="rect8057"
   style="fill:#757575;fill-opacity:1" />
	</g>
</g>
<g
   id="g8067"
   transform="matrix(0.80932129,0,0,0.80508474,75.932395,71.593221)"
   style="fill:#757575;fill-opacity:1">
	<g
   id="g8065"
   style="fill:#757575;fill-opacity:1">
		<path
   d="m 389.836,225.941 c -21.736,-21.74 -51.219,-33.953 -81.961,-33.952 -64.006,0.003 -115.891,51.892 -115.889,115.898 0.003,64.006 51.892,115.891 115.898,115.889 30.732,-0.001 60.204,-12.208 81.937,-33.937 45.263,-45.255 45.27,-118.634 0.015,-163.898 z M 307.82,402.453 c -52.224,-0.018 -94.546,-42.368 -94.528,-94.592 0.018,-52.224 42.368,-94.546 94.592,-94.528 25.101,-0.068 49.184,9.92 66.869,27.733 17.718,17.738 27.667,41.787 27.659,66.859 -0.018,52.224 -42.368,94.546 -94.592,94.528 z"
   id="path8063"
   inkscape:connector-curvature="0"
   style="fill:#757575;fill-opacity:1" />
	</g>
</g>
<g
   id="g8073"
   transform="matrix(0.80932129,0,0,0.80508474,75.932395,71.593221)"
   style="fill:#757575;fill-opacity:1">
	<g
   id="g8071"
   style="fill:#757575;fill-opacity:1">
		<path
   d="m 508.876,464 -66.955,-66.933 c -2,-2 -4.713,-3.125 -7.541,-3.125 -2.829,10e-4 -5.541,1.125 -7.541,3.125 l -29.76,29.76 c -4.164,4.165 -4.164,10.917 0,15.083 l 66.955,66.965 c 2,2.001 4.713,3.125 7.541,3.125 v 0 c 2.833,-0.009 5.547,-1.145 7.541,-3.157 l 29.76,-29.76 c 4.164,-4.166 4.164,-10.918 0,-15.083 z m -37.302,22.251 -51.872,-51.883 14.677,-14.677 51.872,51.883 z"
   id="path8069"
   inkscape:connector-curvature="0"
   style="fill:#757575;fill-opacity:1" />
	</g>
</g>
<g
   id="g8079"
   transform="matrix(0.80932129,0,0,0.80508474,75.932395,71.593221)"
   style="fill:#757575;fill-opacity:1">
	<g
   id="g8077"
   style="fill:#757575;fill-opacity:1">
		
			<rect
   x="390.23099"
   y="374.58099"
   transform="matrix(0.7071,-0.7071,0.7071,0.7071,-166.0486,400.894)"
   width="21.333"
   height="52.608002"
   id="rect8075"
   style="fill:#757575;fill-opacity:1" />
	</g>
</g>
<g
   id="g8085"
   transform="matrix(0.80932129,0,0,0.80508474,75.932395,71.593221)"
   style="fill:#757575;fill-opacity:1">
	<g
   id="g8083"
   style="fill:#757575;fill-opacity:1">
		<path
   d="M 309.334,234.667 V 256 c 29.441,0.035 53.298,23.893 53.333,53.333 H 384 c -0.046,-41.217 -33.448,-74.619 -74.666,-74.666 z"
   id="path8081"
   inkscape:connector-curvature="0"
   style="fill:#757575;fill-opacity:1" />
	</g>
</g>
<g
   id="g8091"
   transform="matrix(0.80932129,0,0,0.80508474,75.932395,71.593221)"
   style="fill:#757575;fill-opacity:1">
	<g
   id="g8089"
   style="fill:#757575;fill-opacity:1">
		<rect
   x="106.668"
   y="362.66699"
   width="85.333"
   height="21.333"
   id="rect8087"
   style="fill:#757575;fill-opacity:1" />
	</g>
</g>
<g
   id="g8097"
   transform="matrix(0.80932129,0,0,0.80508474,75.932395,71.593221)"
   style="fill:#757575;fill-opacity:1">
	<g
   id="g8095"
   style="fill:#757575;fill-opacity:1">
		<path
   d="m 160.001,42.667 c -17.673,0 -32,14.327 -32,32 0,17.673 14.327,32 32,32 17.673,0 32,-14.327 32,-32 0,-17.673 -14.327,-32 -32,-32 z m 0,42.666 c -5.891,0 -10.667,-4.776 -10.667,-10.667 0,-5.891 4.776,-10.667 10.667,-10.667 5.891,0 10.667,4.776 10.667,10.667 0,5.892 -4.776,10.667 -10.667,10.667 z"
   id="path8093"
   inkscape:connector-curvature="0"
   style="fill:#757575;fill-opacity:1" />
	</g>
</g>
<g
   id="g8103"
   transform="matrix(0.80932129,0,0,0.80508474,75.932395,71.593221)"
   style="fill:#757575;fill-opacity:1">
	<g
   id="g8101"
   style="fill:#757575;fill-opacity:1">
		<path
   d="m 234.668,117.333 c -17.673,0 -32,14.327 -32,32 0,17.673 14.327,32 32,32 17.673,0 32,-14.327 32,-32 0,-17.673 -14.327,-32 -32,-32 z m 0,42.667 c -5.891,0 -10.667,-4.776 -10.667,-10.667 0,-5.891 4.776,-10.667 10.667,-10.667 5.891,0 10.667,4.776 10.667,10.667 -0.001,5.891 -4.776,10.667 -10.667,10.667 z"
   id="path8099"
   inkscape:connector-curvature="0"
   style="fill:#757575;fill-opacity:1" />
	</g>
</g>
<g
   id="g8109"
   transform="matrix(0.80932129,0,0,0.80508474,75.932395,71.593221)"
   style="fill:#757575;fill-opacity:1">
	<g
   id="g8107"
   style="fill:#757575;fill-opacity:1">
		
			<rect
   x="84.956001"
   y="101.336"
   transform="matrix(0.7071,-0.7071,0.7071,0.7071,-43.269,119.5445)"
   width="75.424004"
   height="21.333"
   id="rect8105"
   style="fill:#757575;fill-opacity:1" />
	</g>
</g>
<g
   id="g8115"
   transform="matrix(0.80932129,0,0,0.80508474,75.932395,71.593221)"
   style="fill:#757575;fill-opacity:1">
	<g
   id="g8113"
   style="fill:#757575;fill-opacity:1">
		
			<rect
   x="186.623"
   y="74.317001"
   transform="matrix(0.7071,-0.7071,0.7071,0.7071,-21.4319,172.3178)"
   width="21.333"
   height="75.424004"
   id="rect8111"
   style="fill:#757575;fill-opacity:1" />
	</g>
</g>
<g
   id="g8121"
   transform="matrix(0.80932129,0,0,0.80508474,75.932395,71.593221)"
   style="fill:#757575;fill-opacity:1">
	<g
   id="g8119"
   style="fill:#757575;fill-opacity:1">
		<path
   d="m 309.334,42.667 c -17.673,0 -32,14.327 -32,32 0,17.673 14.327,32 32,32 17.673,0 32,-14.327 32,-32 10e-4,-17.673 -14.326,-32 -32,-32 z m 0,42.666 c -5.891,0 -10.667,-4.776 -10.667,-10.667 0,-5.891 4.776,-10.667 10.667,-10.667 5.891,0 10.667,4.776 10.667,10.667 0,5.892 -4.776,10.667 -10.667,10.667 z"
   id="path8117"
   inkscape:connector-curvature="0"
   style="fill:#757575;fill-opacity:1" />
	</g>
</g>
<g
   id="g8127"
   transform="matrix(0.80932129,0,0,0.80508474,75.932395,71.593221)"
   style="fill:#757575;fill-opacity:1">
	<g
   id="g8125"
   style="fill:#757575;fill-opacity:1">
		
			<rect
   x="234.285"
   y="101.373"
   transform="matrix(0.7071,-0.7071,0.7071,0.7071,0.4421,225.1463)"
   width="75.424004"
   height="21.333"
   id="rect8123"
   style="fill:#757575;fill-opacity:1" />
	</g>
</g>
<g
   id="g8129">
</g>
<g
   id="g8131">
</g>
<g
   id="g8133">
</g>
<g
   id="g8135">
</g>
<g
   id="g8137">
</g>
<g
   id="g8139">
</g>
<g
   id="g8141">
</g>
<g
   id="g8143">
</g>
<g
   id="g8145">
</g>
<g
   id="g8147">
</g>
<g
   id="g8149">
</g>
<g
   id="g8151">
</g>
<g
   id="g8153">
</g>
<g
   id="g8155">
</g>
<g
   id="g8157">
</g>
</svg>