<?xml version="1.0" encoding="UTF-8" standalone="no"?>
<!-- Created with Inkscape (http://www.inkscape.org/) -->

<svg
   xmlns:dc="http://purl.org/dc/elements/1.1/"
   xmlns:cc="http://creativecommons.org/ns#"
   xmlns:rdf="http://www.w3.org/1999/02/22-rdf-syntax-ns#"
   xmlns:svg="http://www.w3.org/2000/svg"
   xmlns="http://www.w3.org/2000/svg"
   xmlns:sodipodi="http://sodipodi.sourceforge.net/DTD/sodipodi-0.dtd"
   xmlns:inkscape="http://www.inkscape.org/namespaces/inkscape"
   width="210mm"
   height="297mm"
   viewBox="0 0 210 297"
   version="1.1"
   id="svg9524"
   inkscape:version="0.92.4 (5da689c313, 2019-01-14)"
   sodipodi:docname="my-work_2.svg">
  <defs
     id="defs9518" />
  <sodipodi:namedview
     id="base"
     pagecolor="#ffffff"
     bordercolor="#666666"
     borderopacity="1.0"
     inkscape:pageopacity="0.0"
     inkscape:pageshadow="2"
     inkscape:zoom="0.35"
     inkscape:cx="-64.285714"
     inkscape:cy="560"
     inkscape:document-units="mm"
     inkscape:current-layer="layer1"
     showgrid="false"
     inkscape:window-width="1366"
     inkscape:window-height="715"
     inkscape:window-x="-8"
     inkscape:window-y="-8"
     inkscape:window-maximized="1" />
  <metadata
     id="metadata9521">
    <rdf:RDF>
      <cc:Work
         rdf:about="">
        <dc:format>image/svg+xml</dc:format>
        <dc:type
           rdf:resource="http://purl.org/dc/dcmitype/StillImage" />
        <dc:title></dc:title>
      </cc:Work>
    </rdf:RDF>
  </metadata>
  <g
     inkscape:label="Layer 1"
     inkscape:groupmode="layer"
     id="layer1">
    <g
       id="layer1-0"
       inkscape:label="Layer 1"
       transform="matrix(0.77638607,0,0,0.79081251,21.690972,17.420471)"
       style="fill:#cb70f8;fill-opacity:1">
      <g
         transform="matrix(0.24579803,0,0,0.24579803,47.171428,4.7488087)"
         id="g2809"
         style="fill:#cb70f8;fill-opacity:1" />
      <g
         transform="matrix(0.26458333,0,0,0.26458333,295.12377,44.813986)"
         id="g2959"
         style="fill:#cb70f8;fill-opacity:1">
        <g
           id="g860"
           style="fill:#cb70f8;fill-opacity:1" />
        <g
           id="g862"
           style="fill:#cb70f8;fill-opacity:1" />
        <g
           id="g864"
           style="fill:#cb70f8;fill-opacity:1" />
        <g
           id="g866"
           style="fill:#cb70f8;fill-opacity:1" />
        <g
           id="g868"
           style="fill:#cb70f8;fill-opacity:1" />
        <g
           id="g870"
           style="fill:#cb70f8;fill-opacity:1" />
        <g
           id="g872"
           style="fill:#cb70f8;fill-opacity:1" />
        <g
           id="g874"
           style="fill:#cb70f8;fill-opacity:1" />
        <g
           id="g876"
           style="fill:#cb70f8;fill-opacity:1" />
        <g
           id="g878"
           style="fill:#cb70f8;fill-opacity:1" />
        <g
           id="g880"
           style="fill:#cb70f8;fill-opacity:1" />
        <g
           id="g882"
           style="fill:#cb70f8;fill-opacity:1" />
        <g
           id="g884"
           style="fill:#cb70f8;fill-opacity:1" />
        <g
           id="g886"
           style="fill:#cb70f8;fill-opacity:1" />
        <g
           id="g888"
           style="fill:#cb70f8;fill-opacity:1" />
      </g>
      <g
         transform="matrix(0.24579803,0,0,0.24579803,42.635713,31.207142)"
         id="g2974"
         style="fill:#cb70f8;fill-opacity:1" />
      <g
         style="fill:#cb70f8;fill-opacity:1"
         transform="matrix(0.30592464,0,0,0.34726562,38.09996,61.445239)"
         id="g3174">
        <g
           style="fill:#cb70f8;fill-opacity:1"
           id="g2991">
          <g
             style="fill:#cb70f8;fill-opacity:1"
             id="g2989">
            <path
               style="fill:#cb70f8;fill-opacity:1"
               inkscape:connector-curvature="0"
               d="M 394.668,0 H 32.001 c -17.673,0 -32,14.327 -32,32 v 256 c 0,17.673 14.327,32 32,32 H 170.668 V 298.667 H 32.001 C 26.11,298.667 21.334,293.891 21.334,288 V 32 c 0,-5.891 4.776,-10.667 10.667,-10.667 h 362.667 c 5.891,0 10.667,4.776 10.667,10.667 v 192 h 21.333 V 32 c 0,-17.673 -14.327,-32 -32,-32 z"
               id="path2987" />
          </g>
        </g>
        <g
           style="fill:#cb70f8;fill-opacity:1"
           id="g2997">
          <g
             style="fill:#cb70f8;fill-opacity:1"
             id="g2995">
            <rect
               style="fill:#cb70f8;fill-opacity:1"
               x="128.00101"
               y="309.33301"
               width="21.333"
               height="64"
               id="rect2993" />
          </g>
        </g>
        <g
           style="fill:#cb70f8;fill-opacity:1"
           id="g3003">
          <g
             style="fill:#cb70f8;fill-opacity:1"
             id="g3001">
            <path
               style="fill:#cb70f8;fill-opacity:1"
               inkscape:connector-curvature="0"
               d="m 74.668,256 c -5.891,0 -10.667,-4.776 -10.667,-10.667 V 224 H 42.668 v 21.333 c 0,17.673 14.327,32 32,32 H 96.001 V 256 Z"
               id="path2999" />
          </g>
        </g>
        <g
           style="fill:#cb70f8;fill-opacity:1"
           id="g3009">
          <g
             style="fill:#cb70f8;fill-opacity:1"
             id="g3007">
            <rect
               style="fill:#cb70f8;fill-opacity:1"
               x="42.667999"
               y="181.33299"
               width="21.333"
               height="21.333"
               id="rect3005" />
          </g>
        </g>
        <g
           style="fill:#cb70f8;fill-opacity:1"
           id="g3015">
          <g
             style="fill:#cb70f8;fill-opacity:1"
             id="g3013">
            <path
               style="fill:#cb70f8;fill-opacity:1"
               inkscape:connector-curvature="0"
               d="m 389.836,225.941 c -21.736,-21.74 -51.219,-33.953 -81.961,-33.952 -64.006,0.003 -115.891,51.892 -115.889,115.898 0.003,64.006 51.892,115.891 115.898,115.889 30.732,-0.001 60.204,-12.208 81.937,-33.937 45.263,-45.255 45.27,-118.634 0.015,-163.898 z M 307.82,402.453 c -52.224,-0.018 -94.546,-42.368 -94.528,-94.592 0.018,-52.224 42.368,-94.546 94.592,-94.528 25.101,-0.068 49.184,9.92 66.869,27.733 17.718,17.738 27.667,41.787 27.659,66.859 -0.018,52.224 -42.368,94.546 -94.592,94.528 z"
               id="path3011" />
          </g>
        </g>
        <g
           style="fill:#cb70f8;fill-opacity:1"
           id="g3021">
          <g
             style="fill:#cb70f8;fill-opacity:1"
             id="g3019">
            <path
               style="fill:#cb70f8;fill-opacity:1"
               inkscape:connector-curvature="0"
               d="m 508.876,464 -66.955,-66.933 c -2,-2 -4.713,-3.125 -7.541,-3.125 -2.829,10e-4 -5.541,1.125 -7.541,3.125 l -29.76,29.76 c -4.164,4.165 -4.164,10.917 0,15.083 l 66.955,66.965 c 2,2.001 4.713,3.125 7.541,3.125 v 0 c 2.833,-0.009 5.547,-1.145 7.541,-3.157 l 29.76,-29.76 c 4.164,-4.166 4.164,-10.918 0,-15.083 z m -37.302,22.251 -51.872,-51.883 14.677,-14.677 51.872,51.883 z"
               id="path3017" />
          </g>
        </g>
        <g
           style="fill:#cb70f8;fill-opacity:1"
           id="g3027">
          <g
             style="fill:#cb70f8;fill-opacity:1"
             id="g3025">
            <rect
               style="fill:#cb70f8;fill-opacity:1"
               x="390.23099"
               y="374.58099"
               transform="matrix(0.7071,-0.7071,0.7071,0.7071,-166.0486,400.894)"
               width="21.333"
               height="52.608002"
               id="rect3023" />
          </g>
        </g>
        <g
           style="fill:#cb70f8;fill-opacity:1"
           id="g3033">
          <g
             style="fill:#cb70f8;fill-opacity:1"
             id="g3031">
            <path
               style="fill:#cb70f8;fill-opacity:1"
               inkscape:connector-curvature="0"
               d="M 309.334,234.667 V 256 c 29.441,0.035 53.298,23.893 53.333,53.333 H 384 c -0.046,-41.217 -33.448,-74.619 -74.666,-74.666 z"
               id="path3029" />
          </g>
        </g>
        <g
           style="fill:#cb70f8;fill-opacity:1"
           id="g3039">
          <g
             style="fill:#cb70f8;fill-opacity:1"
             id="g3037">
            <rect
               style="fill:#cb70f8;fill-opacity:1"
               x="106.668"
               y="362.66699"
               width="85.333"
               height="21.333"
               id="rect3035" />
          </g>
        </g>
        <g
           style="fill:#cb70f8;fill-opacity:1"
           id="g3045">
          <g
             style="fill:#cb70f8;fill-opacity:1"
             id="g3043">
            <path
               style="fill:#cb70f8;fill-opacity:1"
               inkscape:connector-curvature="0"
               d="m 160.001,42.667 c -17.673,0 -32,14.327 -32,32 0,17.673 14.327,32 32,32 17.673,0 32,-14.327 32,-32 0,-17.673 -14.327,-32 -32,-32 z m 0,42.666 c -5.891,0 -10.667,-4.776 -10.667,-10.667 0,-5.891 4.776,-10.667 10.667,-10.667 5.891,0 10.667,4.776 10.667,10.667 0,5.892 -4.776,10.667 -10.667,10.667 z"
               id="path3041" />
          </g>
        </g>
        <g
           style="fill:#cb70f8;fill-opacity:1"
           id="g3051">
          <g
             style="fill:#cb70f8;fill-opacity:1"
             id="g3049">
            <path
               style="fill:#cb70f8;fill-opacity:1"
               inkscape:connector-curvature="0"
               d="m 234.668,117.333 c -17.673,0 -32,14.327 -32,32 0,17.673 14.327,32 32,32 17.673,0 32,-14.327 32,-32 0,-17.673 -14.327,-32 -32,-32 z m 0,42.667 c -5.891,0 -10.667,-4.776 -10.667,-10.667 0,-5.891 4.776,-10.667 10.667,-10.667 5.891,0 10.667,4.776 10.667,10.667 -0.001,5.891 -4.776,10.667 -10.667,10.667 z"
               id="path3047" />
          </g>
        </g>
        <g
           style="fill:#cb70f8;fill-opacity:1"
           id="g3057">
          <g
             style="fill:#cb70f8;fill-opacity:1"
             id="g3055">
            <rect
               style="fill:#cb70f8;fill-opacity:1"
               x="84.956001"
               y="101.336"
               transform="matrix(0.7071,-0.7071,0.7071,0.7071,-43.269,119.5445)"
               width="75.424004"
               height="21.333"
               id="rect3053" />
          </g>
        </g>
        <g
           style="fill:#cb70f8;fill-opacity:1"
           id="g3063">
          <g
             style="fill:#cb70f8;fill-opacity:1"
             id="g3061">
            <rect
               style="fill:#cb70f8;fill-opacity:1"
               x="186.623"
               y="74.317001"
               transform="matrix(0.7071,-0.7071,0.7071,0.7071,-21.4319,172.3178)"
               width="21.333"
               height="75.424004"
               id="rect3059" />
          </g>
        </g>
        <g
           style="fill:#cb70f8;fill-opacity:1"
           id="g3069">
          <g
             style="fill:#cb70f8;fill-opacity:1"
             id="g3067">
            <path
               style="fill:#cb70f8;fill-opacity:1"
               inkscape:connector-curvature="0"
               d="m 309.334,42.667 c -17.673,0 -32,14.327 -32,32 0,17.673 14.327,32 32,32 17.673,0 32,-14.327 32,-32 10e-4,-17.673 -14.326,-32 -32,-32 z m 0,42.666 c -5.891,0 -10.667,-4.776 -10.667,-10.667 0,-5.891 4.776,-10.667 10.667,-10.667 5.891,0 10.667,4.776 10.667,10.667 0,5.892 -4.776,10.667 -10.667,10.667 z"
               id="path3065" />
          </g>
        </g>
        <g
           style="fill:#cb70f8;fill-opacity:1"
           id="g3075">
          <g
             style="fill:#cb70f8;fill-opacity:1"
             id="g3073">
            <rect
               style="fill:#cb70f8;fill-opacity:1"
               x="234.285"
               y="101.373"
               transform="matrix(0.7071,-0.7071,0.7071,0.7071,0.4421,225.1463)"
               width="75.424004"
               height="21.333"
               id="rect3071" />
          </g>
        </g>
        <g
           style="fill:#cb70f8;fill-opacity:1"
           id="g3077" />
        <g
           style="fill:#cb70f8;fill-opacity:1"
           id="g3079" />
        <g
           style="fill:#cb70f8;fill-opacity:1"
           id="g3081" />
        <g
           style="fill:#cb70f8;fill-opacity:1"
           id="g3083" />
        <g
           style="fill:#cb70f8;fill-opacity:1"
           id="g3085" />
        <g
           style="fill:#cb70f8;fill-opacity:1"
           id="g3087" />
        <g
           style="fill:#cb70f8;fill-opacity:1"
           id="g3089" />
        <g
           style="fill:#cb70f8;fill-opacity:1"
           id="g3091" />
        <g
           style="fill:#cb70f8;fill-opacity:1"
           id="g3093" />
        <g
           style="fill:#cb70f8;fill-opacity:1"
           id="g3095" />
        <g
           style="fill:#cb70f8;fill-opacity:1"
           id="g3097" />
        <g
           style="fill:#cb70f8;fill-opacity:1"
           id="g3099" />
        <g
           style="fill:#cb70f8;fill-opacity:1"
           id="g3101" />
        <g
           style="fill:#cb70f8;fill-opacity:1"
           id="g3103" />
        <g
           style="fill:#cb70f8;fill-opacity:1"
           id="g3105" />
      </g>
    </g>
  </g>
</svg>
