<?xml version="1.0" encoding="UTF-8" standalone="no"?>
<!-- Created with Inkscape (http://www.inkscape.org/) -->

<svg
   xmlns:dc="http://purl.org/dc/elements/1.1/"
   xmlns:cc="http://creativecommons.org/ns#"
   xmlns:rdf="http://www.w3.org/1999/02/22-rdf-syntax-ns#"
   xmlns:svg="http://www.w3.org/2000/svg"
   xmlns="http://www.w3.org/2000/svg"
   xmlns:sodipodi="http://sodipodi.sourceforge.net/DTD/sodipodi-0.dtd"
   xmlns:inkscape="http://www.inkscape.org/namespaces/inkscape"
   width="210mm"
   height="297mm"
   viewBox="0 0 210 297"
   version="1.1"
   id="svg8"
   inkscape:version="0.92.4 (5da689c313, 2019-01-14)"
   sodipodi:docname="myGithub.svg">
  <defs
     id="defs2" />
  <sodipodi:namedview
     id="base"
     pagecolor="#ffffff"
     bordercolor="#666666"
     borderopacity="1.0"
     inkscape:pageopacity="0.0"
     inkscape:pageshadow="2"
     inkscape:zoom="0.1767767"
     inkscape:cx="-219.94753"
     inkscape:cy="768.00586"
     inkscape:document-units="mm"
     inkscape:current-layer="g4638"
     showgrid="false"
     inkscape:window-width="1366"
     inkscape:window-height="715"
     inkscape:window-x="-8"
     inkscape:window-y="-8"
     inkscape:window-maximized="1" />
  <metadata
     id="metadata5">
    <rdf:RDF>
      <cc:Work
         rdf:about="">
        <dc:format>image/svg+xml</dc:format>
        <dc:type
           rdf:resource="http://purl.org/dc/dcmitype/StillImage" />
        <dc:title></dc:title>
      </cc:Work>
    </rdf:RDF>
  </metadata>
  <g
     inkscape:label="Layer 1"
     inkscape:groupmode="layer"
     id="layer1">
    <g
       id="g4638"
       transform="translate(-3.779762,21.166667)">
      <ellipse
         style="fill:#ffffff;fill-opacity:1;fill-rule:nonzero;stroke:#000000;stroke-width:0.63698345;stroke-miterlimit:4;stroke-dasharray:none;stroke-opacity:1"
         id="path4640"
         cx="-266.19928"
         cy="1.8909271"
         rx="92.06884"
         ry="98.272377" />
      <path
         style="fill:#5a32a3;fill-opacity:1;stroke:#000000;stroke-width:0.38103849;stroke-miterlimit:4;stroke-dasharray:none;stroke-opacity:1"
         inkscape:connector-curvature="0"
         d="m -265.63961,-99.122385 c -53.14789,0 -96.76253,44.18441 -96.76253,98.0256804 0,45.9436966 31.82423,87.6799066 74.08371,98.0245366 v -32.43061 c -4.18767,0.92913 -8.04152,0.95557 -12.30371,-0.33992 -5.71865,-1.71473 -10.36502,-5.57059 -13.81436,-11.45278 -2.20223,-3.75805 -6.09388,-7.8326 -10.15989,-7.53309 l -0.99652,-11.44259 c 8.78946,-0.76294 16.39332,5.42254 20.90765,13.10708 2.00732,3.41435 4.31118,5.41688 7.27465,6.31012 2.86681,0.84981 5.93532,0.4419 9.51878,-0.84226 0.90236,-7.26756 4.18119,-9.98469 6.66454,-13.81223 v -0.006 c -25.20385,-3.80866 -35.2483,-17.354237 -39.23477,-28.045217 -5.28534,-14.1967196 -2.44769,-31.93167 6.89564,-43.13971 0.14655,-0.22661 0.50376,-0.78182 0.36271,-1.18973 -4.28144,-13.10632 0.93863,-23.94913 1.12621,-25.10034 4.94587,1.48056 5.74751,-1.48433 21.47236,8.18989 l 2.71441,1.6543 c 1.13354,0.66474 0.78036,0.33992 1.91426,0.22661 6.56335,-1.80914 13.48778,-2.80248 20.30751,-2.90445 6.87402,0.0378 13.7494,1.08397 20.58719,2.97244 l 0.88111,0.0378 c -0.066,-0.01 0.21616,-0.0378 0.76497,-0.38525 19.64446,-12.05369 18.93847,-8.11435 24.20645,-9.84872 0.21982,1.15196 5.34309,12.17191 1.10643,25.11129 -0.5752,1.78271 17.03164,18.11227 7.27493,44.32492 -3.98643,10.69513 -14.02963,24.241087 -39.23336,28.048987 v 0.006 c 3.22768,4.99121 7.11227,7.643 7.09058,17.93324 v 40.48148 c 42.26109,-10.34426 74.08368,-52.08008 74.08368,-98.0245366 0.002,-53.8412704 -43.61336,-98.0253004 -96.76117,-98.0253004 z m 0,0"
         id="path4620" />
      <ellipse
         style="fill:#5a32a3;fill-opacity:1;fill-rule:nonzero;stroke:#000000;stroke-width:0.01718434;stroke-miterlimit:4;stroke-dasharray:none;stroke-opacity:1"
         id="path4640-4"
         cx="94.872345"
         cy="127.08232"
         rx="2.5130045"
         ry="2.6203547" />
      <path
         style="fill:#ffffff;fill-opacity:1;stroke:#000000;stroke-width:0.01027953;stroke-miterlimit:4;stroke-dasharray:none;stroke-opacity:1"
         inkscape:connector-curvature="0"
         d="m 94.925972,124.42639 c -1.45066,0 -2.64112,1.17814 -2.64112,2.61377 0,1.22505 0.86864,2.33793 2.02211,2.61374 v -0.86472 c -0.1143,0.0248 -0.21949,0.0255 -0.33583,-0.009 -0.15609,-0.0457 -0.28291,-0.14853 -0.37706,-0.30538 -0.0601,-0.10019 -0.16633,-0.20885 -0.27731,-0.20087 l -0.0272,-0.3051 c 0.2399,-0.0203 0.44745,0.14458 0.57067,0.34948 0.0548,0.0911 0.11767,0.14444 0.19856,0.16825 0.0782,0.0227 0.162,0.0118 0.25981,-0.0224 0.0246,-0.19378 0.11413,-0.26624 0.18191,-0.3683 v -1.4e-4 c -0.68794,-0.10155 -0.9621,-0.46274 -1.07091,-0.7478 -0.14426,-0.37854 -0.0668,-0.85143 0.18822,-1.15029 0.004,-0.006 0.0138,-0.0209 0.01,-0.0317 -0.11686,-0.34946 0.0256,-0.63859 0.0307,-0.66927 0.13499,0.0395 0.15688,-0.0395 0.58608,0.21837 l 0.0741,0.0441 c 0.0309,0.0177 0.0213,0.009 0.0522,0.006 0.17915,-0.0482 0.36815,-0.0747 0.5543,-0.0774 0.18762,0.001 0.37528,0.0289 0.56192,0.0793 l 0.0241,10e-4 c -0.002,-3.5e-4 0.006,-10e-4 0.0209,-0.0103 0.5362,-0.32141 0.51693,-0.21636 0.66072,-0.26261 0.006,0.0307 0.14583,0.32455 0.0302,0.66957 -0.0158,0.0475 0.46488,0.48294 0.19856,1.18189 -0.10881,0.28518 -0.38294,0.64637 -1.07087,0.74791 v 1.4e-4 c 0.0881,0.13309 0.19413,0.2038 0.19353,0.47818 v 1.07941 c 1.15353,-0.27582 2.02212,-1.38868 2.02212,-2.61375 4e-5,-1.43563 -1.19043,-2.61377 -2.64109,-2.61377 z m 0,0"
         id="path4620-9" />
    </g>
  </g>
</svg>
