<?xml version="1.0" encoding="UTF-8" standalone="no"?>
<svg
   xmlns:dc="http://purl.org/dc/elements/1.1/"
   xmlns:cc="http://creativecommons.org/ns#"
   xmlns:rdf="http://www.w3.org/1999/02/22-rdf-syntax-ns#"
   xmlns:svg="http://www.w3.org/2000/svg"
   xmlns="http://www.w3.org/2000/svg"
   xmlns:sodipodi="http://sodipodi.sourceforge.net/DTD/sodipodi-0.dtd"
   xmlns:inkscape="http://www.inkscape.org/namespaces/inkscape"
   width="589.827"
   height="361.238"
   version="1.2"
   viewBox="0 0 442.37 270.929"
   id="svg5027"
   sodipodi:docname="Nodejs.svg"
   inkscape:version="0.92.4 (5da689c313, 2019-01-14)">
  <metadata
     id="metadata5031">
    <rdf:RDF>
      <cc:Work
         rdf:about="">
        <dc:format>image/svg+xml</dc:format>
        <dc:type
           rdf:resource="http://purl.org/dc/dcmitype/StillImage" />
      </cc:Work>
    </rdf:RDF>
  </metadata>
  <sodipodi:namedview
     pagecolor="#ffffff"
     bordercolor="#666666"
     borderopacity="1"
     objecttolerance="10"
     gridtolerance="10"
     guidetolerance="10"
     inkscape:pageopacity="0"
     inkscape:pageshadow="2"
     inkscape:window-width="1366"
     inkscape:window-height="715"
     id="namedview5029"
     showgrid="false"
     inkscape:zoom="0.48658333"
     inkscape:cx="294.91351"
     inkscape:cy="180.619"
     inkscape:window-x="-8"
     inkscape:window-y="-8"
     inkscape:window-maximized="1"
     inkscape:current-layer="svg5027" />
  <defs
     id="defs5005">
    <clipPath
       id="a">
      <path
         d="M239.03 226.605l-42.13 24.317c-1.578.91-2.546 2.59-2.546 4.406v48.668c0 1.817.968 3.496 2.546 4.406l42.133 24.336c1.575.907 3.517.907 5.09 0l42.126-24.336c1.57-.91 2.54-2.59 2.54-4.406v-48.668c0-1.816-.97-3.496-2.55-4.406l-42.12-24.317c-.79-.453-1.67-.68-2.55-.68-.88 0-1.76.227-2.55.68"
         id="path4971" />
    </clipPath>
    <linearGradient
       id="b"
       x1="-.348"
       x2="1.251"
       gradientTransform="matrix(-38.064915,77.652126,-77.652126,-38.064915,258.72325,244.62943)"
       gradientUnits="userSpaceOnUse">
      <stop
         offset=".3"
         stop-color="#3E863D"
         id="stop4974" />
      <stop
         offset=".5"
         stop-color="#55934F"
         id="stop4976" />
      <stop
         offset=".8"
         stop-color="#5AAD45"
         id="stop4978" />
    </linearGradient>
    <clipPath
       id="c">
      <path
         d="M195.398 307.086c.403.523.907.976 1.5 1.316l36.14 20.875 6.02 3.46c.9.52 1.926.74 2.934.665.336-.027.672-.09 1-.183l44.434-81.36c-.34-.37-.738-.68-1.184-.94l-27.586-15.93-14.582-8.39c-.414-.24-.863-.41-1.32-.53zm0 0"
         id="path4981" />
    </clipPath>
    <linearGradient
       id="d"
       x1="-.456"
       x2=".582"
       gradientTransform="matrix(106.8057,-78.916731,78.916731,106.8057,235.18824,285.39477)"
       gradientUnits="userSpaceOnUse">
      <stop
         offset=".57"
         stop-color="#3E863D"
         id="stop4984" />
      <stop
         offset=".72"
         stop-color="#619857"
         id="stop4986" />
      <stop
         offset="1"
         stop-color="#76AC64"
         id="stop4988" />
    </linearGradient>
    <clipPath
       id="e">
      <path
         d="M241.066 225.953c-.707.07-1.398.29-2.035.652l-42.01 24.247 45.3 82.51c.63-.09 1.25-.3 1.81-.624l42.13-24.336c1.3-.754 2.19-2.03 2.46-3.476l-46.18-78.89c-.34-.067-.68-.102-1.03-.102-.14 0-.28.007-.42.02"
         id="path4991" />
    </clipPath>
    <linearGradient
       id="f"
       x1=".043"
       x2=".984"
       gradientTransform="matrix(97.417,0,0,97.417,192.862,279.652)"
       gradientUnits="userSpaceOnUse">
      <stop
         offset=".16"
         stop-color="#6BBF47"
         id="stop4994" />
      <stop
         offset=".38"
         stop-color="#79B461"
         id="stop4996" />
      <stop
         offset=".47"
         stop-color="#75AC64"
         id="stop4998" />
      <stop
         offset=".7"
         stop-color="#659E5A"
         id="stop5000" />
      <stop
         offset=".9"
         stop-color="#3E863D"
         id="stop5002" />
    </linearGradient>
  </defs>
  <path
     d="m 220.55846,266.30591 c -0.80376,0 -1.60202,-0.32635 -2.30669,-0.95433 l -7.34231,-6.72804 c -1.09663,-0.94922 -0.56153,-1.28494 -0.19984,-1.47836 1.4622,-0.79244 1.75892,-0.97137 3.31965,-2.34323 0.16405,-0.14485 0.37876,-0.0937 0.54667,0.0597 l 5.64065,5.18066 c 0.20369,0.17041 0.4927,0.17041 0.68154,0 l 21.99334,-19.64901 c 0.20369,-0.17894 0.3358,-0.54533 0.3358,-0.92025 v -39.28097 c 0,-0.39196 -0.13211,-0.74131 -0.34021,-0.93729 l -21.98452,-19.63197 c -0.2037,-0.18746 -0.47346,-0.18746 -0.67714,0 l -21.98014,19.63197 c -0.21304,0.18746 -0.34847,0.55385 -0.34847,0.92877 v 39.28097 c 0,0.37492 0.13212,0.73279 0.34133,0.91173 l 6.02269,5.38516 c 3.27011,2.53068 5.2685,-0.45161 5.2685,-3.45094 v -38.76972 c 0,-0.55385 0.28077,-0.97989 0.63861,-0.97989 h 2.78563 c 0.34683,0 0.6331,0.42604 0.6331,0.97989 v 38.78677 c 0,6.74848 -2.37826,10.62546 -6.51266,10.62546 -1.27171,0 -2.27366,0 -5.0703,-2.13021 l -5.76948,-5.14657 c -1.42585,-1.27813 -2.30668,-3.66395 -2.30668,-6.21168 v -39.28097 c 0,-2.55625 0.88083,-4.94208 2.30668,-6.20316 l 22.01536,-19.65753 c 1.39281,-1.21848 3.24257,-1.21848 4.62437,0 l 21.98783,19.66605 c 1.42036,1.2696 2.3067,3.64691 2.3067,6.20316 v 39.28097 c 0,2.54773 -0.88634,4.92503 -2.3067,6.20316 l -21.98783,19.65753 c -0.70466,0.63054 -1.50291,0.95433 -2.31769,0.95433"
     id="path5007"
     inkscape:connector-curvature="0"
     style="fill:#689f63;stroke-width:0.68490106" />
  <path
     d="m 227.35189,239.23868 c -9.62312,0 -11.64078,-6.83711 -11.64078,-12.57162 0,-0.54533 0.28407,-0.97989 0.63695,-0.97989 h 2.84069 c 0.3138,0 0.57805,0.35361 0.62759,0.83333 0.42943,4.48025 1.70663,6.73997 7.52565,6.73997 4.63539,0 6.60625,-1.62066 6.60625,-5.4252 0,-2.18985 -0.56154,-3.81733 -7.76235,-4.90799 -6.0227,-0.92025 -9.74424,-2.97377 -9.74424,-10.42949 0,-6.86778 3.74355,-10.95777 10.01399,-10.95777 7.04118,0 10.53149,3.78324 10.9719,11.91211 0.0165,0.28118 -0.0496,0.55385 -0.17068,0.75835 -0.1211,0.19598 -0.29176,0.31527 -0.46793,0.31527 h -2.8572 c -0.29728,0 -0.55604,-0.32379 -0.61659,-0.76688 -0.68815,-4.71201 -2.35072,-6.22019 -6.87051,-6.22019 -5.05929,0 -5.64834,2.72666 -5.64834,4.77166 0,2.47955 0.69365,3.20382 7.52011,4.60124 6.76042,1.38889 9.96995,3.34868 9.96995,10.70215 0,7.41311 -3.99679,11.665 -10.96639,11.665 m 26.78839,-41.65829 h 0.73768 c 0.60559,0 0.7212,-0.6561 0.7212,-1.03954 0,-1.00545 -0.44594,-1.00545 -0.69366,-1.00545 h -0.75972 z m -0.89736,-3.22087 h 1.63504 c 0.56154,0 1.6626,0 1.6626,1.94275 0,1.35481 -0.56155,1.636 -0.89736,1.80642 0.65511,0.0682 0.69916,0.73279 0.78725,1.67008 0.0441,0.58793 0.1156,1.60191 0.24773,1.94274 h -1.00746 c -0.0275,-0.34083 -0.18168,-2.21541 -0.18168,-2.31766 -0.0661,-0.41752 -0.15965,-0.62202 -0.49547,-0.62202 h -0.83127 v 2.9482 h -0.91938 z m -1.96536,3.66396 c 0,3.05045 1.591,5.52149 3.54536,5.52149 1.97086,0 3.56187,-2.52216 3.56187,-5.52149 0,-3.05898 -1.61303,-5.48741 -3.56737,-5.48741 -1.92683,0 -3.54538,2.39435 -3.54538,5.47889 m 7.7954,0.0256 c 0,3.61283 -1.91031,6.56103 -4.23901,6.56103 -2.31221,0 -4.23903,-2.91412 -4.23903,-6.56103 0,-3.71508 1.97088,-6.56103 4.23903,-6.56103 2.28466,0 4.2335,2.85447 4.2335,6.56103"
     id="path5009"
     inkscape:connector-curvature="0"
     style="fill:#689f63;stroke-width:0.68490106" />
  <path
     d="m 152.45288,112.60738 c 0,-1.56783 -0.53399,-3.00785 -1.40823,-3.7875 L 127.72676,88.054648 c -0.39363,-0.357875 -0.83459,-0.545333 -1.28161,-0.570895 h -0.24113 c -0.44702,0.02556 -0.88799,0.21302 -1.28822,0.570895 l -23.31678,20.765232 c -0.86873,0.78391 -1.41044,2.22393 -1.41044,3.79176 l 0.0512,55.93066 c 0,0.77539 0.25874,1.49966 0.69916,1.8831 0.42941,0.409 0.96892,0.409 1.39832,0 l 13.86212,-12.28702 c 0.87533,-0.80607 1.40935,-2.23075 1.40935,-3.78324 v -26.1291 c 0,-1.5593 0.53399,-2.99932 1.40658,-3.77472 l 5.90159,-5.26075 c 0.43822,-0.39196 0.91936,-0.58623 1.40935,-0.58623 0.48225,0 0.97441,0.19257 1.40052,0.58538 l 5.89884,5.25905 c 0.87312,0.77539 1.40934,2.21541 1.40934,3.77472 v 26.12739 c 0,1.55078 0.54116,2.98228 1.41209,3.78324 l 13.8533,12.2785 c 0.43493,0.40048 0.97608,0.40048 1.40935,0 0.42719,-0.38344 0.69805,-1.10771 0.69805,-1.8831 z m 110.03165,29.12075 c 0,0.38941 -0.13378,0.74984 -0.35234,0.94241 l -8.00899,7.14556 c -0.21744,0.19342 -0.4861,0.19342 -0.70301,0 l -8.01009,-7.14556 c -0.22021,-0.19343 -0.35234,-0.55386 -0.35234,-0.94241 v -14.31156 c 0,-0.39026 0.13213,-0.74983 0.34684,-0.94581 l 8.00458,-7.15749 c 0.22021,-0.19598 0.48996,-0.19598 0.71017,0 l 8.01008,7.15749 c 0.22022,0.19598 0.35233,0.55555 0.35233,0.94581 z m 2.16355,-106.000682 c -0.43712,-0.37662 -0.96893,-0.366395 -1.40053,0.02301 -0.42941,0.391958 -0.69476,1.107707 -0.69476,1.883101 v 55.385322 c 0,0.545332 -0.18718,1.04806 -0.49217,1.320727 -0.30278,0.272666 -0.67989,0.272666 -0.98543,0 l -5.84103,-5.207073 c -0.86982,-0.778802 -1.94113,-0.778802 -2.81427,0 l -23.3256,20.835955 c -0.87147,0.77539 -1.40933,2.21541 -1.40933,3.7662 v 41.68384 c 0,1.55931 0.53786,2.99081 1.40933,3.77473 l 23.3256,20.85044 c 0.87093,0.77539 1.94335,0.77539 2.81702,0 l 23.3256,-20.85896 c 0.86982,-0.78392 1.40934,-2.21542 1.40934,-3.77473 V 51.524194 c 0,-1.581464 -0.55604,-3.035967 -1.44787,-3.808806 z m 77.67474,91.312502 c 0.86652,-0.77881 1.39997,-2.21712 1.39997,-3.76791 v -10.10228 c 0,-1.5542 -0.534,-2.98826 -1.40218,-3.77047 L 319.14366,88.574418 c -0.87534,-0.783916 -1.94884,-0.783916 -2.82419,0 l -23.32009,20.833392 c -0.87532,0.78392 -1.40933,2.21542 -1.40933,3.77473 v 41.6668 c 0,1.56783 0.54502,3.01637 1.42034,3.79177 l 23.17146,20.44144 c 0.85331,0.75835 1.8993,0.76688 2.76361,0.0256 l 14.01628,-12.05695 c 0.44042,-0.38344 0.72119,-1.10771 0.72119,-1.89163 0,-0.78391 -0.26976,-1.5167 -0.71018,-1.90014 l -23.46322,-20.84192 c -0.44042,-0.38344 -0.71018,-1.10771 -0.71018,-1.8831 v -13.07098 c 0,-0.78051 0.26425,-1.49966 0.70467,-1.88821 l 7.29992,-6.51843 c 0.43492,-0.39196 0.96892,-0.39196 1.40383,0 l 7.30541,6.51843 c 0.43492,0.38343 0.70468,1.1077 0.70468,1.8831 v 10.27611 c 0,0.77539 0.26976,1.49966 0.70467,1.89162 0.43491,0.38344 0.97441,0.38344 1.40932,-0.009 z m 0,0"
     id="path5011"
     inkscape:connector-curvature="0"
     style="fill:#333333;fill-rule:evenodd;stroke-width:0.68490106" />
  <path
     d="m 317.39023,125.09038 c 0.16518,-0.15081 0.37216,-0.15081 0.53953,0 l 4.47573,3.99627 c 0.16736,0.14996 0.26977,0.42604 0.26977,0.72427 v 8.00105 c 0,0.29822 -0.10236,0.5743 -0.26977,0.72427 l -4.47573,3.99626 c -0.16737,0.15082 -0.37435,0.15082 -0.53953,0 l -4.47297,-3.99626 c -0.17067,-0.14997 -0.27526,-0.42605 -0.27526,-0.72427 v -8.00105 c 0,-0.29823 0.099,-0.57431 0.26975,-0.72427 z m 0,0"
     id="path5013"
     inkscape:connector-curvature="0"
     style="fill:#689f63;fill-rule:evenodd;stroke-width:0.68490106" />
  <g
     clip-path="url(#a)"
     transform="matrix(0.55052155,0,0,0.85208186,57.07943,-104.30369)"
     id="g5017">
    <path
       d="m 331.363,246.793 -118.715,-58.19 -60.87,124.174 118.712,58.193 z m 0,0"
       id="path5015"
       style="fill:url(#b)"
       inkscape:connector-curvature="0" />
  </g>
  <g
     clip-path="url(#c)"
     transform="matrix(0.55052155,0,0,0.85208186,57.07943,-104.30369)"
     id="g5021">
    <path
       d="m 144.07,264.004 83.825,113.453 110.86,-81.906 -83.83,-113.45 z m 0,0"
       id="path5019"
       style="fill:url(#d)"
       inkscape:connector-curvature="0" />
  </g>
  <g
     clip-path="url(#e)"
     transform="matrix(0.55052155,0,0,0.85208186,57.07943,-104.30369)"
     id="g5025">
    <path
       d="m 197.02,225.934 v 107.43 h 91.683 v -107.43 z m 0,0"
       id="path5023"
       style="fill:url(#f)"
       inkscape:connector-curvature="0" />
  </g>
</svg>
