<?xml version="1.0" encoding="UTF-8" standalone="no"?>
<!-- Generator: Adobe Illustrator 19.0.0, SVG Export Plug-In . SVG Version: 6.00 Build 0)  -->

<svg
   xmlns:dc="http://purl.org/dc/elements/1.1/"
   xmlns:cc="http://creativecommons.org/ns#"
   xmlns:rdf="http://www.w3.org/1999/02/22-rdf-syntax-ns#"
   xmlns:svg="http://www.w3.org/2000/svg"
   xmlns="http://www.w3.org/2000/svg"
   xmlns:sodipodi="http://sodipodi.sourceforge.net/DTD/sodipodi-0.dtd"
   xmlns:inkscape="http://www.inkscape.org/namespaces/inkscape"
   version="1.1"
   id="Layer_1"
   x="0px"
   y="0px"
   viewBox="0 0 511.994 511.994"
   style="enable-background:new 0 0 511.994 511.994;"
   xml:space="preserve"
   sodipodi:docname="personChar.svg"
   inkscape:version="0.92.4 (5da689c313, 2019-01-14)"><metadata
   id="metadata8298"><rdf:RDF><cc:Work
       rdf:about=""><dc:format>image/svg+xml</dc:format><dc:type
         rdf:resource="http://purl.org/dc/dcmitype/StillImage" /></cc:Work></rdf:RDF></metadata><defs
   id="defs8296" /><sodipodi:namedview
   pagecolor="#ffffff"
   bordercolor="#666666"
   borderopacity="1"
   objecttolerance="10"
   gridtolerance="10"
   guidetolerance="10"
   inkscape:pageopacity="0"
   inkscape:pageshadow="2"
   inkscape:window-width="1366"
   inkscape:window-height="715"
   id="namedview8294"
   showgrid="false"
   inkscape:zoom="0.46094291"
   inkscape:cx="255.99699"
   inkscape:cy="255.99699"
   inkscape:window-x="-8"
   inkscape:window-y="-8"
   inkscape:window-maximized="1"
   inkscape:current-layer="Layer_1" />
<g
   id="g8255"
   style="fill:#cb70f8;fill-opacity:1"
   transform="matrix(0.91157112,0,0,0.93645238,26.976421,15.179988)">
	<g
   id="g8253"
   style="fill:#cb70f8;fill-opacity:1">
		<path
   d="m 498.214,493.784 c -0.406,-0.391 -0.844,-0.75 -1.281,-1.062 l -68.625,-68.625 c 42.719,-50.282 40.344,-125.783 -7.125,-173.283 -25,-24.984 -57.75,-37.484 -90.517,-37.484 -4.578,0 -9.141,0.266 -13.703,0.734 7.531,-17.094 12.094,-35.594 12.094,-54.485 0,0 12.594,-53.609 -17.484,-104.047 l -0.141,-2 c -0.109,0 -0.469,0.031 -1,0.109 C 304.041,43.328 295.854,33.172 285.353,23.672 273.775,13.195 245.22,0 210.783,0 187.197,0 160.861,6.188 135.329,23.672 85.797,57.593 90.797,143.156 90.797,143.156 c 0,0 3.461,0.875 9.711,1.688 -0.453,4.797 -0.703,9.703 -0.703,14.734 0,32.235 13.32,63.376 31.953,88.313 l -0.219,30.438 c -0.07,0.172 -0.141,0.328 -0.227,0.5 -2.312,4.516 -11.375,14.078 -46.211,27.359 -9.812,3.719 -17.273,9.422 -39.336,15.344 l -1.516,0.438 c -20.078,6.625 -33.587,25.25 -33.587,46.282 v 58.407 h 224.605 c 1.57,1.766 3.203,3.5 4.891,5.188 24.992,25 57.743,37.484 90.509,37.484 29.392,0 58.767,-10.062 82.548,-30.172 l 69.812,69.812 0.094,-0.094 c 4.172,4.156 10.922,4.156 15.094,0 4.155,-4.155 4.155,-10.921 -10e-4,-15.093 z M 300.978,81.906 c 2.938,7.188 5.203,14.75 6.766,22.688 -0.406,-0.484 -0.812,-0.938 -1.203,-1.406 -3.828,-4.328 -8.078,-7.938 -12.672,-10.812 2.219,-4.564 4.688,-7.97 7.109,-10.47 z M 115.43,100.172 c 3.75,-19.453 12.344,-45.469 31.954,-58.892 19.32,-13.25 40.648,-19.953 63.398,-19.953 16.562,0 30.18,3.625 38.68,6.672 10.82,3.859 18.234,8.469 21.57,11.484 7.695,6.969 14.273,14.641 19.743,22.954 -5.97,4.672 -12.173,11.766 -17.017,22.547 -2.805,-0.422 -5.688,-0.641 -8.625,-0.641 -13.906,0 -28.781,4.625 -45.477,14.172 -38.219,21.828 -73.539,26.422 -96.438,26.422 -3.984,0 -7.617,-0.141 -10.836,-0.344 0.43,-6.937 1.313,-15.421 3.048,-24.421 z m 5.711,59.406 c 0,-4.531 0.227,-8.969 0.664,-13.312 0.469,0 0.938,0.016 1.414,0.016 26.017,0 65.009,-5.234 107.017,-29.25 14.141,-8.062 25.578,-11.359 34.898,-11.359 22.391,0 32.532,18.984 38.61,36.172 1.094,3.062 2.312,5.609 3.625,7.75 0.234,3.281 0.359,6.594 0.359,9.984 0,19.704 -6.25,40.704 -17.641,60.329 -18.243,6.094 -35.399,16.375 -49.931,30.906 -9.156,9.156 -16.625,19.359 -22.422,30.219 -1.172,0.156 -2.273,0.234 -3.297,0.234 -12.414,0 -35.742,-11.359 -57.641,-36.328 C 134.141,219.126 121.141,188 121.141,159.578 Z m 86.976,144.735 c -2.078,6.891 -3.562,13.922 -4.445,21.016 h -2.859 l -2.602,-13.016 z M 173.798,405.33 H 32 v -37.078 c 0,-11.719 7.469,-22.079 18.617,-25.907 l 0.883,-0.266 c 16.922,-4.562 26.648,-9.219 33.758,-12.625 2.898,-1.391 5.18,-2.484 7.445,-3.328 22.922,-8.75 36.602,-16.531 45.016,-23.156 l 30.032,33.969 11.734,-9.5 2.172,10.906 z m -3.586,-97.813 -18.836,-21.297 1.469,-3.25 0.031,-4.5 0.047,-6.906 c 10.672,9.969 21.969,17.953 32.906,23.328 z m 44.226,97.813 h -19.164 l 6.883,-58.673 h 0.625 c 0.844,20.345 6.516,40.532 17.008,58.673 z m 191.651,11.423 c -20.141,20.156 -46.938,31.25 -75.423,31.25 -28.484,0 -55.282,-11.094 -75.423,-31.25 -20.148,-20.142 -31.242,-46.938 -31.242,-75.424 0,-28.484 11.094,-55.266 31.242,-75.422 20.141,-20.156 46.938,-31.25 75.423,-31.25 28.485,0 55.282,11.094 75.423,31.25 20.156,20.156 31.25,46.938 31.25,75.422 0,28.485 -11.094,55.282 -31.25,75.424 z"
   id="path8251"
   style="fill:#cb70f8;fill-opacity:1"
   inkscape:connector-curvature="0" />
	</g>
</g>
<g
   id="g8261"
   style="fill:#cb70f8;fill-opacity:1"
   transform="matrix(0.91157112,0,0,0.93645238,26.976421,15.179988)">
	<g
   id="g8259"
   style="fill:#cb70f8;fill-opacity:1">
		<path
   d="m 330.666,256.001 c -47.126,0 -85.337,38.203 -85.337,85.328 0,5.891 4.781,10.673 10.672,10.673 5.891,0 10.664,-4.782 10.664,-10.673 0,-35.297 28.704,-64 64.001,-64 5.891,0 10.672,-4.766 10.672,-10.672 0,-5.875 -4.781,-10.656 -10.672,-10.656 z"
   id="path8257"
   style="fill:#cb70f8;fill-opacity:1"
   inkscape:connector-curvature="0" />
	</g>
</g>
<g
   id="g8263">
</g>
<g
   id="g8265">
</g>
<g
   id="g8267">
</g>
<g
   id="g8269">
</g>
<g
   id="g8271">
</g>
<g
   id="g8273">
</g>
<g
   id="g8275">
</g>
<g
   id="g8277">
</g>
<g
   id="g8279">
</g>
<g
   id="g8281">
</g>
<g
   id="g8283">
</g>
<g
   id="g8285">
</g>
<g
   id="g8287">
</g>
<g
   id="g8289">
</g>
<g
   id="g8291">
</g>
</svg>