<?xml version="1.0" encoding="UTF-8" standalone="no"?>
<svg
   xmlns:dc="http://purl.org/dc/elements/1.1/"
   xmlns:cc="http://creativecommons.org/ns#"
   xmlns:rdf="http://www.w3.org/1999/02/22-rdf-syntax-ns#"
   xmlns:svg="http://www.w3.org/2000/svg"
   xmlns="http://www.w3.org/2000/svg"
   xmlns:sodipodi="http://sodipodi.sourceforge.net/DTD/sodipodi-0.dtd"
   xmlns:inkscape="http://www.inkscape.org/namespaces/inkscape"
   width="342pt"
   height="480pt"
   viewBox="0 0 342 480"
   version="1.1"
   id="svg923"
   sodipodi:docname="REACT_logo.svg"
   inkscape:version="0.92.4 (5da689c313, 2019-01-14)"
   inkscape:export-filename="C:\Users\skrzy\bitmap.png"
   inkscape:export-xdpi="96"
   inkscape:export-ydpi="96">
  <metadata
     id="metadata929">
    <rdf:RDF>
      <cc:Work
         rdf:about="">
        <dc:format>image/svg+xml</dc:format>
        <dc:type
           rdf:resource="http://purl.org/dc/dcmitype/StillImage" />
        <dc:title></dc:title>
      </cc:Work>
    </rdf:RDF>
  </metadata>
  <defs
     id="defs927">
    <filter
       inkscape:collect="always"
       style="color-interpolation-filters:sRGB"
       id="filter990"
       x="-0.022676597"
       width="1.0453532"
       y="-0.025487444"
       height="1.0509749">
      <feGaussianBlur
         inkscape:collect="always"
         stdDeviation="2.1349638"
         id="feGaussianBlur992" />
    </filter>
  </defs>
  <sodipodi:namedview
     pagecolor="#ffffff"
     bordercolor="#666666"
     borderopacity="1"
     objecttolerance="10"
     gridtolerance="10"
     guidetolerance="10"
     inkscape:pageopacity="0"
     inkscape:pageshadow="2"
     inkscape:window-width="1366"
     inkscape:window-height="715"
     id="namedview925"
     showgrid="false"
     inkscape:zoom="0.60546018"
     inkscape:cx="57.876559"
     inkscape:cy="577.77252"
     inkscape:window-x="-8"
     inkscape:window-y="-8"
     inkscape:window-maximized="1"
     inkscape:current-layer="svg923" />
  <g
     id="g972"
     transform="matrix(1.1791062,0,0,1.3114567,15.091272,7.3366973)">
    <path
       id="path954"
       d="m 198.92387,140.12475 a 151.364,151.364 0 0 0 -7.274,-2.292 137.5,137.5 0 0 0 1.124,-4.961 c 5.506,-26.728 1.906,-48.26 -10.388,-55.348 -11.787,-6.798 -31.065,0.29 -50.535,17.233 a 151.136,151.136 0 0 0 -5.626,5.163 137.573,137.573 0 0 0 -3.744,-3.458 c -20.405,-18.118 -40.857999,-25.752 -53.138999,-18.643 -11.776,6.817 -15.264,27.06 -10.307,52.39 a 150.91,150.91 0 0 0 1.67,7.484 c -2.894,0.822 -5.689,1.698 -8.363,2.63 -23.922,8.34 -39.2,21.412 -39.2,34.97 0,14.004 16.4,28.05 41.318,36.566 a 128.44,128.44 0 0 0 6.11,1.91 147.813,147.813 0 0 0 -1.775,8.067 c -4.726,24.89 -1.035,44.653 10.71,51.428 12.131,6.995 32.490999,-0.195 52.316999,-17.525 1.567,-1.37 3.14,-2.823 4.715,-4.346 a 148.34,148.34 0 0 0 6.108,5.573 c 19.204,16.525 38.17,23.198 49.905,16.405 12.12,-7.016 16.058,-28.247 10.944,-54.078 -0.39,-1.973 -0.845,-3.988 -1.355,-6.04 1.43,-0.422 2.833,-0.858 4.202,-1.312 25.904,-8.582 42.757,-22.457 42.757,-36.648 0,-13.607 -15.77,-26.767 -40.174,-35.168 z"
       inkscape:connector-curvature="0"
       style="fill:#61dbfb;fill-opacity:1;filter:url(#filter990)" />
    <path
       id="path956"
       d="m 193.30487,202.77875 c -1.235,0.409 -2.503,0.804 -3.795,1.187 -2.86,-9.053 -6.72,-18.68 -11.442,-28.625 4.507,-9.71 8.217,-19.213 10.997,-28.208 2.311,0.67 4.555,1.375 6.717,2.12 20.91,7.197 33.664,17.84 33.664,26.04 0,8.735 -13.775,20.075 -36.14,27.486 z m -9.28,18.389 c 2.261,11.422 2.584,21.749 1.086,29.822 -1.346,7.254 -4.052,12.09 -7.398,14.027 -7.121,4.122 -22.35,-1.236 -38.772,-15.368 -1.883,-1.62 -3.78,-3.35 -5.682,-5.18 6.367,-6.964 12.73,-15.06 18.94,-24.05 10.924,-0.969 21.244,-2.554 30.603,-4.717 0.46,1.86 0.87,3.683 1.223,5.466 z m -93.849999,43.137 c -6.957,2.457 -12.498,2.527 -15.847,0.596 -7.128,-4.11 -10.09,-19.98 -6.049,-41.265 a 138.507,138.507 0 0 1 1.65,-7.502 c 9.255,2.047 19.5,3.52 30.449999,4.408 6.251,8.797 12.798,16.883 19.396,23.964 a 118.863,118.863 0 0 1 -4.305,3.964 c -8.767,7.664 -17.551999,13.1 -25.293999,15.835 z m -32.593,-61.58 c -11.018,-3.766 -20.117,-8.66 -26.354,-14 -5.604,-4.8 -8.434,-9.565 -8.434,-13.432 0,-8.227 12.267,-18.722 32.726,-25.855 a 139.276,139.276 0 0 1 7.777,-2.447 c 2.828,9.197 6.537,18.813 11.013,28.537 -4.534,9.869 -8.296,19.638 -11.15,28.943 a 118.908,118.908 0 0 1 -5.578,-1.746 z m 10.926,-74.37 c -4.247,-21.703 -1.427,-38.074 5.67,-42.182 7.56,-4.376 24.275,1.864 41.892999,17.507 1.126,1 2.257,2.047 3.39,3.13 -6.564,7.049 -13.051,15.074 -19.248,23.82 -10.626999,0.985 -20.799999,2.567 -30.151999,4.686 a 141.525,141.525 0 0 1 -1.553,-6.962 z m 97.466999,24.067 a 306.982,306.982 0 0 0 -6.871,-11.3 c 7.21,0.91 14.117,2.12 20.603,3.601 -1.947,6.241 -4.374,12.767 -7.232,19.457 a 336.42,336.42 0 0 0 -6.5,-11.758 z m -39.747,-38.714 c 4.452,4.823 8.911,10.209 13.297,16.052 a 284.245,284.245 0 0 0 -26.706,-0.006 c 4.39,-5.789 8.887,-11.167 13.409,-16.046 z m -40.001999,38.78 a 285.24,285.24 0 0 0 -6.378,11.685 c -2.811,-6.667 -5.216,-13.222 -7.18,-19.552 6.447,-1.443 13.322,-2.622 20.485,-3.517 a 283.79,283.79 0 0 0 -6.927,11.384 z m 7.133,57.683 c -7.4,-0.826 -14.379,-1.945 -20.824,-3.348 1.995,-6.442 4.453,-13.138 7.324,-19.948 a 283.494,283.494 0 0 0 6.406,11.692 285.27,285.27 0 0 0 7.094,11.604 z m 33.135999,27.389 c -4.575,-4.937 -9.138,-10.397 -13.595,-16.27 4.326,0.17 8.737,0.256 13.22,0.256 4.606,0 9.159,-0.103 13.64,-0.303 -4.4,5.98 -8.843,11.448 -13.265,16.317 z m 46.072,-51.032 c 3.02,6.884 5.566,13.544 7.588,19.877 -6.552,1.495 -13.625,2.699 -21.078,3.593 a 337.537,337.537 0 0 0 6.937,-11.498 306.632,306.632 0 0 0 6.553,-11.972 z m -14.915,7.15 a 316.478,316.478 0 0 1 -10.84,17.49 c -6.704,0.479 -13.632,0.726 -20.692,0.726 -7.031,0 -13.871,-0.219 -20.458,-0.646 a 273.798,273.798 0 0 1 -11.042999,-17.517 271.334,271.334 0 0 1 -9.64,-18.206 273.864,273.864 0 0 1 9.611,-18.216 v 0.002 a 271.252,271.252 0 0 1 10.955999,-17.442 c 6.72,-0.508 13.61,-0.774 20.575,-0.774 6.996,0 13.895,0.268 20.613,0.78 a 290.704,290.704 0 0 1 10.887,17.383 316.418,316.418 0 0 1 9.741,18.13 290.806,290.806 0 0 1 -9.709,18.29 z m 19.913,-107.792 c 7.566,4.364 10.509,21.961 5.755,45.038 a 127.525,127.525 0 0 1 -1.016,4.492 c -9.374,-2.163 -19.554,-3.773 -30.212,-4.773 -6.209,-8.841 -12.642,-16.88 -19.1,-23.838 a 141.92,141.92 0 0 1 5.196,-4.766 c 16.682,-14.518 32.273,-20.25 39.377,-16.153 z"
       inkscape:connector-curvature="0"
       style="fill:#ffffff" />
    <path
       id="path958"
       d="m 126.11987,155.11575 c 11.144,0 20.177,9.034 20.177,20.177 0,11.144 -9.033,20.178 -20.177,20.178 -11.143,0 -20.177,-9.034 -20.177,-20.178 0,-11.143 9.034,-20.177 20.177,-20.177"
       inkscape:connector-curvature="0"
       style="fill:#61dbfb;fill-opacity:1" />
    <flowRoot
       transform="matrix(1.1686272,0,0,1.0559563,-37.618825,-461.7669)"
       style="font-style:normal;font-variant:normal;font-weight:normal;font-stretch:semi-condensed;font-size:40.00026703px;line-height:1.25;font-family:'DejaVu Sans';-inkscape-font-specification:'DejaVu Sans, Semi-Condensed';font-variant-ligatures:normal;font-variant-caps:normal;font-variant-numeric:normal;font-feature-settings:normal;text-align:start;letter-spacing:0px;word-spacing:0px;writing-mode:lr-tb;text-anchor:start;fill:#000000;fill-opacity:0.74074073;stroke:#000000;stroke-width:1.00075126;stroke-miterlimit:4;stroke-dasharray:none;stroke-opacity:1"
       id="flowRoot988"
       xml:space="preserve"><flowRegion
         style="font-style:normal;font-variant:normal;font-weight:normal;font-stretch:semi-condensed;font-size:40.00026703px;font-family:'DejaVu Sans';-inkscape-font-specification:'DejaVu Sans, Semi-Condensed';font-variant-ligatures:normal;font-variant-caps:normal;font-variant-numeric:normal;font-feature-settings:normal;text-align:start;writing-mode:lr-tb;text-anchor:start;fill:#000000;fill-opacity:0.74074073;stroke:#000000;stroke-width:1.00075126;stroke-miterlimit:4;stroke-dasharray:none;stroke-opacity:1"
         id="flowRegion984"><rect
           style="font-style:normal;font-variant:normal;font-weight:normal;font-stretch:semi-condensed;font-size:40.00026703px;font-family:'DejaVu Sans';-inkscape-font-specification:'DejaVu Sans, Semi-Condensed';font-variant-ligatures:normal;font-variant-caps:normal;font-variant-numeric:normal;font-feature-settings:normal;text-align:start;writing-mode:lr-tb;text-anchor:start;fill:#000000;fill-opacity:0.74074073;stroke:#000000;stroke-width:1.00075126;stroke-miterlimit:4;stroke-dasharray:none;stroke-opacity:1"
           y="455.01672"
           x="87.53672"
           height="51.070393"
           width="113.63247"
           id="rect982" /></flowRegion><flowPara
         id="flowPara986"
         style="font-style:normal;font-variant:normal;font-weight:normal;font-stretch:semi-condensed;font-size:40.00026703px;font-family:'DejaVu Sans';-inkscape-font-specification:'DejaVu Sans, Semi-Condensed';font-variant-ligatures:normal;font-variant-caps:normal;font-variant-numeric:normal;font-feature-settings:normal;text-align:start;writing-mode:lr-tb;text-anchor:start;fill:#000000;fill-opacity:0.74074073;stroke:#000000;stroke-width:1.00075126;stroke-miterlimit:4;stroke-dasharray:none;stroke-opacity:1">React</flowPara></flowRoot>  </g>
</svg>
