<?xml version="1.0" encoding="UTF-8" standalone="no"?>
<svg
   xmlns:dc="http://purl.org/dc/elements/1.1/"
   xmlns:cc="http://creativecommons.org/ns#"
   xmlns:rdf="http://www.w3.org/1999/02/22-rdf-syntax-ns#"
   xmlns:svg="http://www.w3.org/2000/svg"
   xmlns="http://www.w3.org/2000/svg"
   xmlns:sodipodi="http://sodipodi.sourceforge.net/DTD/sodipodi-0.dtd"
   xmlns:inkscape="http://www.inkscape.org/namespaces/inkscape"
   width="2500"
   height="2246"
   viewBox="0 0 256 230"
   preserveAspectRatio="xMinYMin meet"
   version="1.1"
   id="svg2192"
   sodipodi:docname="react_3.svg"
   inkscape:version="0.92.4 (5da689c313, 2019-01-14)">
  <metadata
     id="metadata2198">
    <rdf:RDF>
      <cc:Work
         rdf:about="">
        <dc:format>image/svg+xml</dc:format>
        <dc:type
           rdf:resource="http://purl.org/dc/dcmitype/StillImage" />
        <dc:title></dc:title>
      </cc:Work>
    </rdf:RDF>
  </metadata>
  <defs
     id="defs2196" />
  <sodipodi:namedview
     pagecolor="#ffffff"
     bordercolor="#666666"
     borderopacity="1"
     objecttolerance="10"
     gridtolerance="10"
     guidetolerance="10"
     inkscape:pageopacity="0"
     inkscape:pageshadow="2"
     inkscape:window-width="1366"
     inkscape:window-height="715"
     id="namedview2194"
     showgrid="false"
     inkscape:zoom="0.12199466"
     inkscape:cx="1030.416"
     inkscape:cy="1006.7525"
     inkscape:window-x="-8"
     inkscape:window-y="-8"
     inkscape:window-maximized="1"
     inkscape:current-layer="svg2192" />
  <path
     d="m 182.60401,74.123926 a 116.04472,127.44077 0 0 0 -5.57669,-1.929747 105.41574,115.76799 0 0 0 0.86173,-4.176909 c 4.22123,-22.503613 1.46126,-40.632459 -7.96407,-46.600194 -9.03661,-5.723569 -23.81629,0.244166 -38.74316,14.509308 a 115.86992,127.2488 0 0 0 -4.31322,4.346982 105.47171,115.82945 0 0 0 -2.87038,-2.911459 C 108.35452,22.107475 92.674025,15.680036 83.258675,21.665451 74.230487,27.405018 71.556377,44.448591 75.356711,65.77516 a 115.69665,127.05852 0 0 0 1.280322,6.301146 c -2.218715,0.692082 -4.361529,1.429629 -6.411578,2.214326 -18.340039,7.021854 -30.05307,18.027812 -30.05307,29.442958 0,11.79065 12.573224,23.61666 31.676856,30.7867 a 98.469805,108.13993 0 0 0 4.684292,1.60812 113.32231,124.45101 0 0 0 -1.360821,6.79201 c -3.623235,20.95611 -0.793493,37.59555 8.210928,43.29975 9.300352,5.88943 24.90954,-0.16418 40.10935,-14.75516 1.20135,-1.15347 2.40731,-2.37682 3.6148,-3.65911 a 113.72634,124.89471 0 0 0 4.68276,4.69218 c 14.72294,13.91321 29.26342,19.53154 38.26017,13.81218 9.29192,-5.90712 12.31103,-23.78254 8.39032,-45.53092 -0.29899,-1.66117 -0.64782,-3.35769 -1.03882,-5.08537 1.09632,-0.3553 2.17195,-0.72239 3.2215,-1.10464 19.85957,-7.22561 32.78008,-18.90765 32.78008,-30.85574 0,-11.456402 -12.09022,-22.536451 -30.79979,-29.609664 z"
     id="path2186"
     inkscape:connector-curvature="0"
     style="fill:#53fcde;stroke-width:0.80342305;fill-opacity:1" />
  <path
     d="m 178.29615,126.87539 c -0.94683,0.34436 -1.91895,0.67693 -2.90948,0.9994 -2.19265,-7.62217 -5.15195,-15.72761 -8.77212,-24.10079 3.45534,-8.175323 6.29965,-16.176364 8.43096,-23.749696 1.77175,0.564106 3.49213,1.15768 5.14965,1.784932 16.03087,6.059507 25.80885,15.02037 25.80885,21.924354 0,7.35442 -10.56075,16.90212 -27.70709,23.1418 z m -7.1146,15.4826 c 1.73341,9.61675 1.98104,18.31155 0.83259,25.10861 -1.03193,6.1075 -3.10651,10.17916 -5.67176,11.81002 -5.45938,3.47051 -17.13484,-1.04065 -29.72494,-12.93908 -1.44362,-1.36395 -2.89797,-2.82053 -4.35616,-4.36129 4.88133,-5.86333 9.75959,-12.67975 14.52055,-20.24888 8.37498,-0.81584 16.28692,-2.15033 23.46209,-3.97147 0.35266,1.56603 0.66699,3.1009 0.93763,4.60209 z m -71.951048,36.31916 c -5.333654,2.06867 -9.581717,2.1276 -12.149261,0.5018 -5.464752,-3.46041 -7.735599,-16.82214 -4.637526,-34.74303 a 106.18777,116.61583 0 0 1 1.264989,-6.3163 c 7.095438,1.72347 14.949869,2.96366 23.344806,3.71131 4.79238,7.40663 9.8117,14.21463 14.87013,20.17647 a 91.127502,100.07658 0 0 1 -3.30047,3.33749 c -6.72132,6.45269 -13.45642,11.02953 -19.391903,13.33226 z M 74.242754,126.82993 c -8.44706,-3.17078 -15.422899,-7.29128 -20.204558,-11.78729 -4.296362,-4.04135 -6.466009,-8.05324 -6.466009,-11.30905 0,-6.926716 9.404617,-15.762971 25.089713,-21.768593 a 106.77733,117.26329 0 0 1 5.962315,-2.060249 c 2.168115,7.743405 5.011657,15.839586 8.443226,24.026702 -3.476036,8.30919 -6.360211,16.53419 -8.548258,24.36852 a 91.162002,100.11447 0 0 1 -4.276429,-1.47004 z M 82.61928,64.214186 C 79.363275,45.941367 81.525256,32.15782 86.966242,28.699093 c 5.795949,-3.684368 18.610668,1.569393 32.117688,14.740002 0.86326,0.841949 1.73034,1.723469 2.59897,2.6353 -5.03235,5.934898 -10.00568,12.691539 -14.75667,20.055225 -8.147291,0.82932 -15.946523,2.161283 -23.116326,3.945373 A 108.50155,119.15683 0 0 1 82.61928,64.213344 Z m 74.72405,20.263187 a 235.3508,258.46319 0 0 0 -5.26772,-9.514024 c 5.52762,0.766174 10.82294,1.784932 15.79549,3.031858 -1.49268,5.254604 -3.35336,10.749163 -5.54448,16.381802 a 257.91975,283.24848 0 0 0 -4.98329,-9.899636 z M 126.87089,51.882159 c 3.41318,4.06072 6.83171,8.595457 10.19429,13.514965 a 217.91926,239.31979 0 0 0 -20.47443,-0.0051 c 3.36564,-4.874043 6.81331,-9.402045 10.28014,-13.509914 z M 96.202962,84.532941 a 218.68208,240.15753 0 0 0 -4.889758,9.838174 C 89.158123,88.757841 87.314306,83.238866 85.808586,77.909329 90.751243,76.694396 96.022029,75.701738 101.51362,74.948194 a 217.57043,238.93671 0 0 0 -5.310658,9.584747 z m 5.468588,48.566139 c -5.673287,-0.69545 -11.023807,-1.63759 -15.96493,-2.81884 1.529487,-5.42384 3.413936,-11.06153 5.615017,-16.7952 a 217.3435,238.68749 0 0 0 4.911224,9.84407 218.70509,240.18279 0 0 0 5.438689,9.76997 z m 25.40404,23.06014 c -3.50746,-4.1567 -7.00574,-8.75374 -10.42274,-13.69851 3.31657,0.14313 6.6983,0.21554 10.13524,0.21554 3.53124,0 7.02185,-0.0867 10.45725,-0.25511 -3.37331,5.03486 -6.77958,9.63863 -10.16975,13.73808 z m 35.32157,-42.96634 c 2.31531,5.79598 4.26722,11.40336 5.81741,16.73542 -5.02316,1.25872 -10.44574,2.27242 -16.15966,3.02512 a 258.7761,284.18894 0 0 0 5.31832,-9.68073 235.08247,258.16851 0 0 0 5.02393,-10.07981 z m -11.43473,6.01994 a 242.63101,266.45834 0 0 1 -8.3106,14.72568 c -5.13969,0.4033 -10.45112,0.61126 -15.86374,0.61126 -5.39038,0 -10.63434,-0.18439 -15.68432,-0.5439 a 209.90996,230.52395 0 0 1 -8.46623,-14.74842 208.02092,228.44939 0 0 1 -7.390604,-15.32852 209.96056,230.57952 0 0 1 7.368374,-15.336943 v 0.0017 a 207.95804,228.38035 0 0 1 8.39953,-14.685274 c 5.15194,-0.42771 10.43424,-0.651669 15.77402,-0.651669 5.36356,0 10.65274,0.225643 15.80317,0.656721 a 222.87112,244.75794 0 0 1 8.34662,14.635599 242.58501,266.40782 0 0 1 7.46804,15.264536 222.94932,244.84382 0 0 1 -7.44351,15.39925 z m 15.26649,-90.755366 c 5.80055,3.674265 8.05683,18.490042 4.41213,37.919699 a 97.768311,107.36955 0 0 1 -0.77893,3.782035 c -7.18667,-1.821136 -14.99127,-3.176674 -23.16233,-4.018623 -4.76019,-7.443671 -9.69211,-14.212099 -14.64321,-20.07038 a 108.80438,119.4894 0 0 1 3.98357,-4.012729 c 12.78943,-12.223415 24.74242,-17.049467 30.18877,-13.600002 z"
     id="path2188"
     inkscape:connector-curvature="0"
     style="fill:#858585;stroke-width:0.80342305;fill-opacity:1" />
  <path
     d="m 126.78809,86.745583 c 8.54367,0 15.4689,7.606168 15.4689,16.988007 0,9.38267 -6.92523,16.98884 -15.4689,16.98884 -8.54288,0 -15.4689,-7.60617 -15.4689,-16.98884 0,-9.381839 6.92602,-16.988007 15.4689,-16.988007"
     id="path2190"
     inkscape:connector-curvature="0"
     style="fill:#53fcde;stroke-width:0.80342305;fill-opacity:1" />
  <text
     xml:space="preserve"
     style="font-style:normal;font-variant:normal;font-weight:bold;font-stretch:normal;font-size:43.60253525px;line-height:1.25;font-family:Arial;-inkscape-font-specification:'Arial, Bold';font-variant-ligatures:normal;font-variant-caps:normal;font-variant-numeric:normal;font-feature-settings:normal;text-align:start;letter-spacing:0px;word-spacing:0px;writing-mode:lr-tb;text-anchor:start;fill:#000000;fill-opacity:0.53439152;stroke:#000000;stroke-width:1.09006333;stroke-opacity:1;"
     x="59.584301"
     y="239.8938"
     id="text2202"
     transform="scale(1.0684525,0.93593301)"><tspan
       sodipodi:role="line"
       id="tspan2200"
       x="59.584301"
       y="239.8938"
       style="font-style:normal;font-variant:normal;font-weight:bold;font-stretch:normal;font-size:43.60253525px;font-family:Arial;-inkscape-font-specification:'Arial, Bold';font-variant-ligatures:normal;font-variant-caps:normal;font-variant-numeric:normal;font-feature-settings:normal;text-align:start;writing-mode:lr-tb;text-anchor:start;stroke-width:1.09006333;fill:#000000;fill-opacity:0.53439152;stroke:#000000;stroke-opacity:1;">React</tspan></text>
  <flowRoot
     xml:space="preserve"
     id="flowRoot2204"
     style="fill:black;fill-opacity:1;stroke:none;font-family:Tiza;font-style:normal;font-weight:normal;font-size:40px;line-height:1.25;letter-spacing:0px;word-spacing:0px;-inkscape-font-specification:'Tiza, Normal';font-stretch:normal;font-variant:normal;text-anchor:start;text-align:start;writing-mode:lr;font-variant-ligatures:normal;font-variant-caps:normal;font-variant-numeric:normal;font-feature-settings:normal"><flowRegion
       id="flowRegion2206"><rect
         id="rect2208"
         width="510.26828"
         height="219.27188"
         x="758.22992"
         y="2059.5164" /></flowRegion><flowPara
       id="flowPara2210"></flowPara></flowRoot></svg>
