<?xml version="1.0" encoding="UTF-8" standalone="no"?>
<svg
   xmlns:dc="http://purl.org/dc/elements/1.1/"
   xmlns:cc="http://creativecommons.org/ns#"
   xmlns:rdf="http://www.w3.org/1999/02/22-rdf-syntax-ns#"
   xmlns:svg="http://www.w3.org/2000/svg"
   xmlns="http://www.w3.org/2000/svg"
   xmlns:sodipodi="http://sodipodi.sourceforge.net/DTD/sodipodi-0.dtd"
   xmlns:inkscape="http://www.inkscape.org/namespaces/inkscape"
   height="512"
   viewBox="0 0 64 64"
   width="512"
   version="1.1"
   id="svg8721"
   sodipodi:docname="skills.svg"
   inkscape:version="0.92.4 (5da689c313, 2019-01-14)">
  <metadata
     id="metadata8727">
    <rdf:RDF>
      <cc:Work
         rdf:about="">
        <dc:format>image/svg+xml</dc:format>
        <dc:type
           rdf:resource="http://purl.org/dc/dcmitype/StillImage" />
      </cc:Work>
    </rdf:RDF>
  </metadata>
  <defs
     id="defs8725" />
  <sodipodi:namedview
     pagecolor="#ffffff"
     bordercolor="#666666"
     borderopacity="1"
     objecttolerance="10"
     gridtolerance="10"
     guidetolerance="10"
     inkscape:pageopacity="0"
     inkscape:pageshadow="2"
     inkscape:window-width="1366"
     inkscape:window-height="715"
     id="namedview8723"
     showgrid="false"
     inkscape:zoom="0.4609375"
     inkscape:cx="256"
     inkscape:cy="256"
     inkscape:window-x="-8"
     inkscape:window-y="-8"
     inkscape:window-maximized="1"
     inkscape:current-layer="svg8721" />
  <path
     d="m 56.471426,54.683496 -2.289131,-9.097159 a 0.80888048,0.80434652 0 0 0 -0.210309,-0.37563 L 40.297052,31.617251 42.25697,29.668319 A 2.463041,2.4492352 0 0 1 44.246007,28.925908 10.522726,10.463744 0 0 0 55.610778,15.828733 0.80888048,0.80434652 0 0 0 54.25752,15.468386 l -5.638705,5.6071 -4.765924,-0.952347 -0.958523,-4.73921 5.639514,-5.6070995 A 0.80888048,0.80434652 0 0 0 48.171504,8.4311578 10.522726,10.463744 0 0 0 35.001312,19.733031 2.4646588,2.4508439 0 0 1 34.253906,21.710114 L 32.293988,23.659047 17.954156,9.3955693 A 5.6624524,5.630713 0 1 0 9.9462385,17.3586 L 24.290116,31.617251 22.331008,33.565379 A 2.450099,2.4363656 0 0 1 20.34197,34.30779 10.522726,10.463744 0 0 0 8.9771997,47.405769 0.80888048,0.80434652 0 0 0 10.330457,47.766116 l 5.638705,-5.6071 4.765924,0.952346 0.962568,4.739211 -5.639514,5.607099 a 0.80888048,0.80434652 0 0 0 0.362378,1.345672 10.522726,10.463744 0 0 0 13.166148,-11.301873 2.4646588,2.4508439 0 0 1 0.747406,-1.977084 l 1.959916,-1.948931 13.670082,13.598282 a 0.80888048,0.80434652 0 0 0 0.37532,0.211543 l 9.148438,2.2763 a 0.8169693,0.81238999 0 0 0 0.196558,0.02413 A 0.80888048,0.80434652 0 0 0 56.469,54.685908 Z M 50.452547,52.747434 47.34402,51.973653 v -2.938278 l 1.89278,0.376434 a 0.80888048,0.80434652 0 0 0 0.952052,-0.946715 l -0.379365,-1.882172 h 2.955649 l 0.777334,3.0903 a 5.6023062,5.570904 0 0 0 -3.089923,3.074212 z m -2.374873,-6.571511 0.286344,1.422084 -1.429292,-0.284738 -27.259272,-27.106478 1.139712,-1.137346 z M 35.397664,22.849874 a 4.0905086,4.0675804 0 0 0 1.21332,-3.297821 8.906583,8.8566594 0 0 1 9.687962,-9.827506 l -4.853284,4.82608 a 0.80888048,0.80434652 0 0 0 -0.220824,0.727933 l 1.14942,5.685926 a 0.80888048,0.80434652 0 0 0 0.633353,0.630608 l 5.717977,1.141367 a 0.80888048,0.80434652 0 0 0 0.732036,-0.219586 l 4.853282,-4.826079 a 8.906583,8.8566594 0 0 1 -9.879666,9.636875 4.0937442,4.0707977 0 0 0 -3.31641,1.20652 l -1.961534,1.945714 -2.294794,-2.281931 c 0.01618,-0.01367 0.0364,-0.0185 0.05176,-0.03379 l 3.235522,-3.217385 a 0.80888048,0.80434652 0 0 0 -1.143757,-1.137347 l -3.235522,3.217387 c -0.01537,0.01528 -0.02022,0.0354 -0.03398,0.05148 L 33.437746,24.796392 Z M 23.10268,16.790731 51.441808,44.97423 h -2.28347 L 21.958922,17.928077 Z M 11.090804,16.220449 a 4.0444024,4.0217326 0 1 1 5.719594,-5.687534 l 1.715636,1.70602 -5.719594,5.687534 z m 2.859393,2.84417 5.720403,-5.688339 2.287514,2.275497 -5.720402,5.687534 z m 15.240117,21.320009 a 4.0905086,4.0675804 0 0 0 -1.21332,3.297821 8.906583,8.8566594 0 0 1 -9.687962,9.827506 l 4.853283,-4.82608 a 0.80888048,0.80434652 0 0 0 0.221633,-0.727933 l -1.14861,-5.68673 A 0.80888048,0.80434652 0 0 0 21.581984,41.638604 L 15.8632,40.497237 a 0.80888048,0.80434652 0 0 0 -0.727993,0.219586 l -4.853283,4.82608 a 8.906583,8.8566594 0 0 1 9.878858,-9.636072 4.0824198,4.0595369 0 0 0 3.31641,-1.20652 l 1.959917,-1.948932 2.293985,2.281932 c -0.01536,0.01367 -0.0356,0.0185 -0.05096,0.03378 l -3.235522,3.217384 a 0.80888048,0.80434652 0 1 0 1.143758,1.137346 l 3.235522,-3.217386 c 0.01537,-0.01528 0.02022,-0.0354 0.03398,-0.05068 l 2.294794,2.281128 z m -11.808846,-17.904753 1.146184,-1.13976 27.198606,27.046957 v 2.27067 z m 34.668618,30.664906 a 3.8656398,3.8439721 0 0 1 1.89278,-1.882171 l 0.631736,2.510366 z"
     id="path8719"
     style="fill:#757575;fill-opacity:1;stroke-width:0.80661035"
     inkscape:connector-curvature="0" />
</svg>
