<?xml version="1.0" encoding="UTF-8" standalone="no"?>
<!-- Created with Inkscape (http://www.inkscape.org/) -->

<svg
   xmlns:dc="http://purl.org/dc/elements/1.1/"
   xmlns:cc="http://creativecommons.org/ns#"
   xmlns:rdf="http://www.w3.org/1999/02/22-rdf-syntax-ns#"
   xmlns:svg="http://www.w3.org/2000/svg"
   xmlns="http://www.w3.org/2000/svg"
   xmlns:sodipodi="http://sodipodi.sourceforge.net/DTD/sodipodi-0.dtd"
   xmlns:inkscape="http://www.inkscape.org/namespaces/inkscape"
   width="210mm"
   height="297mm"
   viewBox="0 0 210 297"
   version="1.1"
   id="svg7811"
   inkscape:version="0.92.4 (5da689c313, 2019-01-14)"
   sodipodi:docname="skill_1.svg">
  <defs
     id="defs7805" />
  <sodipodi:namedview
     id="base"
     pagecolor="#ffffff"
     bordercolor="#666666"
     borderopacity="1.0"
     inkscape:pageopacity="0.0"
     inkscape:pageshadow="2"
     inkscape:zoom="0.35"
     inkscape:cx="-64.285714"
     inkscape:cy="560"
     inkscape:document-units="mm"
     inkscape:current-layer="layer1"
     showgrid="false"
     inkscape:window-width="1366"
     inkscape:window-height="715"
     inkscape:window-x="-8"
     inkscape:window-y="-8"
     inkscape:window-maximized="1" />
  <metadata
     id="metadata7808">
    <rdf:RDF>
      <cc:Work
         rdf:about="">
        <dc:format>image/svg+xml</dc:format>
        <dc:type
           rdf:resource="http://purl.org/dc/dcmitype/StillImage" />
        <dc:title></dc:title>
      </cc:Work>
    </rdf:RDF>
  </metadata>
  <g
     inkscape:label="Layer 1"
     inkscape:groupmode="layer"
     id="layer1">
    <path
       inkscape:connector-curvature="0"
       style="fill:#757575;fill-opacity:1;stroke-width:2.1335423"
       id="path8719"
       d="m 168.09388,203.83903 -5.77476,-25.23001 a 2.0405517,2.2307703 0 0 0 -0.53055,-1.04176 l -34.49756,-37.70001 4.94425,-5.40516 a 6.2134799,6.7926955 0 0 1 5.01772,-2.059 26.545537,29.02009 0 0 0 28.66975,-36.323632 2.0405517,2.2307703 0 0 0 -3.41385,-0.999392 l -14.22467,15.550694 -12.02294,-2.64123 -2.41805,-13.1437 14.22672,-15.550698 a 2.0405517,2.2307703 0 0 0 -0.91416,-3.732068 26.545537,29.02009 0 0 0 -33.22427,31.344546 6.2175611,6.7971571 0 0 1 -1.88547,5.48323 L 107.10178,117.796 70.926889,78.237748 A 14.284595,15.616192 0 1 0 50.725416,100.32237 l 36.185107,39.54488 -4.942217,5.40292 a 6.1808313,6.7570031 0 0 1 -5.017718,2.059 26.545537,29.02009 0 0 0 -28.669751,36.32585 2.0405517,2.2307703 0 0 0 3.41385,0.9994 l 14.224686,-15.5507 12.022928,2.64123 2.428251,13.14369 -14.226724,15.5507 a 2.0405517,2.2307703 0 0 0 0.914174,3.73208 26.545537,29.02009 0 0 0 33.214058,-31.34454 6.2175611,6.7971571 0 0 1 1.88547,-5.48324 l 4.94425,-5.40516 34.48533,37.7134 a 2.0405517,2.2307703 0 0 0 0.94681,0.58669 l 23.07865,6.31308 a 2.0609573,2.2530779 0 0 0 0.49585,0.0669 2.0405517,2.2307703 0 0 0 1.97934,-2.77285 z m -15.18375,-5.36945 -7.84184,-2.14601 v -8.14901 l 4.77489,1.04401 a 2.0405517,2.2307703 0 0 0 2.40173,-2.62562 l -0.95702,-5.22 h 7.45617 l 1.96098,8.57061 a 14.132862,15.450315 0 0 0 -7.79491,8.52602 z m -5.99106,-18.2254 0.72235,3.94399 -3.60565,-0.78968 -68.766591,-75.17695 2.875136,-3.15432 z m -31.98769,-64.69233 a 10.31907,11.281005 0 0 0 3.06083,-9.14617 22.468515,24.563011 0 0 1 24.43969,-27.255542 l -12.24332,13.38462 a 2.0405517,2.2307703 0 0 0 -0.55706,2.018844 l 2.89962,15.769318 a 2.0405517,2.2307703 0 0 0 1.59776,1.74893 l 14.42466,3.16545 a 2.0405517,2.2307703 0 0 0 1.84669,-0.609 l 12.24331,-13.38462 a 22.468515,24.563011 0 0 1 -24.9233,26.72686 10.327233,11.289928 0 0 0 -8.36626,3.34617 l -4.94833,5.39622 -5.78905,-6.32869 c 0.0409,-0.0379 0.0918,-0.0514 0.13057,-0.0937 l 8.16221,-8.92308 a 2.0405517,2.2307703 0 0 0 -2.88534,-3.15432 l -8.16221,8.92308 c -0.0387,0.0423 -0.051,0.0981 -0.0857,0.14278 l -5.78902,-6.32869 z M 83.915002,98.747459 155.40573,176.91142 h -5.76048 L 81.029652,101.90177 Z M 53.612803,97.165838 A 10.202759,11.153851 0 1 1 68.04154,81.392054 l 4.328012,4.731472 -14.428737,15.773774 z m 7.213349,7.888002 14.430787,-15.776008 5.770675,6.310853 -14.430775,15.773775 z m 38.446026,59.1288 a 10.31907,11.281005 0 0 0 -3.060821,9.14616 22.468515,24.563011 0 0 1 -24.439682,27.25554 l 12.243308,-13.38462 a 2.0405517,2.2307703 0 0 0 0.559107,-2.01885 l -2.897577,-15.77153 a 2.0405517,2.2307703 0 0 0 -1.597755,-1.74893 l -14.426699,-3.16546 a 2.0405517,2.2307703 0 0 0 -1.836499,0.609 l -12.243308,13.38462 a 22.468515,24.563011 0 0 1 24.921261,-26.72463 10.298665,11.258697 0 0 0 8.366256,-3.34615 l 4.944255,-5.40516 5.787003,6.3287 c -0.03873,0.0379 -0.08986,0.0514 -0.12855,0.0937 l -8.162205,8.92308 a 2.0405517,2.2307703 0 1 0 2.885337,3.15431 l 8.162206,-8.92309 c 0.03873,-0.0423 0.05101,-0.0981 0.08569,-0.14056 l 5.789045,6.32648 z m -29.790001,-49.65694 2.891463,-3.16102 68.61355,75.01188 v 6.29746 z m 87.458043,85.04587 a 9.7517968,10.660851 0 0 1 4.7749,-5.22 l 1.59366,6.96224 z" />
  </g>
</svg>
