<?xml version="1.0" encoding="UTF-8" standalone="no"?>
<!-- Created with Inkscape (http://www.inkscape.org/) -->

<svg
   xmlns:dc="http://purl.org/dc/elements/1.1/"
   xmlns:cc="http://creativecommons.org/ns#"
   xmlns:rdf="http://www.w3.org/1999/02/22-rdf-syntax-ns#"
   xmlns:svg="http://www.w3.org/2000/svg"
   xmlns="http://www.w3.org/2000/svg"
   xmlns:sodipodi="http://sodipodi.sourceforge.net/DTD/sodipodi-0.dtd"
   xmlns:inkscape="http://www.inkscape.org/namespaces/inkscape"
   width="210mm"
   height="297mm"
   viewBox="0 0 210 297"
   version="1.1"
   id="svg6503"
   inkscape:version="0.92.4 (5da689c313, 2019-01-14)"
   sodipodi:docname="skills22.svg">
  <defs
     id="defs6497" />
  <sodipodi:namedview
     id="base"
     pagecolor="#ffffff"
     bordercolor="#666666"
     borderopacity="1.0"
     inkscape:pageopacity="0.0"
     inkscape:pageshadow="2"
     inkscape:zoom="0.35"
     inkscape:cx="-64.285714"
     inkscape:cy="560"
     inkscape:document-units="mm"
     inkscape:current-layer="layer1"
     showgrid="false"
     inkscape:window-width="1366"
     inkscape:window-height="715"
     inkscape:window-x="-8"
     inkscape:window-y="-8"
     inkscape:window-maximized="1" />
  <metadata
     id="metadata6500">
    <rdf:RDF>
      <cc:Work
         rdf:about="">
        <dc:format>image/svg+xml</dc:format>
        <dc:type
           rdf:resource="http://purl.org/dc/dcmitype/StillImage" />
        <dc:title></dc:title>
      </cc:Work>
    </rdf:RDF>
  </metadata>
  <g
     inkscape:label="Layer 1"
     inkscape:groupmode="layer"
     id="layer1">
    <g
       id="layer1-1"
       inkscape:label="Layer 1"
       transform="matrix(0.79296739,0,0,0.81095578,23.421786,20.667593)"
       style="fill:#cb70f8;fill-opacity:1">
      <g
         transform="matrix(0.24579803,0,0,0.24579803,47.171428,4.7488087)"
         id="g2809"
         style="fill:#cb70f8;fill-opacity:1" />
      <g
         transform="matrix(0.26458333,0,0,0.26458333,295.12377,44.813986)"
         id="g2959"
         style="fill:#cb70f8;fill-opacity:1">
        <g
           id="g860"
           style="fill:#cb70f8;fill-opacity:1" />
        <g
           id="g862"
           style="fill:#cb70f8;fill-opacity:1" />
        <g
           id="g864"
           style="fill:#cb70f8;fill-opacity:1" />
        <g
           id="g866"
           style="fill:#cb70f8;fill-opacity:1" />
        <g
           id="g868"
           style="fill:#cb70f8;fill-opacity:1" />
        <g
           id="g870"
           style="fill:#cb70f8;fill-opacity:1" />
        <g
           id="g872"
           style="fill:#cb70f8;fill-opacity:1" />
        <g
           id="g874"
           style="fill:#cb70f8;fill-opacity:1" />
        <g
           id="g876"
           style="fill:#cb70f8;fill-opacity:1" />
        <g
           id="g878"
           style="fill:#cb70f8;fill-opacity:1" />
        <g
           id="g880"
           style="fill:#cb70f8;fill-opacity:1" />
        <g
           id="g882"
           style="fill:#cb70f8;fill-opacity:1" />
        <g
           id="g884"
           style="fill:#cb70f8;fill-opacity:1" />
        <g
           id="g886"
           style="fill:#cb70f8;fill-opacity:1" />
        <g
           id="g888"
           style="fill:#cb70f8;fill-opacity:1" />
      </g>
      <g
         transform="matrix(0.24579803,0,0,0.24579803,42.635713,31.207142)"
         id="g2974"
         style="fill:#cb70f8;fill-opacity:1" />
      <path
         style="fill:#cb70f8;fill-opacity:1;stroke-width:2.66059875"
         inkscape:connector-curvature="0"
         d="m 182.444,225.87093 -7.28248,-31.11205 a 2.5733137,2.7508451 0 0 0 -0.66906,-1.28464 l -43.50443,-46.48928 6.23513,-6.66531 a 7.8357398,8.3763231 0 0 1 6.32778,-2.53902 33.476236,35.785743 0 0 0 36.15506,-44.791995 2.5733137,2.7508451 0 0 0 -4.30516,-1.23239 l -17.93856,19.176145 -15.16197,-3.25701 -3.04938,-16.207975 17.94114,-19.176133 a 2.5733137,2.7508451 0 0 0 -1.15284,-4.602163 33.476236,35.785743 0 0 0 -41.89869,38.652121 7.8408863,8.3818248 0 0 1 -2.37774,6.76157 l -6.23514,6.6653 L 59.907961,70.987372 A 18.014116,19.2569 0 1 0 34.432157,98.220745 l 45.63257,48.764215 -6.232566,6.66254 a 7.7945668,8.3323095 0 0 1 -6.327777,2.53904 33.476236,35.785743 0 0 0 -36.155057,44.79474 2.5733137,2.7508451 0 0 0 4.305153,1.23239 l 17.93857,-19.17614 15.161964,3.257 3.062242,16.20797 -17.941142,19.17614 a 2.5733137,2.7508451 0 0 0 1.152845,4.60218 33.476236,35.785743 0 0 0 41.885821,-38.65212 7.8408863,8.3818248 0 0 1 2.377742,-6.76159 l 6.235138,-6.66529 43.489,46.50578 a 2.5733137,2.7508451 0 0 0 1.19401,0.72347 l 29.10418,7.7849 a 2.5990467,2.7783535 0 0 0 0.62531,0.0825 2.5733137,2.7508451 0 0 0 2.49613,-3.41931 z m -19.14803,-6.62128 -9.88925,-2.64631 V 206.5545 l 6.02157,1.2874 a 2.5733137,2.7508451 0 0 0 3.02879,-3.23775 l -1.20689,-6.43697 h 9.40288 l 2.47296,10.56875 a 17.822769,19.052352 0 0 0 -9.83006,10.51372 z m -7.55524,-22.4744 0.91095,4.8635 -4.54705,-0.9738 -86.720658,-92.70347 3.6258,-3.8897 z m -40.33926,-79.77451 a 13.013247,13.911022 0 0 0 3.85997,-11.27845 28.334756,30.289555 0 0 1 30.82057,-33.609822 l -15.43988,16.505077 a 2.5733137,2.7508451 0 0 0 -0.70252,2.4895 l 3.65669,19.445725 a 2.5733137,2.7508451 0 0 0 2.0149,2.15666 l 18.19075,3.90344 a 2.5733137,2.7508451 0 0 0 2.32885,-0.75097 l 15.43987,-16.505075 a 28.334756,30.289555 0 0 1 -31.43044,32.957875 13.02354,13.922027 0 0 0 -10.55058,4.12626 l -6.24029,6.6543 -7.30048,-7.80414 c 0.0515,-0.0468 0.11586,-0.0633 0.16468,-0.11554 l 10.29325,-11.00338 a 2.5733137,2.7508451 0 0 0 -3.63866,-3.8897 l -10.29325,11.00338 c -0.0488,0.0522 -0.0643,0.121 -0.10809,0.17607 l -7.30049,-7.80416 z M 76.287102,96.278635 166.44314,192.66548 h -7.26446 L 72.648437,100.16833 Z m -38.213706,-1.95034 a 12.866567,13.754225 0 1 1 18.1959,-19.451228 l 5.457997,5.834542 -18.195899,19.451221 z m 9.096663,9.726985 18.198473,-19.453975 7.277332,7.78214 -18.198474,19.451225 z m 48.483805,72.91388 a 13.013247,13.911022 0 0 0 -3.85997,11.27847 28.334756,30.289555 0 0 1 -30.820581,33.60983 l 15.439882,-16.50507 a 2.5733137,2.7508451 0 0 0 0.705087,-2.48953 l -3.654104,-19.44847 a 2.5733137,2.7508451 0 0 0 -2.014905,-2.15665 l -18.193328,-3.90345 a 2.5733137,2.7508451 0 0 0 -2.315982,0.75099 l -15.439882,16.50505 a 28.334756,30.289555 0 0 1 31.42788,-32.95512 12.987514,13.883516 0 0 0 10.550586,-4.12627 l 6.235138,-6.66529 7.297917,7.80415 c -0.04888,0.0468 -0.113184,0.0633 -0.162118,0.11553 l -10.293255,11.00339 a 2.5733137,2.7508451 0 1 0 3.638666,3.88969 l 10.293259,-11.00338 c 0.04888,-0.0522 0.06432,-0.12099 0.108079,-0.1733 l 7.300487,7.80138 z m -37.567808,-61.2338 3.646384,-3.89795 86.52766,92.49992 v 7.76563 z M 168.37827,220.60857 a 12.297865,13.146289 0 0 1 6.02155,-6.43698 l 2.00977,8.5854 z"
         id="path2976" />
    </g>
  </g>
</svg>
