<?xml version="1.0" encoding="UTF-8" standalone="no"?>
<!-- Created with Inkscape (http://www.inkscape.org/) -->

<svg
   xmlns:dc="http://purl.org/dc/elements/1.1/"
   xmlns:cc="http://creativecommons.org/ns#"
   xmlns:rdf="http://www.w3.org/1999/02/22-rdf-syntax-ns#"
   xmlns:svg="http://www.w3.org/2000/svg"
   xmlns="http://www.w3.org/2000/svg"
   xmlns:sodipodi="http://sodipodi.sourceforge.net/DTD/sodipodi-0.dtd"
   xmlns:inkscape="http://www.inkscape.org/namespaces/inkscape"
   width="210mm"
   height="297mm"
   viewBox="0 0 210 297"
   version="1.1"
   id="svg8929"
   inkscape:version="0.92.4 (5da689c313, 2019-01-14)"
   sodipodi:docname="user_2.svg">
  <defs
     id="defs8923" />
  <sodipodi:namedview
     id="base"
     pagecolor="#ffffff"
     bordercolor="#666666"
     borderopacity="1.0"
     inkscape:pageopacity="0.0"
     inkscape:pageshadow="2"
     inkscape:zoom="0.35"
     inkscape:cx="-452.59843"
     inkscape:cy="560"
     inkscape:document-units="mm"
     inkscape:current-layer="layer1"
     showgrid="false"
     inkscape:window-width="1366"
     inkscape:window-height="715"
     inkscape:window-x="-8"
     inkscape:window-y="-8"
     inkscape:window-maximized="1" />
  <metadata
     id="metadata8926">
    <rdf:RDF>
      <cc:Work
         rdf:about="">
        <dc:format>image/svg+xml</dc:format>
        <dc:type
           rdf:resource="http://purl.org/dc/dcmitype/StillImage" />
        <dc:title />
      </cc:Work>
    </rdf:RDF>
  </metadata>
  <g
     inkscape:label="Layer 1"
     inkscape:groupmode="layer"
     id="layer1">
    <g
       id="layer1-1"
       inkscape:label="Layer 1"
       transform="matrix(0.85658639,0,0,0.85653489,17.941237,13.686072)"
       style="fill:#cb70f8;fill-opacity:1">
      <g
         transform="matrix(0.29439318,0,0,0.28142837,22.063045,66.754719)"
         id="g2809"
         style="fill:#cb70f8;fill-opacity:1">
        <path
           style="fill:#cb70f8;fill-opacity:1;stroke:#91757b;stroke-opacity:1"
           inkscape:connector-curvature="0"
           d="m 275.565,275.565 c -75.972,0 -137.783,-61.81 -137.783,-137.783 C 137.782,61.809 199.593,0 275.565,0 c 75.972,0 137.783,61.81 137.783,137.783 0,75.973 -61.811,137.782 -137.783,137.782 z m 0,-241.119 c -56.983,0 -103.337,46.353 -103.337,103.337 0,56.984 46.353,103.337 103.337,103.337 56.984,0 103.337,-46.354 103.337,-103.337 0,-56.983 -46.354,-103.337 -103.337,-103.337 z"
           id="path2796" />
        <path
           style="fill:#cb70f8;fill-opacity:1"
           inkscape:connector-curvature="0"
           d="M 499.461,551.13 H 51.668 c -9.52,0 -17.223,-7.703 -17.223,-17.223 V 415.349 c 0,-17.795 9.099,-34.513 23.732,-43.663 129.339,-80.682 305.554,-80.665 434.759,-0.017 14.649,9.166 23.749,25.885 23.749,43.679 v 118.558 c 0,9.521 -7.703,17.224 -17.224,17.224 z M 68.891,516.685 H 482.239 V 415.349 c 0,-6.004 -2.893,-11.555 -7.552,-14.464 -118.256,-73.819 -279.905,-73.87 -398.26,0.017 -4.642,2.893 -7.535,8.443 -7.535,14.448 z"
           id="path2798" />
      </g>
      <g
         transform="matrix(0.26458333,0,0,0.26458333,295.12377,44.813986)"
         id="g2959"
         style="fill:#cb70f8;fill-opacity:1">
        <g
           id="g860"
           style="fill:#cb70f8;fill-opacity:1" />
        <g
           id="g862"
           style="fill:#cb70f8;fill-opacity:1" />
        <g
           id="g864"
           style="fill:#cb70f8;fill-opacity:1" />
        <g
           id="g866"
           style="fill:#cb70f8;fill-opacity:1" />
        <g
           id="g868"
           style="fill:#cb70f8;fill-opacity:1" />
        <g
           id="g870"
           style="fill:#cb70f8;fill-opacity:1" />
        <g
           id="g872"
           style="fill:#cb70f8;fill-opacity:1" />
        <g
           id="g874"
           style="fill:#cb70f8;fill-opacity:1" />
        <g
           id="g876"
           style="fill:#cb70f8;fill-opacity:1" />
        <g
           id="g878"
           style="fill:#cb70f8;fill-opacity:1" />
        <g
           id="g880"
           style="fill:#cb70f8;fill-opacity:1" />
        <g
           id="g882"
           style="fill:#cb70f8;fill-opacity:1" />
        <g
           id="g884"
           style="fill:#cb70f8;fill-opacity:1" />
        <g
           id="g886"
           style="fill:#cb70f8;fill-opacity:1" />
        <g
           id="g888"
           style="fill:#cb70f8;fill-opacity:1" />
      </g>
    </g>
  </g>
</svg>
