<?xml version="1.0" encoding="UTF-8" standalone="no"?>
<!-- Created with Inkscape (http://www.inkscape.org/) -->

<svg
   xmlns:dc="http://purl.org/dc/elements/1.1/"
   xmlns:cc="http://creativecommons.org/ns#"
   xmlns:rdf="http://www.w3.org/1999/02/22-rdf-syntax-ns#"
   xmlns:svg="http://www.w3.org/2000/svg"
   xmlns="http://www.w3.org/2000/svg"
   xmlns:sodipodi="http://sodipodi.sourceforge.net/DTD/sodipodi-0.dtd"
   xmlns:inkscape="http://www.inkscape.org/namespaces/inkscape"
   width="210mm"
   height="297mm"
   viewBox="0 0 210 297"
   version="1.1"
   id="svg2215"
   inkscape:version="0.92.4 (5da689c313, 2019-01-14)"
   sodipodi:docname="violetLogo2.svg"
   inkscape:export-filename="F:\Users\skrzy\Desktop\myLogo.png"
   inkscape:export-xdpi="96"
   inkscape:export-ydpi="96">
  <defs
     id="defs2209" />
  <sodipodi:namedview
     id="base"
     pagecolor="#ffffff"
     bordercolor="#666666"
     borderopacity="1.0"
     inkscape:pageopacity="0.0"
     inkscape:pageshadow="2"
     inkscape:zoom="0.35"
     inkscape:cx="462.03106"
     inkscape:cy="568.54534"
     inkscape:document-units="mm"
     inkscape:current-layer="g2282"
     showgrid="false"
     inkscape:window-width="1366"
     inkscape:window-height="715"
     inkscape:window-x="-8"
     inkscape:window-y="-8"
     inkscape:window-maximized="1" />
  <metadata
     id="metadata2212">
    <rdf:RDF>
      <cc:Work
         rdf:about="">
        <dc:format>image/svg+xml</dc:format>
        <dc:type
           rdf:resource="http://purl.org/dc/dcmitype/StillImage" />
        <dc:title></dc:title>
      </cc:Work>
    </rdf:RDF>
  </metadata>
  <g
     inkscape:label="Layer 1"
     inkscape:groupmode="layer"
     id="layer1">
    <rect
       style="fill:#ffffff;fill-opacity:1;stroke:none;stroke-width:5.29166651;stroke-miterlimit:4;stroke-dasharray:none;stroke-opacity:1"
       id="rect2228"
       width="54.42857"
       height="5.2916665"
       x="-53.672623"
       y="253.15475" />
    <g
       id="g2282"
       transform="matrix(0.03527778,0,0,-0.03527778,16.303751,233.10799)"
       style="fill:#de00d6;fill-opacity:1;stroke:none">
      <path
         id="path2258"
         d="m 188.28585,3674.4285 c -10,-66 4,-448 21,-568 47,-333 185,-628 399,-852 143,-151 251.00001,-221 421.00005,-277 233,-76 528,-83 890,-21 181.9999,31 216.9999,25 288.9999,-56 36,-39 86,-130 86,-156 0,-7 10,-13 21,-13 19,0 21,4 14,37 -20,107 -78,209 -145,254 -84,56 -121,62 -399.9999,65 -216,1 -269,5 -347,22 -212,48 -393,154 -582.00004,342 -338.00001,335 -576.00001,797 -626.00001,1213 -9,72 -31,77 -41,10 z"
         inkscape:connector-curvature="0"
         style="fill:#de00d6;fill-opacity:1" />
      <path
         id="path2260"
         d="m 4719.2859,3664.4285 c -37,-314 -188,-670 -406,-960 -258,-343 -519.0001,-535 -815.0001,-598 -61,-13 -138,-18 -334,-19 -279,-3 -316,-9 -400,-65 -67,-45 -125,-147 -145,-254 -7,-33 -5,-37 14,-37 11,0 21,6 21,13 0,26 50,117 86,156 72,80 105,86 288,56 525,-87 904,-36 1162.0001,159 88,66 230,218 295,316 135,204 219,428 254,675 17,120 31,502 21,568 -10,67 -32,62 -41,-10 z"
         inkscape:connector-curvature="0"
         style="fill:#de00d6;fill-opacity:1" />
      <path
         id="path2262"
         d="m 134.28585,2470.4285 c 0,-17 7,-59 16,-93 68,-270 242,-497 466,-608 171.00001,-84 319.00001,-113 548.00005,-105 177,7 286,27 441,82 148,52 263,83 365,99 l 88.9999,13 -49,8 c -26.9999,4 -220.9999,2 -430.9999,-5 -411,-14 -495,-11 -660.00004,31 -215.00001,54 -487.00001,253 -712.00001,522 -70,84 -73,86 -73,56 z"
         inkscape:connector-curvature="0"
         style="fill:#de00d6;fill-opacity:1" />
      <path
         id="path2264"
         d="m 4754.2859,2429.4285 c -77,-97 -268,-281 -375,-360 -111,-83 -244,-151 -350,-177 -165.0001,-42 -249.0001,-45 -660.0001,-31 -210,7 -404,9 -431,5 l -49,-8 89,-13 c 103,-16 218,-47 366,-99 156,-56 263,-75 440,-82 424.0001,-14 724.0001,135 910.0001,453 64,110 125,292 118,353 -3,26 -6,24 -58,-41 z"
         inkscape:connector-curvature="0"
         style="fill:#de00d6;fill-opacity:1" />
      <path
         id="path2266"
         d="m 1979.2859,1802.4285 c -60,-21 -156,-69 -245,-122 -100,-58 -282,-127 -413,-154 -96,-21 -235,-19 -332.00005,4 -105.99999,26 -218,73 -269,112 -75,59 -71,57 -56,29 7,-14 56,-68 109,-120 71.00001,-71 113.00001,-104 162.00001,-128 130.00004,-63 254.00004,-76 394.00004,-42 166,40 264,93 467,253 73,57 162,123 197,146 68.9999,44 64.9999,51 -14,22 z"
         inkscape:connector-curvature="0"
         style="fill:#de00d6;fill-opacity:1" />
      <path
         id="path2268"
         d="m 2954.2858,1781.4285 c 36,-24 125,-90 198,-147 152,-120 227,-167 332,-210 200,-82 361,-82 529.0001,-1 49,24 91,57 162,128 53,52 102,106 109,120 15,28 19,30 -55,-28 -129,-100 -405.0001,-158 -587.0001,-121 -93,18 -300,92 -383,136 -149,80 -300,151 -335,158 -32,6 -29,3 30,-35 z"
         inkscape:connector-curvature="0"
         style="fill:#de00d6;fill-opacity:1" />
      <path
         id="path2270"
         d="m 1942.2859,1671.4285 c -25,-21 -82,-93 -128,-160 -45,-66 -98,-133 -116,-150 -76,-67 -186,-100 -335,-100 -100,0 -175,19 -220,57 -30,26 -31,26 -20,4 23,-42 93,-100.9999 155,-129.9999 193,-91 392,-58 529,87.9999 52,55 84,116 117,216 32,99 69,163 109.9999,191 l 35,24 h -41 c -33.9999,0 -48.9999,-7 -85.9999,-40 z"
         inkscape:connector-curvature="0"
         style="fill:#de00d6;fill-opacity:1" />
      <path
         id="path2272"
         d="m 2914.2858,1687.4285 c 41,-28 78,-92 110,-191 33,-100 65,-161 117,-216 137,-145.9999 336,-178.9999 529,-87.9999 62,29 132,87.9999 155,129.9999 11,22 10,22 -20,-4 -45,-38 -120,-57 -220,-57 -149,0 -259,33 -335,100 -18,17 -71,84 -116,150 -103,150 -156,200 -214,200 h -41 z"
         inkscape:connector-curvature="0"
         style="fill:#de00d6;fill-opacity:1" />
      <path
         id="path2274"
         d="m 2052.2858,1624.4285 c -51,-55 -70.9999,-115 -86.9999,-260 -12,-109.9999 -32,-158.9999 -79,-185.9999 -32,-19 -33,-21 -14,-28 30,-11 88,8 126,42 54.9999,48 67.9999,93.9999 75.9999,268.9999 4,85 10,163 15,173 11,26 -8,21 -37,-10 z"
         inkscape:connector-curvature="0"
         style="fill:#de00d6;fill-opacity:1" />
      <path
         id="path2276"
         d="m 2859.2858,1634.4285 c 5,-10 11,-88 15,-173 7,-174 22,-223.9999 79,-271.9999 37,-32 94,-50 123,-39 19,7 18,9 -14,28 -47,27 -67,76 -79,185.9999 -11,103 -24,157 -46,202 -28,55 -99,117 -78,68 z"
         inkscape:connector-curvature="0"
         style="fill:#de00d6;fill-opacity:1" />
      <path
         id="path2278"
         d="m 2144.2858,1627.4285 c -16,-20 -17,-59 -5,-162 6,-57 4,-78 -8,-103 -20,-40 2,-43 32,-5 41,52 46,95 23,176 -11,40 -22,82 -24,92 -3,18 -4,18 -18,2 z"
         inkscape:connector-curvature="0"
         style="fill:#de00d6;fill-opacity:1" />
      <path
         id="path2280"
         d="m 2784.2858,1626.4285 c 0,-11 -10,-53 -21,-93 -19,-63 -20,-78 -10,-114 12,-38 66,-106 76,-96 3,3 -2,20 -11,38 -14,26 -15,46 -9,104 13,108 11,144 -8,163 -16,16 -17,16 -17,-2 z"
         inkscape:connector-curvature="0"
         style="fill:#de00d6;fill-opacity:1" />
    </g>
  </g>
</svg>
