<?xml version="1.0" encoding="UTF-8" standalone="no"?>
<!-- Created with Inkscape (http://www.inkscape.org/) -->

<svg
   xmlns:dc="http://purl.org/dc/elements/1.1/"
   xmlns:cc="http://creativecommons.org/ns#"
   xmlns:rdf="http://www.w3.org/1999/02/22-rdf-syntax-ns#"
   xmlns:svg="http://www.w3.org/2000/svg"
   xmlns="http://www.w3.org/2000/svg"
   xmlns:sodipodi="http://sodipodi.sourceforge.net/DTD/sodipodi-0.dtd"
   xmlns:inkscape="http://www.inkscape.org/namespaces/inkscape"
   width="210mm"
   height="297mm"
   viewBox="0 0 210 297"
   version="1.1"
   id="svg2215"
   inkscape:version="0.92.4 (5da689c313, 2019-01-14)"
   sodipodi:docname="violetLogo3.svg"
   inkscape:export-filename="F:\Users\skrzy\Desktop\myLogo.png"
   inkscape:export-xdpi="96"
   inkscape:export-ydpi="96">
  <defs
     id="defs2209" />
  <sodipodi:namedview
     id="base"
     pagecolor="#ffffff"
     bordercolor="#666666"
     borderopacity="1.0"
     inkscape:pageopacity="0.0"
     inkscape:pageshadow="2"
     inkscape:zoom="0.35"
     inkscape:cx="462.03106"
     inkscape:cy="568.54534"
     inkscape:document-units="mm"
     inkscape:current-layer="layer1"
     showgrid="false"
     inkscape:window-width="1366"
     inkscape:window-height="715"
     inkscape:window-x="-8"
     inkscape:window-y="-8"
     inkscape:window-maximized="1" />
  <metadata
     id="metadata2212">
    <rdf:RDF>
      <cc:Work
         rdf:about="">
        <dc:format>image/svg+xml</dc:format>
        <dc:type
           rdf:resource="http://purl.org/dc/dcmitype/StillImage" />
        <dc:title></dc:title>
      </cc:Work>
    </rdf:RDF>
  </metadata>
  <g
     inkscape:label="Layer 1"
     inkscape:groupmode="layer"
     id="layer1">
    <rect
       style="fill:#ffffff;fill-opacity:1;stroke:none;stroke-width:4.90290213;stroke-miterlimit:4;stroke-dasharray:none;stroke-opacity:1"
       id="rect2228"
       width="49.951267"
       height="4.9498773"
       x="-68.035713"
       y="258.03226" />
    <g
       id="g2282"
       transform="matrix(0.03527778,0,0,-0.04340222,16.303751,269.0899)"
       style="fill:#b233d6;fill-opacity:1;stroke:none">
      <path
         id="path2258"
         d="m -378.44854,4364.0554 c -12.7083,-90.4528 5.08327,-613.9829 26.68733,-778.4426 59.7288,-456.3758 235.10282,-860.6725 507.0596,-1167.6639 181.72809,-206.9453 318.97736,-302.88 535.01791,-379.6279 296.10244,-104.1579 670.9961,-113.7514 1131.0352,-28.7805 231.2902,42.4854 275.7692,34.2624 367.2686,-76.7479 45.7497,-53.4494 109.291,-178.1647 109.291,-213.7975 0,-9.5937 12.7083,-17.8166 26.6874,-17.8166 24.1457,0 26.6873,5.4821 17.7915,50.7085 -25.4165,146.6433 -99.1244,286.434 -184.2697,348.1064 -106.7494,76.7479 -153.7699,84.9709 -508.3303,89.0823 -274.4984,1.3705 -341.8522,6.8524 -440.9766,30.1509 -269.41516,65.7839 -499.43473,211.0567 -739.62091,468.7103 -429.539219,459.1166 -731.99589,1092.2865 -795.53717,1662.4136 -11.43743,98.6758 -39.39564,105.5283 -52.10386,13.7049 z"
         inkscape:connector-curvature="0"
         style="fill:#b233d6;fill-opacity:1;stroke-width:1.31972122" />
      <path
         id="path2260"
         d="M 5379.6645,4350.3505 C 5332.644,3920.0143 5140.7493,3432.117 4863.7092,3034.6727 4535.836,2564.592 4204.1503,2301.4565 3827.9857,2215.1151 c -77.5204,-17.8164 -175.3739,-24.6689 -424.4558,-26.0394 -354.5606,-4.1114 -401.5811,-12.3344 -508.3305,-89.0823 -85.1454,-61.6724 -158.8533,-201.4631 -184.2698,-348.1064 -8.8957,-45.2264 -6.3541,-50.7085 17.7916,-50.7085 13.9791,0 26.6873,8.2229 26.6873,17.8166 0,35.6328 63.5414,160.3481 109.291,213.7975 91.4996,109.6399 133.4368,117.8629 365.998,76.7479 667.1836,-119.2332 1148.8267,-49.3379 1476.7,217.9091 111.8327,90.4528 292.2901,298.7685 374.8937,433.0773 171.5616,279.5815 278.3109,586.573 322.7898,925.0859 21.6041,164.4597 39.3957,687.9898 26.6874,778.4426 -12.7082,91.8234 -40.6664,84.9709 -52.1039,-13.7049 z"
         inkscape:connector-curvature="0"
         style="fill:#b233d6;fill-opacity:1;stroke-width:1.31972122" />
      <path
         id="path2262"
         d="m -447.07317,2713.9763 c 0,-23.2985 8.89574,-80.8594 20.33326,-127.4563 86.41612,-370.0344 307.53985,-681.1374 592.20493,-833.2626 217.31125,-115.1218 405.39358,-154.8662 696.41273,-143.9022 224.93635,9.5934 363.45625,37.0034 560.43435,112.3807 188.0822,71.266 334.2273,113.7514 463.8515,135.6794 l 113.1035,17.8164 -62.2706,10.9641 c -34.3121,5.4819 -280.8523,2.7408 -547.7259,-6.8526 -522.30949,-19.187 -629.05887,-15.0755 -838.74526,42.4854 -273.22766,74.0068 -618.892349,346.7359 -904.82823,715.3998 -88.95781,115.1218 -92.77028,117.8628 -92.77028,76.7479 z"
         inkscape:connector-curvature="0"
         style="fill:#b233d6;fill-opacity:1;stroke-width:1.31972122" />
      <path
         id="path2264"
         d="m 5424.1434,2657.7859 c -97.8536,-132.9383 -340.5814,-385.1099 -476.5598,-493.3791 -141.0617,-113.7513 -310.0815,-206.9452 -444.7891,-242.5782 -209.6864,-57.5609 -316.4358,-61.6724 -838.7453,-42.4854 -266.8735,9.5934 -513.4137,12.3345 -547.726,6.8526 l -62.2705,-10.9641 113.1035,-17.8164 c 130.8951,-21.928 277.0401,-64.4134 465.1223,-135.6794 198.2489,-76.7477 334.2273,-102.7873 559.1635,-112.3807 538.8303,-19.187 920.0782,185.0171 1156.4518,620.8355 81.333,150.7547 158.8534,400.1852 149.9575,483.7856 -3.8125,35.633 -7.6249,32.8919 -73.7079,-56.1904 z"
         inkscape:connector-curvature="0"
         style="fill:#b233d6;fill-opacity:1;stroke-width:1.31972122" />
      <path
         id="path2266"
         d="m 1897.601,1798.4838 c -76.2495,-28.7804 -198.2488,-94.5643 -311.3523,-167.2007 -127.0826,-79.4888 -358.373,-174.0531 -524.8512,-211.0565 -121.99926,-28.7806 -298.64418,-26.0396 -421.91436,5.4819 -134.70749,35.633 -277.04004,100.0463 -341.8522,153.4957 -95.31196,80.8593 -90.22869,78.1185 -71.16632,39.7444 8.89583,-19.1869 71.16632,-93.1938 138.52016,-164.4597 90.2286,-97.3053 143.60334,-142.5317 205.87382,-175.4237 165.2074,-86.3413 322.78984,-104.1578 500.7056,-57.5609 210.9571,54.82 335.498,127.4563 593.4757,346.736 92.7702,78.1183 205.8738,168.5712 250.3528,200.0927 87.6868,60.3019 82.6035,69.8953 -17.7917,30.1508 z"
         inkscape:connector-curvature="0"
         style="fill:#b233d6;fill-opacity:1;stroke-width:1.31972122" />
      <path
         id="path2268"
         d="m 3136.6563,1769.7034 c 45.7499,-32.8919 158.8533,-123.3448 251.6237,-201.4631 193.1654,-164.4598 288.4774,-228.8731 421.9141,-287.8045 254.1653,-112.3808 458.7682,-112.3808 672.2672,-1.3706 62.2705,32.892 115.6451,78.1184 205.8738,175.4237 67.3538,71.2659 129.6243,145.2728 138.5201,164.4597 19.0623,38.3741 24.1457,41.1149 -69.8954,-38.3738 -163.9367,-137.0499 -514.6847,-216.5387 -745.9751,-165.8303 -118.1868,24.6689 -381.2478,126.0858 -486.7263,186.3877 -189.3532,109.6399 -381.2479,206.9451 -425.7268,216.5387 -40.6664,8.2229 -36.8539,4.1114 38.1247,-47.9675 z"
         inkscape:connector-curvature="0"
         style="fill:#b233d6;fill-opacity:1;stroke-width:1.31972122" />
      <path
         id="path2270"
         d="m 1850.5805,1618.9486 c -31.7707,-28.7804 -104.2077,-127.4562 -162.6657,-219.2796 -57.1871,-90.4528 -124.541,-182.2761 -147.4159,-205.5746 -96.5828,-91.8233 -236.3735,-137.0497 -425.7267,-137.0497 -127.08258,0 -222.39455,26.0394 -279.58177,78.1183 -38.12475,35.6329 -39.39563,35.6329 -25.41653,5.482 29.229,-57.5609 118.18683,-138.4201 196.9781,-178.16453 245.2694,-124.7153 498.1637,-79.48889 672.267,120.60363 66.0829,75.3773 106.7494,158.9777 148.6866,296.0275 40.6664,135.6793 87.6871,223.3911 139.7908,261.7651 l 44.4789,32.8919 h -52.1038 c -43.208,0 -62.2705,-9.5936 -109.291,-54.82 z"
         inkscape:connector-curvature="0"
         style="fill:#b233d6;fill-opacity:1;stroke-width:1.31972122" />
      <path
         id="path2272"
         d="m 3085.8233,1640.8767 c 52.104,-38.374 99.1245,-126.0858 139.7908,-261.7651 41.9373,-137.0498 82.6038,-220.6502 148.6868,-296.0275 174.1031,-200.09252 426.9975,-245.31893 672.267,-120.60363 78.7911,39.74443 167.7489,120.60363 196.9779,178.16453 13.9792,30.1509 12.7083,30.1509 -25.4164,-5.482 -57.1872,-52.0789 -152.4991,-78.1183 -279.5818,-78.1183 -189.353,0 -329.1439,45.2264 -425.7267,137.0497 -22.8749,23.2985 -90.2286,115.1218 -147.4159,205.5746 -130.895,205.5747 -198.2488,274.0996 -271.9568,274.0996 h -52.1038 z"
         inkscape:connector-curvature="0"
         style="fill:#b233d6;fill-opacity:1;stroke-width:1.31972122" />
      <path
         id="path2274"
         d="m 1990.3712,1554.5353 c -64.812,-75.3774 -90.2285,-157.6072 -110.5617,-356.3294 -15.2499,-150.7546 -40.6665,-217.90896 -100.3953,-254.91237 -40.6664,-26.03948 -41.9372,-28.7805 -17.7915,-38.37398 38.1247,-15.07544 111.8326,10.96404 160.1241,57.56092 69.8954,65.78393 86.416,128.82653 96.5826,368.66373 5.0833,116.4922 12.7083,223.3911 19.0624,237.0961 13.9791,35.6329 -10.1666,28.7804 -47.0206,-13.705 z"
         inkscape:connector-curvature="0"
         style="fill:#b233d6;fill-opacity:1;stroke-width:1.31972122" />
      <path
         id="path2276"
         d="m 3015.9279,1568.2403 c 6.3541,-13.705 13.9791,-120.6039 19.0624,-237.0961 8.8957,-238.4666 27.9581,-306.9913 100.3953,-372.77523 47.0206,-43.85594 119.4575,-68.52486 156.3115,-53.44942 24.1457,9.59348 22.875,12.3345 -17.7915,38.37398 -59.7288,37.00341 -85.1454,104.15777 -100.3953,254.91237 -13.9791,141.1613 -30.4998,215.1681 -58.458,276.8405 -35.5831,75.3774 -125.8118,160.3482 -99.1244,93.1939 z"
         inkscape:connector-curvature="0"
         style="fill:#b233d6;fill-opacity:1;stroke-width:1.31972122" />
      <path
         id="path2278"
         d="m 2107.2873,1558.6468 c -20.3334,-27.4099 -21.6041,-80.8593 -6.3542,-222.0207 7.6249,-78.1183 5.0833,-106.8988 -10.1666,-141.1612 -25.4164,-54.8199 2.5416,-58.9314 40.6665,-6.8525 52.1039,71.2659 58.4579,130.1973 29.2289,241.2076 -13.979,54.8199 -27.9581,112.3808 -30.4998,126.0858 -3.8125,24.669 -5.0833,24.669 -22.8748,2.741 z"
         inkscape:connector-curvature="0"
         style="fill:#b233d6;fill-opacity:1;stroke-width:1.31972122" />
      <path
         id="path2280"
         d="m 2920.6159,1557.2762 c 0,-15.0754 -12.7082,-72.6363 -26.6873,-127.4562 -24.1457,-86.3413 -25.4165,-106.8988 -12.7082,-156.2367 15.2498,-52.079 83.8744,-145.2728 96.5827,-131.5678 3.8125,4.1115 -2.5417,27.41 -13.9791,52.0789 -17.7916,35.6329 -19.0624,63.0429 -11.4374,142.5317 16.5208,148.0138 13.9791,197.3517 -10.1666,223.3912 -20.3332,21.9279 -21.6041,21.9279 -21.6041,-2.7411 z"
         inkscape:connector-curvature="0"
         style="fill:#b233d6;fill-opacity:1;stroke-width:1.31972122" />
    </g>
  </g>
</svg>
